<svg width="1215" height="306" viewBox="0 0 1215 306" fill="none" xmlns="http://www.w3.org/2000/svg">
<path d="M1211.34 266.285C1211.82 266.257 1212.31 266.291 1212.76 266.457C1213.48 266.724 1214.16 267.449 1214.43 268.164C1214.7 268.879 1214.72 269.727 1214.36 270.415C1213.9 271.268 1213.1 271.685 1212.23 271.997C1211.75 272.017 1211.29 272.036 1210.84 271.882C1210.04 271.611 1209.4 270.973 1209.08 270.202C1208.78 269.485 1208.88 268.56 1209.21 267.869C1209.65 266.967 1210.44 266.583 1211.34 266.285Z" fill="#0F57F4"/>
<path d="M1138.87 298.631C1139.41 298.65 1139.94 298.725 1140.44 298.935C1141.23 299.27 1141.72 299.859 1142 300.613C1142.26 301.286 1142.15 302.172 1141.8 302.798C1141.26 303.753 1140.46 304.083 1139.41 304.365C1138.89 304.342 1138.37 304.32 1137.89 304.104C1137.11 303.748 1136.42 303.143 1136.15 302.351C1135.9 301.618 1135.96 300.855 1136.39 300.188C1136.98 299.254 1137.79 298.879 1138.87 298.631Z" fill="#F9AC8E"/>
<path d="M1208.82 299.041C1209.52 299.094 1210.23 299.182 1210.82 299.592C1211.5 300.064 1211.98 300.799 1212.13 301.614C1212.29 302.506 1212.04 303.546 1211.49 304.274C1210.88 305.09 1210.06 305.434 1209.07 305.594C1208.42 305.535 1207.68 305.411 1207.11 305.059C1206.34 304.586 1205.86 303.922 1205.7 303.046C1205.52 302.065 1205.67 301.054 1206.28 300.255C1206.94 299.391 1207.79 299.166 1208.82 299.041Z" fill="#E97CFC"/>
<path d="M1199.99 279.055L1200.36 279.01C1200.95 278.958 1201.36 279.105 1201.81 279.518C1202.66 280.308 1202.52 281.475 1202.57 282.546C1203.43 282.609 1204.7 282.626 1205.38 283.221C1205.81 283.597 1206.02 284.06 1206.05 284.629C1206.08 285.193 1205.95 285.718 1205.56 286.137C1204.8 286.954 1203.73 286.907 1202.71 286.925C1202.63 287.584 1202.63 288.321 1202.44 288.953C1202.2 289.704 1201.68 290.087 1201.01 290.415L1200.64 290.465C1200.07 290.496 1199.5 290.244 1199.09 289.858C1198.33 289.154 1198.41 287.921 1198.34 286.961C1197.56 286.853 1196.61 286.79 1195.93 286.355C1195.56 286.116 1195.13 285.719 1195.05 285.26C1194.92 284.582 1195.04 283.948 1195.47 283.409C1196.09 282.629 1197.23 282.668 1198.14 282.542C1198.47 281.877 1198.4 280.982 1198.66 280.26C1198.91 279.609 1199.38 279.32 1199.99 279.055Z" fill="#49E6D9"/>
<path d="M136.444 52.009C136.918 51.9808 137.407 52.0142 137.857 52.1802C138.582 52.4479 139.257 53.1722 139.53 53.8872C139.803 54.6022 139.824 55.4509 139.456 56.1389C138.999 56.9912 138.195 57.409 137.326 57.7204C136.853 57.7406 136.393 57.7593 135.939 57.6054C135.141 57.3343 134.504 56.6962 134.179 55.9253C133.876 55.2091 133.982 54.284 134.314 53.5929C134.747 52.691 135.537 52.3067 136.444 52.009Z" fill="#0F57F4"/>
<path d="M105.444 24.009C105.918 23.9808 106.407 24.0142 106.857 24.1802C107.582 24.4479 108.257 25.1722 108.53 25.8872C108.803 26.6022 108.824 27.4509 108.456 28.1389C107.999 28.9912 107.195 29.409 106.326 29.7204C105.853 29.7406 105.393 29.7593 104.939 29.6054C104.141 29.3343 103.504 28.6962 103.179 27.9253C102.876 27.2091 102.982 26.284 103.314 25.5929C103.747 24.691 104.537 24.3067 105.444 24.009Z" fill="#4BE7D8"/>
<path d="M57.3731 87.0409C58.0732 87.0939 58.7819 87.1821 59.3752 87.5921C60.0572 88.0636 60.5352 88.7993 60.6824 89.6137C60.8433 90.5056 60.5944 91.5459 60.0452 92.2737C59.4292 93.0902 58.6108 93.4339 57.6263 93.5938C56.9708 93.5354 56.2311 93.4111 55.6617 93.059C54.8965 92.5861 54.4129 91.9216 54.2502 91.046C54.068 90.0646 54.2179 89.0541 54.8295 88.2551C55.4911 87.3908 56.3435 87.1656 57.3731 87.0409Z" fill="#E97CFC"/>
<path d="M8.38202 51.0548L8.74813 51.01C9.34251 50.9581 9.75422 51.1054 10.1991 51.5182C11.0499 52.3075 10.9133 53.4745 10.9612 54.5461C11.8186 54.6088 13.093 54.6257 13.7692 55.2206C14.1979 55.5975 14.4163 56.0603 14.4465 56.6294C14.4764 57.193 14.3474 57.7183 13.9547 58.1374C13.19 58.9537 12.1234 58.9068 11.0996 58.925C11.0248 59.5839 11.0231 60.321 10.8277 60.953C10.5956 61.7042 10.0722 62.0873 9.40129 62.4145L9.03113 62.4649C8.4598 62.4964 7.89278 62.2444 7.47829 61.8583C6.722 61.1539 6.80207 59.9214 6.73417 58.9608C5.949 58.8531 5.00042 58.7899 4.32141 58.3554C3.94821 58.1165 3.52105 57.7191 3.43845 57.2596C3.31633 56.5818 3.43161 55.9477 3.86182 55.4094C4.48584 54.6293 5.62419 54.6681 6.533 54.5423C6.86465 53.8773 6.78813 52.9825 7.0572 52.2597C7.29916 51.609 7.77674 51.3204 8.38202 51.0548Z" fill="#4B5ECC"/>
<path d="M5.04182 123.962C6.28395 123.826 7.40126 123.887 8.52366 124.466C9.96612 125.209 10.9095 126.389 11.389 127.889C11.8059 129.194 11.5212 130.705 10.8307 131.875C10.0185 133.251 8.65967 134.01 7.11246 134.393C5.96744 134.693 4.71082 134.548 3.6352 134.073C2.36078 133.511 1.32685 132.364 0.860351 131.102C0.321906 129.645 0.434271 127.996 1.1855 126.628C1.99266 125.158 3.45928 124.427 5.04182 123.962Z" fill="#A18BEC"/>
<path d="M1035.09 4.60752C1035.45 4.29754 1035.86 4.02729 1036.32 3.88637C1037.06 3.65906 1038.03 3.82509 1038.68 4.22791C1039.33 4.63073 1039.87 5.29232 1039.99 6.06286C1040.14 7.01752 1039.76 7.8371 1039.26 8.61212C1038.89 8.91514 1038.54 9.20908 1038.08 9.36241C1037.29 9.63147 1036.39 9.51051 1035.67 9.09514C1034.99 8.70924 1034.51 7.90997 1034.36 7.15922C1034.16 6.17951 1034.55 5.3947 1035.09 4.60752Z" fill="#0F57F4"/>
<path d="M997.111 74.2949C997.551 73.9828 998.022 73.7176 998.543 73.5845C999.372 73.3725 1000.12 73.5401 1000.8 73.9683C1001.41 74.3505 1001.87 75.1175 1001.97 75.8303C1002.11 76.9188 1001.68 77.6647 1001.02 78.5258C1000.59 78.8233 1000.17 79.1195 999.656 79.2372C998.814 79.4315 997.899 79.3701 997.203 78.9044C996.559 78.4739 996.148 77.8274 996.081 77.0392C995.987 75.9369 996.399 75.1494 997.111 74.2949Z" fill="#F9AC8E"/>
<path d="M1052.96 32.1752C1053.55 31.7926 1054.17 31.4326 1054.89 31.3985C1055.71 31.3594 1056.54 31.6541 1057.15 32.2122C1057.82 32.8234 1058.25 33.8014 1058.26 34.7132C1058.26 35.7359 1057.82 36.5058 1057.14 37.2302C1056.58 37.5815 1055.92 37.9316 1055.25 37.9972C1054.36 38.0856 1053.57 37.8509 1052.91 37.2537C1052.17 36.5841 1051.67 35.69 1051.67 34.6838C1051.68 33.5953 1052.22 32.8991 1052.96 32.1752Z" fill="#E97CFC"/>
<path d="M1025.46 123.761C1025.66 123.607 1025.84 123.474 1026.07 123.374C1026.73 123.09 1027.4 123.088 1028.04 123.369C1028.63 123.626 1029.01 124.049 1029.2 124.654C1029.47 125.507 1029.13 126.139 1028.74 126.918C1028.45 127.157 1028.08 127.371 1027.72 127.478C1027.08 127.663 1026.42 127.568 1025.87 127.255C1025.36 126.972 1025 126.398 1024.88 125.842C1024.69 125.007 1025.02 124.462 1025.46 123.761Z" fill="#F9FAFD"/>
<path d="M992.183 33.2989L992.446 33.0412C992.887 32.6392 993.304 32.5066 993.908 32.5646C995.063 32.6758 995.663 33.6863 996.351 34.509C997.071 34.0386 998.094 33.2787 998.992 33.3412C999.562 33.3807 1000.02 33.616 1000.39 34.0501C1000.75 34.48 1000.97 34.9758 1000.91 35.5472C1000.8 36.6599 999.921 37.27 999.118 37.9057C999.459 38.4747 999.905 39.0617 1000.13 39.6826C1000.4 40.4205 1000.22 41.0426 999.886 41.7098L999.622 41.9745C999.187 42.3462 998.584 42.4899 998.02 42.4346C996.991 42.3336 996.307 41.3053 995.67 40.583C994.981 40.9738 994.188 41.4992 993.385 41.5659C992.943 41.6024 992.363 41.5457 992.018 41.2306C991.51 40.7659 991.217 40.192 991.232 39.5031C991.255 38.5043 992.183 37.8445 992.829 37.193C992.689 36.4631 992.085 35.7984 991.861 35.0605C991.658 34.3965 991.863 33.8773 992.183 33.2989Z" fill="#4B5ECC"/>
<path d="M1033.77 93.2765C1034.67 92.4146 1035.6 91.7852 1036.84 91.5641C1038.44 91.28 1039.9 91.645 1041.2 92.5469C1042.32 93.3311 1043.01 94.7046 1043.17 96.0533C1043.36 97.6399 1042.74 99.0678 1041.74 100.311C1041.01 101.245 1039.93 101.892 1038.78 102.167C1037.43 102.494 1035.91 102.209 1034.78 101.489C1033.46 100.658 1032.55 99.2785 1032.32 97.7354C1032.07 96.0776 1032.79 94.6064 1033.77 93.2765Z" fill="#A18BEC"/>
<path d="M1156.22 68C1156.59 68.0377 1156.91 68.0961 1157.25 68.2621C1157.9 68.5894 1158.35 69.3055 1158.56 70.0116C1158.75 70.6788 1158.61 71.4243 1158.27 72.0171C1157.8 72.8521 1157.03 73.1104 1156.17 73.3242C1155.68 73.1977 1155.12 73.08 1154.69 72.7824C1154.18 72.4213 1153.9 71.8939 1153.78 71.2775C1153.61 70.4189 1153.88 69.6402 1154.37 68.9542C1154.83 68.3175 1155.5 68.1315 1156.22 68Z" fill="#F9AC8E"/>
<path d="M1156.12 149.066C1156.67 148.983 1157.26 148.949 1157.78 149.146C1158.56 149.434 1159.14 149.97 1159.48 150.709C1159.78 151.349 1159.83 152.283 1159.55 152.941C1159.16 153.866 1158.48 154.354 1157.57 154.715C1157.06 154.73 1156.49 154.778 1155.99 154.622C1155.26 154.395 1154.66 153.852 1154.3 153.19C1153.93 152.484 1153.92 151.653 1154.18 150.906C1154.52 149.943 1155.26 149.514 1156.12 149.066Z" fill="#0F57F4"/>
<path d="M1151.51 94.2199C1152.55 94.1695 1153.42 94.3312 1154.2 95.0525C1155.02 95.8105 1154.89 96.7929 1154.9 97.8031C1155.49 97.7802 1156.2 97.7507 1156.78 97.8781C1157.43 98.0211 1158 98.4734 1158.31 99.0339C1158.67 99.6926 1158.74 100.489 1158.51 101.198C1158.19 102.158 1157.33 102.858 1156.28 102.936C1155.88 102.966 1155.48 102.897 1155.13 103.085C1155.07 103.544 1155.01 104.012 1154.87 104.454C1154.54 105.456 1153.98 105.92 1153.04 106.374C1152.76 106.448 1152.48 106.486 1152.2 106.497C1151.47 106.524 1150.85 106.205 1150.33 105.732C1149.5 104.979 1149.52 103.971 1149.47 102.949L1148.04 102.976C1147.51 102.968 1147.08 102.726 1146.73 102.348C1146.17 101.759 1145.91 101.015 1145.95 100.224C1146 99.5394 1146.36 98.8634 1146.9 98.4308C1147.84 97.6884 1148.31 97.8723 1149.43 97.9889C1149.73 97.4155 1149.32 96.5337 1149.65 95.8554L1149.73 95.7172C1150.15 94.9163 1150.68 94.5972 1151.51 94.2199Z" fill="#1FC728"/>
<path d="M1070.5 216.005C1071.16 215.976 1071.71 216.068 1072.2 216.479C1072.72 216.911 1072.64 217.471 1072.64 218.046C1073.01 218.033 1073.46 218.016 1073.83 218.089C1074.23 218.17 1074.59 218.428 1074.79 218.747C1075.02 219.123 1075.06 219.576 1074.91 219.98C1074.71 220.527 1074.17 220.926 1073.51 220.971C1073.26 220.988 1073.01 220.948 1072.78 221.056C1072.75 221.317 1072.71 221.583 1072.62 221.835C1072.41 222.407 1072.06 222.671 1071.47 222.929C1071.29 222.972 1071.11 222.993 1070.94 222.999C1070.48 223.014 1070.09 222.833 1069.76 222.563C1069.24 222.135 1069.25 221.56 1069.22 220.978L1068.32 220.993C1067.98 220.989 1067.71 220.851 1067.49 220.636C1067.14 220.3 1066.97 219.876 1067 219.425C1067.03 219.035 1067.26 218.65 1067.6 218.404C1068.19 217.981 1068.49 218.086 1069.2 218.152C1069.38 217.825 1069.13 217.323 1069.33 216.937L1069.38 216.858C1069.65 216.402 1069.98 216.22 1070.5 216.005Z" fill="#1FC728"/>
<path d="M1177.49 82.7968C1178.33 82.6886 1179.08 82.7257 1179.86 83.1126C1180.8 83.573 1181.46 84.5648 1181.77 85.5694C1182.1 86.6305 1182.08 87.7861 1181.55 88.7752C1180.94 89.9164 1179.99 90.5357 1178.82 90.8967C1177.98 90.9962 1177.22 90.9135 1176.45 90.527C1175.48 90.0419 1174.68 89.0847 1174.36 88.0064C1174.05 86.9851 1174.22 85.6941 1174.74 84.7773C1175.36 83.659 1176.32 83.1057 1177.49 82.7968Z" fill="#F9FAFD"/>
<path d="M1125.16 239.017C1125.71 238.991 1126.17 238.965 1126.68 239.181C1127.35 239.46 1127.9 240.015 1128.15 240.687C1128.38 241.326 1128.4 242.157 1128.1 242.778C1127.71 243.596 1126.99 243.984 1126.16 244.288C1125.72 244.355 1125.3 244.332 1124.87 244.192C1124.08 243.934 1123.58 243.45 1123.24 242.706C1122.96 242.092 1122.9 241.313 1123.18 240.689C1123.61 239.744 1124.24 239.388 1125.16 239.017Z" fill="#4B5ECC"/>
<path d="M286.986 62.4494C286.24 63.2655 285.539 64.0336 284.627 64.6662C283.799 63.9854 283.13 63.1512 282.387 62.3834C281.607 61.5776 280.246 60.611 280 59.5108C280.433 58.6301 281.688 57.8982 282.421 57.2125C283.194 56.4904 283.822 55.439 284.796 55.0001C285.363 55.1369 285.895 55.9581 286.271 56.3962L286.392 56.5608C286.953 57.3157 287.623 57.941 288.298 58.5908C288.677 58.9556 289.127 59.2891 289.302 59.7981C288.949 61.0482 287.687 61.4573 286.986 62.4494Z" fill="#A18BEC"/>
<path d="M332.212 86.0685C332.961 86.1225 333.588 86.2569 334.246 86.6341C335.185 87.1724 336.018 88.1812 336.301 89.2228L336.345 89.3957L336.421 89.6976C336.615 90.6978 336.395 91.7638 335.798 92.592C334.944 93.7786 333.797 94.3095 332.397 94.562C331.488 94.5387 330.566 94.4666 329.769 93.9751C328.886 93.4302 328.322 92.4759 328.107 91.4763C327.85 90.2813 328.052 88.92 328.765 87.902C329.597 86.7139 330.838 86.2802 332.212 86.0685Z" fill="#A18BEC"/>
<path d="M331.836 88.3403L332.015 88.3547C332.398 88.3823 332.862 88.3765 333.217 88.5406C333.611 88.7232 334.078 89.2366 334.222 89.6499C334.386 90.1202 334.365 90.886 334.134 91.3347C333.812 91.9623 333.19 92.2668 332.564 92.5023L331.725 92.4276C331.168 92.3231 330.68 91.929 330.399 91.4424C330.113 90.9474 330.069 90.287 330.261 89.7548C330.546 88.9688 331.104 88.6552 331.836 88.3403Z" fill="#FBA9F8"/>
<path d="M437.95 57.8873C438.757 57.8868 439.377 57.7802 440.149 58.0985C441.194 58.5291 442.084 59.3072 442.485 60.3827C442.876 61.4274 442.891 62.3567 442.414 63.3819C441.857 64.5783 440.963 65.1953 439.765 65.663C438.995 65.767 438.284 65.7719 437.54 65.5145C436.426 65.1287 435.622 64.3321 435.153 63.259C434.767 62.3765 434.774 61.2674 435.147 60.3801C435.705 59.0516 436.66 58.3892 437.95 57.8873Z" fill="#A18BEC"/>
<path d="M322.188 279C323.505 279.073 324.741 279.371 325.83 280.16C327.185 281.142 328.032 282.649 328.234 284.308C328.452 286.09 327.974 287.962 326.807 289.345C325.661 290.704 323.997 291.248 322.285 291.373C320.816 291.281 319.596 290.984 318.41 290.091C317.215 289.191 316.231 287.666 316.053 286.165C315.857 284.503 316.195 282.8 317.235 281.461C318.493 279.841 320.211 279.215 322.188 279Z" fill="#A18BEC"/>
<path d="M321.556 283.329C321.889 283.247 322.329 283.212 322.666 283.27C323.193 283.362 323.624 283.658 323.898 284.109C324.176 284.568 324.197 285.271 324.048 285.779C323.855 286.438 323.373 286.781 322.789 287.063C322.451 287.133 322.016 287.186 321.68 287.101C321.215 286.984 320.704 286.541 320.469 286.131C320.202 285.665 320.148 285.095 320.31 284.587C320.523 283.919 320.956 283.628 321.556 283.329Z" fill="#FDFDFD"/>
<path d="M491.556 78.9851L492.376 79.0991C493.192 79.2994 493.757 79.7914 494.157 80.5156C494.419 80.991 494.45 81.6775 494.273 82.1914C493.941 83.16 493.199 83.5984 492.321 84.0066C491.844 84.0123 491.346 83.9822 490.902 83.7897C490.243 83.505 489.671 82.892 489.499 82.1857C489.359 81.6117 489.418 80.8428 489.706 80.3243C490.14 79.5401 490.728 79.2474 491.556 78.9851Z" fill="#A18BEC"/>
<path d="M468.781 71.5799C468.953 71.5673 469.131 71.4943 469.296 71.542C469.331 71.552 469.551 71.8677 469.565 71.8878C470.4 73.1492 470.55 74.4605 472.069 75.1706C472.622 75.4291 473.322 75.602 473.807 75.9714C474.05 76.1567 474.189 76.3796 474.247 76.6786C473.711 77.68 471.909 77.7495 471.134 78.5102C470.211 79.4159 470.424 81.0882 469.153 81.7363L468.739 81.6814C467.933 80.8323 467.757 79.5379 466.904 78.6811C465.979 77.7515 464.351 77.6682 463.695 76.6143C464.074 75.5371 465.911 75.4328 466.742 74.7368C467.744 73.8989 467.681 72.2288 468.781 71.5799Z" fill="#A18BEC"/>
<path d="M1120.83 116.005C1121.24 115.988 1121.62 116.007 1122 116.19C1122.58 116.476 1123.31 117.086 1123.52 117.732C1123.73 118.349 1123.46 119.244 1123.69 119.968C1124.41 120.406 1125.4 119.731 1126.16 120.166L1126.28 120.242C1126.5 120.37 1126.71 120.484 1126.9 120.655C1127.36 121.081 1127.68 121.677 1127.7 122.307C1127.71 122.982 1127.52 123.424 1127.06 123.909C1126.78 124.2 1126.2 124.704 1125.8 124.788C1125.35 124.879 1124.42 124.709 1123.91 124.709C1123.82 124.766 1123.71 124.795 1123.65 124.879C1123.63 124.909 1123.64 125.3 1123.64 125.343C1123.62 125.949 1123.7 126.577 1123.46 127.152C1123.13 127.957 1122.55 128.351 1121.77 128.696L1121.57 128.695C1120.78 128.696 1120.26 128.618 1119.68 128.039C1118.62 126.973 1119.27 126.356 1119.1 125.128C1119.1 125.119 1119.04 124.796 1118.99 124.755C1118.71 124.534 1117.87 124.694 1117.52 124.66C1116.94 124.603 1116.32 124.382 1115.87 124.01C1115.4 123.626 1115.02 123.213 1115 122.588C1114.98 121.972 1115.16 121.218 1115.6 120.766C1116.55 119.812 1117.81 120.104 1119.04 120.143L1119.03 117.582C1119.55 116.706 1119.94 116.458 1120.83 116.005Z" fill="#E97CFC"/>
</svg>
