<svg width="286" height="99" viewBox="0 0 286 99" fill="none" xmlns="http://www.w3.org/2000/svg">
<path d="M282.986 96.4493C282.24 97.2654 281.539 98.0335 280.627 98.666C279.799 97.9853 279.13 97.1511 278.387 96.3832C277.607 95.5775 276.246 94.6109 276 93.5107C276.433 92.63 277.688 91.8981 278.421 91.2124C279.194 90.4903 279.822 89.4389 280.796 89C281.363 89.1367 281.895 89.958 282.271 90.3961L282.392 90.5606C282.953 91.3155 283.623 91.9409 284.298 92.5907C284.677 92.9555 285.127 93.289 285.302 93.798C284.949 95.0481 283.687 95.4572 282.986 96.4493Z" fill="#A18BEC"/>
<path d="M4.21182 60.0685C4.96069 60.1225 5.58805 60.2569 6.24614 60.6341C7.18489 61.1724 8.01821 62.1812 8.30115 63.2228L8.3451 63.3957L8.42122 63.6976C8.61454 64.6978 8.39451 65.7638 7.79846 66.592C6.94417 67.7786 5.79746 68.3095 4.39739 68.562C3.48766 68.5387 2.56616 68.4666 1.76903 67.9751C0.886016 67.4302 0.321564 66.4759 0.106699 65.4763C-0.150105 64.2813 0.0518339 62.92 0.764795 61.902C1.59696 60.7139 2.83818 60.2802 4.21182 60.0685Z" fill="#A18BEC"/>
<path d="M3.83623 62.3403L4.01576 62.3547C4.39867 62.3823 4.86258 62.3765 5.21705 62.5406C5.61088 62.7232 6.07852 63.2366 6.22215 63.6499C6.38588 64.1202 6.36491 64.886 6.13453 65.3347C5.81252 65.9623 5.19005 66.2668 4.5647 66.5023L3.72564 66.4276C3.16865 66.3231 2.68004 65.929 2.39911 65.4424C2.11329 64.9474 2.06905 64.287 2.2618 63.7548C2.54618 62.9688 3.1046 62.6552 3.83623 62.3403Z" fill="#FBA9F8"/>
<path d="M131.234 0L131.578 0.0276172C132.31 0.0806229 133.197 0.0695818 133.874 0.384855C134.627 0.736018 135.521 1.7227 135.796 2.51723C136.109 3.42109 136.069 4.89309 135.628 5.75554C135.013 6.96197 133.823 7.54724 132.627 8L131.023 7.85644C129.958 7.65546 129.024 6.89792 128.487 5.96259C127.94 5.01125 127.856 3.74188 128.224 2.71876C128.768 1.20809 129.836 0.605148 131.234 0Z" fill="#FBA9F8"/>
<path d="M109.95 31.8873C110.757 31.8868 111.377 31.7802 112.149 32.0985C113.194 32.5291 114.084 33.3072 114.486 34.3827C114.876 35.4274 114.891 36.3567 114.414 37.3819C113.857 38.5783 112.963 39.1953 111.766 39.663C110.995 39.767 110.284 39.7719 109.54 39.5145C108.426 39.1287 107.622 38.3321 107.153 37.259C106.767 36.3765 106.774 35.2674 107.147 34.3801C107.706 33.0516 108.66 32.3892 109.95 31.8873Z" fill="#A18BEC"/>
<path d="M78.0011 84.6266C79.3181 84.6998 80.5539 84.9971 81.6428 85.7865C82.9987 86.7689 83.8452 88.2758 84.0477 89.9347C84.2652 91.7168 83.7869 93.5889 82.6204 94.972C81.4745 96.3304 79.8105 96.8747 78.0984 97C76.6291 96.9075 75.4092 96.6105 74.2228 95.7171C73.0281 94.8174 72.0438 93.2927 71.8663 91.7912C71.6699 90.1295 72.0084 88.4269 73.0482 87.0878C74.3058 85.4679 76.0242 84.842 78.0011 84.6266Z" fill="#1FC728"/>
<path d="M77.369 88.955C77.7013 88.8737 78.142 88.8378 78.4786 88.8964C79.0055 88.988 79.4363 89.2839 79.7104 89.7351C79.9887 90.1942 80.0097 90.8974 79.8609 91.4055C79.6681 92.0645 79.1861 92.4074 78.6019 92.6892C78.2641 92.7596 77.8292 92.8125 77.4925 92.7274C77.028 92.6102 76.5164 92.167 76.2817 91.7577C76.0143 91.2909 75.9609 90.7216 76.1232 90.2128C76.336 89.5453 76.7692 89.254 77.369 88.955Z" fill="#FDFDFD"/>
<path d="M146.13 85L146.95 85.114C147.765 85.3143 148.331 85.8063 148.73 86.5305C148.993 87.0059 149.023 87.6924 148.847 88.2063C148.515 89.1749 147.773 89.6133 146.895 90.0215C146.417 90.0272 145.92 89.997 145.475 89.8046C144.816 89.5199 144.245 88.9069 144.073 88.2006C143.933 87.6266 143.991 86.8577 144.279 86.3392C144.714 85.555 145.302 85.2623 146.13 85Z" fill="#A18BEC"/>
<path d="M140.781 45.5799C140.953 45.5673 141.131 45.4943 141.296 45.542C141.332 45.552 141.552 45.8677 141.565 45.8878C142.4 47.1492 142.55 48.4605 144.069 49.1706C144.622 49.4291 145.322 49.602 145.807 49.9714C146.051 50.1567 146.189 50.3796 146.247 50.6786C145.711 51.68 143.909 51.7495 143.134 52.5102C142.211 53.4159 142.424 55.0882 141.153 55.7363L140.739 55.6814C139.933 54.8323 139.757 53.5379 138.904 52.6811C137.979 51.7515 136.351 51.6682 135.695 50.6143C136.075 49.5371 137.911 49.4328 138.743 48.7368C139.744 47.8989 139.681 46.2288 140.781 45.5799Z" fill="#A18BEC"/>
</svg>
