<svg width="141" height="119" viewBox="0 0 141 119" fill="none" xmlns="http://www.w3.org/2000/svg">
<g id="paraz">
<mask id="mask0_13_266" style="mask-type:alpha" maskUnits="userSpaceOnUse" x="0" y="0" width="141" height="119">
<rect id="Rectangle 10" width="141" height="119" fill="#D9D9D9"/>
</mask>
<g mask="url(#mask0_13_266)">
<g id="peraz">
<g id="Group 8" opacity="0.23">
<path id="Vector" fill-rule="evenodd" clip-rule="evenodd" d="M50.9012 14.7144C61.5875 10.7659 72.025 3.04052 83.0619 5.91665C94.0542 8.78112 101.094 19.4215 106.787 29.2776C111.709 37.8003 111.158 47.7409 112.82 57.4407C114.702 68.4272 120.78 79.2473 117.15 89.7716C113.178 101.286 104.024 111.174 92.732 115.682C81.5023 120.165 67.8848 119.673 57.3834 113.63C47.7893 108.11 47.494 94.5837 40.7661 85.7804C34.6151 77.7318 23.5972 74.1261 19.9642 64.6678C15.6558 53.4516 12.8458 39.7215 19.1587 29.528C25.4676 19.3413 39.6738 18.8627 50.9012 14.7144Z" fill="url(#paint0_linear_13_266)" fill-opacity="0.19"/>
<path id="Vector_2" fill-rule="evenodd" clip-rule="evenodd" d="M68.1082 7.03569C79.6485 3.21118 94.9347 2.68991 103.44 11.3455C112.06 20.1182 103.528 35.3967 107.419 47.0414C111.358 58.8323 128.767 66.3524 125.856 78.4356C123.003 90.2763 105.994 91.0814 95.3585 97.0948C86.2486 102.246 78.5385 112.067 68.1082 111.086C57.7888 110.116 52.7081 98.4127 44.3577 92.2994C36.0805 86.2398 24.8796 84.1878 19.4805 75.4857C13.3297 65.5721 7.15075 51.9894 13.1347 41.9752C19.3249 31.6157 36.3333 36.6892 46.5389 30.2028C55.6774 24.3947 57.8212 10.4449 68.1082 7.03569Z" fill="url(#paint1_linear_13_266)" fill-opacity="0.93"/>
</g>
<g id="Flea">
<path id="Vector_3" d="M90.9857 61.4031H52.799V63.8207H90.9857V61.4031Z" fill="#3762CC"/>
<path id="Vector_4" d="M69.245 59.0236H64.0209C61.5763 59.0204 59.2326 58.0479 57.504 56.3192C55.7754 54.5906 54.8028 52.247 54.7996 49.8023V48.5935H57.2173V49.8023C57.2194 51.6061 57.9369 53.3354 59.2124 54.6109C60.4878 55.8863 62.2171 56.6038 64.0209 56.606H69.237L69.245 59.0236Z" fill="#3762CC"/>
<path id="Vector_5" d="M78.2588 59.0236H73.0427V56.606H78.2588C80.0626 56.6038 81.7919 55.8863 83.0673 54.6109C84.3428 53.3354 85.0603 51.6061 85.0624 49.8023V48.5935H87.4801V49.8023C87.4769 52.247 86.5043 54.5906 84.7757 56.3192C83.0471 58.0479 80.7034 59.0204 78.2588 59.0236Z" fill="#3762CC"/>
<path id="Vector_6" d="M57.2253 77.2587H54.8077V76.0499C54.8109 73.6066 55.7823 71.2642 57.5092 69.5358C59.2361 67.8074 61.5777 66.8339 64.0209 66.8286H69.237V69.2463H64.0209C62.2171 69.2484 60.4878 69.9659 59.2124 71.2414C57.9369 72.5168 57.2194 74.2461 57.2173 76.0499L57.2253 77.2587Z" fill="#3762CC"/>
<path id="Vector_7" d="M87.4801 77.2587H85.0624V76.0499C85.0603 74.2461 84.3428 72.5168 83.0673 71.2414C81.7919 69.9659 80.0626 69.2484 78.2588 69.2463H73.0427V66.8286H78.2588C80.7036 66.8313 83.0475 67.8037 84.7763 69.5324C86.505 71.2612 87.4774 73.6051 87.4801 76.0499V77.2587Z" fill="#3762CC"/>
<path id="Vector_8" d="M68.7554 47.2155L68.2095 45.0356C68.0439 44.368 67.7144 43.7522 67.2507 43.2442C66.787 42.7362 66.2038 42.3519 65.5541 42.1263L64.4138 41.7234L65.2196 39.4427L66.362 39.8457C67.3896 40.2041 68.3117 40.8128 69.0451 41.6169C69.7785 42.421 70.3001 43.3951 70.5626 44.4513L71.1086 46.6393L68.7554 47.2155Z" fill="#3762CC"/>
<path id="Vector_9" d="M72.8856 47.2155L70.5405 46.6293L71.0724 44.4413C71.3349 43.3848 71.8567 42.4105 72.5905 41.6063C73.3243 40.8022 74.2469 40.1936 75.275 39.8357L76.4153 39.4327L77.2212 41.7134L76.0809 42.1163C75.4297 42.3429 74.8456 42.7286 74.3815 43.2385C73.9173 43.7483 73.5881 44.3661 73.4235 45.0356L72.8856 47.2155Z" fill="#3762CC"/>
<path id="Vector_10" d="M80.0851 54.3616C79.9761 53.011 79.5438 51.7064 78.8246 50.558C78.1054 49.4096 77.1205 48.4511 75.9529 47.7635C75.8179 45.1826 73.8052 43.1296 71.3413 43.1296C68.8773 43.1296 66.8666 45.1786 66.7316 47.7635C65.5641 48.4511 64.5791 49.4096 63.8599 50.558C63.1407 51.7064 62.7084 53.011 62.5995 54.3616C60.4732 56.7038 59.3003 59.7568 59.3115 62.9201C59.3115 69.8063 64.6988 75.389 71.3413 75.389C77.9837 75.389 83.3731 69.8063 83.3731 62.9201C83.3842 59.7568 82.2113 56.7038 80.0851 54.3616Z" fill="#9E8DED"/>
<path id="Vector_11" d="M96.6349 47.1813C96.3186 46.4781 95.97 45.771 95.5973 45.1041L95.011 44.0464L92.8956 45.2149L93.4819 46.2726C93.8224 46.8891 94.1407 47.5278 94.4288 48.1685L94.9224 49.2725L97.1285 48.2833L96.6349 47.1813Z" fill="#3762CC"/>
<path id="Vector_12" d="M71.3242 27C53.9675 27 39.8445 41.121 39.8445 58.4777C39.8382 66.1325 42.633 73.5252 47.7018 79.2614L35.3114 91.6518L38.1602 94.5006L50.5506 82.1101C56.2853 87.1744 63.6735 89.9674 71.3242 89.9635C88.6809 89.9635 102.802 75.8424 102.802 58.4858C102.802 41.1291 88.6809 27 71.3242 27ZM71.3242 87.5378C55.2993 87.5458 42.2621 74.5026 42.2621 58.4777C42.2621 42.4528 55.2972 29.4176 71.3222 29.4176C87.3471 29.4176 100.382 42.4548 100.382 58.4777C100.382 74.5006 87.3471 87.5458 71.3242 87.5458V87.5378Z" fill="#3762CC"/>
<path id="Vector_13" d="M92.7183 40.8732C90.1231 37.709 86.8578 35.1605 83.1581 33.4115C79.4584 31.6625 75.4165 30.7567 71.3242 30.7594H70.1154V33.177H71.3242C75.0602 33.176 78.7498 34.0042 82.1269 35.602C85.5039 37.1998 88.4842 39.5272 90.8527 42.4165L91.6223 43.3432L93.4879 41.806L92.7183 40.8732Z" fill="#3762CC"/>
</g>
<circle id="Ellipse 4" cx="65.3114" cy="62" r="3" fill="white"/>
<circle id="Ellipse 5" cx="71.3114" cy="54" r="3" fill="white"/>
<circle id="Ellipse 6" cx="77.3114" cy="61" r="3" fill="white"/>
<circle id="Ellipse 7" cx="71.3114" cy="69" r="3" fill="white"/>
</g>
</g>
</g>
<defs>
<linearGradient id="paint0_linear_13_266" x1="49.4198" y1="12.9888" x2="92.0791" y2="115.956" gradientUnits="userSpaceOnUse">
<stop stop-color="#A79CEC"/>
<stop offset="1" stop-color="#8BB2EB"/>
</linearGradient>
<linearGradient id="paint1_linear_13_266" x1="22.1796" y1="26.3836" x2="105.767" y2="111.975" gradientUnits="userSpaceOnUse">
<stop stop-color="#CD9BF2"/>
<stop offset="1" stop-color="#9E8DED"/>
</linearGradient>
</defs>
</svg>
