<svg width="141" height="119" viewBox="0 0 141 119" fill="none" xmlns="http://www.w3.org/2000/svg">
<g id="ster">
<mask id="mask0_13_264" style="mask-type:alpha" maskUnits="userSpaceOnUse" x="0" y="0" width="141" height="119">
<rect id="Rectangle 8" width="141" height="119" fill="#D9D9D9"/>
</mask>
<g mask="url(#mask0_13_264)">
<g id="ster_2">
<g id="Group 6" opacity="0.23">
<path id="Vector" fill-rule="evenodd" clip-rule="evenodd" d="M80.1565 8.09242C91.9007 9.80493 105.282 8.18512 113.978 15.8718C122.638 23.5273 123.836 35.924 124.186 47.0137C124.489 56.603 119.075 64.8011 115.808 73.8443C112.107 84.0872 112.334 96.1801 103.81 103.413C94.4833 111.327 81.2108 115.396 68.6348 113.872C56.1286 112.356 43.8905 105.474 37.2496 95.3466C31.1825 86.0945 37.5915 74.4436 35.7725 63.7584C34.1095 53.9893 25.7919 45.6908 27.1329 35.9173C28.7231 24.3272 32.928 11.3091 43.7479 5.63115C54.5608 -0.0430567 67.8176 6.29322 80.1565 8.09242Z" fill="url(#paint0_linear_13_264)" fill-opacity="0.19"/>
<path id="Vector_2" fill-rule="evenodd" clip-rule="evenodd" d="M47.6835 22.3261C56.4913 15.7583 63.4935 5.96482 74.3748 4.39631C85.975 2.72419 97.1444 8.04546 107.425 13.7145C119.054 20.1268 136.03 25.6958 137.013 38.9354C138.055 52.9807 118.882 59.2807 111.705 71.3716C106.856 79.5396 109.511 91.4236 102.233 97.5208C94.8365 103.717 83.9853 101.153 74.4382 102.591C62.614 104.372 50.312 112.516 39.7123 106.938C29.0444 101.324 26.2761 87.3696 23.3082 75.6836C20.5116 64.6723 18.6234 52.7702 23.3357 42.455C27.8242 32.6298 39.0301 28.7787 47.6835 22.3261Z" fill="url(#paint1_linear_13_264)" fill-opacity="0.93"/>
</g>
<g id="Group">
<g id="Group_2">
<g id="Group_3">
<path id="Vector_3" d="M50.553 46.0193V46.0194C50.5533 49.521 47.7145 52.36 44.2123 52.36H44.0768C40.575 52.36 37.7361 49.5211 37.7361 46.0193V40.6981C37.7361 37.1963 40.575 34.3574 44.0768 34.3574H44.2123C47.7141 34.3574 50.553 37.1963 50.553 40.6981V46.0193Z" fill="#9E8DED" stroke="#3762CC" stroke-width="2"/>
</g>
</g>
<g id="Group_4">
<g id="Group_5">
<path id="Vector_4" d="M102.298 46.0194V46.0193V40.6981C102.298 37.1963 105.137 34.3574 108.639 34.3574H108.774C112.276 34.3574 115.115 37.1963 115.115 40.6981V46.0193C115.115 49.5211 112.276 52.36 108.774 52.36H108.639C105.136 52.36 102.298 49.521 102.298 46.0194Z" fill="#9E8DED" stroke="#3762CC" stroke-width="2"/>
</g>
</g>
<g id="Group_6">
<g id="Group_7">
<path id="Vector_5" d="M63.5719 33.7394H63.4364C59.9346 33.7394 57.0957 30.9004 57.0957 27.3987V22.0775C57.0957 18.5757 59.9346 15.7368 63.4364 15.7368H63.5719C67.0737 15.7368 69.9126 18.5757 69.9126 22.0775V27.3987C69.9126 30.9004 67.0737 33.7394 63.5719 33.7394Z" fill="#9E8DED" stroke="#3762CC" stroke-width="2"/>
</g>
</g>
<g id="Group_8">
<g id="Group_9">
<path id="Vector_6" d="M82.3925 27.3988V27.3987V22.0775C82.3925 18.5757 85.2314 15.7368 88.7332 15.7368H88.8687C92.3705 15.7368 95.2094 18.5757 95.2094 22.0775V27.3987C95.2094 30.9004 92.3705 33.7394 88.8687 33.7394H88.7332C85.231 33.7394 82.3922 30.9004 82.3925 27.3988Z" fill="#9E8DED" stroke="#3762CC" stroke-width="2"/>
</g>
</g>
<g id="Group_10">
<g id="Group_11">
<path id="Vector_7" d="M92.9425 56.5426C92.9425 57.863 93.93 58.8969 95.1605 59.188C102.184 60.8497 107.216 66.4733 107.216 73.0144V73.3937C107.216 81.193 100.035 87.7162 90.9133 87.7162H76.426H61.9387C52.8172 87.7162 45.6358 81.193 45.6358 73.3937V73.0144C45.6358 66.4733 50.668 60.8497 57.6907 59.188C58.9212 58.8969 59.9088 57.863 59.9088 56.5426C59.9088 48.6384 67.1859 42.0305 76.4256 42.0305C85.6653 42.0305 92.9425 48.6387 92.9425 56.5426Z" fill="#9E8DED" stroke="#3762CC" stroke-width="2"/>
</g>
</g>
<g id="Group_12">
<g id="Group_13">
<path id="Vector_8" d="M114.475 103.177H101.771C95.9236 103.177 91.1835 98.4369 91.1835 92.5898V79.8852C91.1835 74.0382 95.9236 69.2981 101.771 69.2981H114.475C120.322 69.2981 125.062 74.0382 125.062 79.8852V92.5898C125.062 98.4373 120.323 103.177 114.475 103.177Z" fill="white"/>
</g>
</g>
<g id="Group_14">
<g id="Group_15">
<path id="Vector_9" d="M101.739 99.4941C97.9313 99.4941 94.834 96.3968 94.834 92.5895V79.8849C94.834 76.0776 97.9313 72.9802 101.739 72.9802H114.443C118.251 72.9802 121.348 76.0776 121.348 79.8849V92.5895C121.348 96.3968 118.251 99.4941 114.443 99.4941H101.739Z" fill="#9E8DED"/>
</g>
</g>
<g id="Group_16">
<g id="Group_17">
<path id="Vector_10" d="M79.7284 66.5977L85.4009 60.9252C85.6886 60.6376 86.1548 60.6376 86.4424 60.9252L88.3248 62.8077C88.7664 63.2492 89.5224 62.9756 89.5791 62.3537L90.1396 56.1862L90.3719 53.6291C90.4136 53.171 90.0298 52.7873 89.5717 52.8289L87.0146 53.0613L80.8472 53.6217C80.2252 53.6785 79.9516 54.4345 80.3931 54.876L82.2756 56.7585C82.5632 57.0461 82.5632 57.5123 82.2756 57.7999L76.6676 63.408C76.5457 63.5298 76.3571 63.5471 76.2113 63.4551C72.0788 60.8464 66.5091 61.3984 62.9875 65.1152C59.291 69.0164 59.1688 75.214 62.7183 79.2493C66.7532 83.8366 73.7783 84.0037 78.0308 79.7508C81.4703 76.3114 82.016 71.0602 79.6732 67.0426C79.5896 66.8986 79.6099 66.7163 79.7284 66.5977ZM66.3142 76.6273C63.9453 74.2584 63.9453 70.4032 66.3142 68.0343C68.6832 65.6653 72.538 65.6653 74.9073 68.0343C77.2763 70.4032 77.2763 74.2584 74.9073 76.6273C72.5384 78.9963 68.6832 78.9963 66.3142 76.6273Z" fill="white"/>
</g>
</g>
<g id="Group_18">
<g id="Group_19">
<path id="Vector_11" d="M107.169 91.7289V97.6411C107.169 97.8922 107.373 98.0959 107.624 98.0959H109.443C109.694 98.0959 109.898 97.8922 109.898 97.6411V91.7289V89.0001V87.2418C109.898 87.135 109.973 87.0444 110.077 87.0208C114.385 86.0468 117.081 80.7716 113.387 75.9627C108.066 71.8711 102.167 75.6095 102.167 80.7002C102.167 83.704 104.221 86.235 106.998 86.9663C107.099 86.9928 107.169 87.0812 107.169 87.1847V89.0001V91.7289ZM105.904 83.4436C102.83 79.4463 107.392 74.8833 111.39 77.9567C114.464 81.9541 109.902 86.5167 105.904 83.4436Z" fill="white"/>
</g>
</g>
</g>
</g>
</g>
</g>
<defs>
<linearGradient id="paint0_linear_13_264" x1="79.6509" y1="5.92075" x2="67.9011" y2="113.795" gradientUnits="userSpaceOnUse">
<stop stop-color="#A79CEC"/>
<stop offset="1" stop-color="#8BB2EB"/>
</linearGradient>
<linearGradient id="paint1_linear_13_264" x1="20.9813" y1="63.8673" x2="131.984" y2="93.6568" gradientUnits="userSpaceOnUse">
<stop stop-color="#CD9BF2"/>
<stop offset="1" stop-color="#9E8DED"/>
</linearGradient>
</defs>
</svg>
