<svg width="141" height="119" viewBox="0 0 141 119" fill="none" xmlns="http://www.w3.org/2000/svg">
<g id="passp">
<mask id="mask0_13_265" style="mask-type:alpha" maskUnits="userSpaceOnUse" x="0" y="0" width="141" height="119">
<rect id="Rectangle 9" width="141" height="119" fill="#D9D9D9"/>
</mask>
<g mask="url(#mask0_13_265)">
<g id="vet">
<g id="Group 7" opacity="0.23">
<path id="Vector" fill-rule="evenodd" clip-rule="evenodd" d="M39.7326 14.2983C50.1189 9.2516 59.5671 0.452022 71.5456 2.1965C83.4756 3.93391 92.7009 13.8558 100.386 23.1314C107.031 31.1521 108.248 41.1531 111.719 50.686C115.65 61.4835 123.909 71.684 122.033 82.5848C119.981 94.5116 112.255 105.342 101.34 111.011C90.4857 116.648 76.2566 117.554 64.2645 112.587C53.3084 108.049 50.5676 94.5476 41.9971 86.4315C34.1614 79.0111 22.0714 76.5348 16.5967 67.4458C10.1044 56.6675 4.7156 43.2206 9.4367 32.3753C14.1547 21.5372 28.8206 19.6005 39.7326 14.2983Z" fill="url(#paint0_linear_13_265)" fill-opacity="0.19"/>
<path id="Vector_2" fill-rule="evenodd" clip-rule="evenodd" d="M101.131 81.3344C95.3737 89.2325 100.383 102.359 92.8884 108.765C84.8124 115.668 72.5277 116.654 61.3192 115.365C49.3881 113.993 37.8012 109.286 28.6474 101.376C19.0269 93.0621 10.0217 82.3656 9.25486 70.373C8.51111 58.7412 18.8746 50.5748 24.7744 40.805C30.286 31.678 33.2045 20.6695 42.597 15.1602C52.5675 9.31167 65.0524 8.59718 77.1061 10.1084C89.9592 11.7199 103.159 15.1994 112.8 23.962C122.67 32.9327 132.331 45.8717 129.854 58.0509C127.35 70.3627 108.497 71.2281 101.131 81.3344Z" fill="url(#paint1_linear_13_265)" fill-opacity="0.93"/>
</g>
<g id="Group 9">
<g id="Group">
<g id="Group_2">
<path id="Vector_3" d="M34.1921 101.081L34.192 101.081C33.9058 100.423 33.7476 99.7007 33.7476 98.94V40.2161V22.2726C33.7476 19.2475 36.2777 16.7476 39.4581 16.7476H94.8205C98.0009 16.7476 100.531 19.2475 100.531 22.2726V80.9965V98.94C100.531 101.965 98.001 104.465 94.8205 104.465H39.4581C37.4757 104.465 35.7376 103.489 34.715 102.018C34.5106 101.723 34.3351 101.41 34.1921 101.081Z" fill="#D0C6FF" stroke="#3762CC" stroke-width="2"/>
</g>
<g id="Group_3">
<g id="Group_4">
<path id="Vector_4" d="M92.304 65.4325H41.9747C41.1489 65.4325 40.4794 64.763 40.4794 63.9372C40.4794 63.1114 41.1489 62.4419 41.9747 62.4419H92.3044C93.1301 62.4419 93.7996 63.1114 93.7996 63.9372C93.7996 64.763 93.1298 65.4325 92.304 65.4325Z" fill="white"/>
</g>
</g>
<g id="Group_5">
<g id="Group_6">
<path id="Vector_5" d="M92.304 74.3362H41.9747C41.1489 74.3362 40.4794 73.6666 40.4794 72.8409C40.4794 72.0151 41.1489 71.3456 41.9747 71.3456H92.3044C93.1301 71.3456 93.7996 72.0151 93.7996 72.8409C93.7996 73.6666 93.1298 74.3362 92.304 74.3362Z" fill="white"/>
</g>
</g>
<g id="Group_7">
<g id="Group_8">
<path id="Vector_6" d="M68.2157 83H41.7842C41.3511 83 41 82.3284 41 81.5C41 80.6716 41.3511 80 41.7842 80H68.2157C68.6488 80 69 80.6716 69 81.5C69 82.3284 68.6488 83 68.2157 83Z" fill="white"/>
</g>
</g>
<g id="Group_9">
<g id="Group_10">
<path id="Vector_7" d="M92.304 56.4607H41.9747C41.1489 56.4607 40.4794 55.7912 40.4794 54.9654C40.4794 54.1396 41.1489 53.4701 41.9747 53.4701H92.3044C93.1301 53.4701 93.7996 54.1396 93.7996 54.9654C93.7996 55.7912 93.1298 56.4607 92.304 56.4607Z" fill="white"/>
</g>
</g>
</g>
<g id="Group_11">
<g id="Group_12">
<path id="Vector_8" d="M84.8357 98.9659C89.9816 98.9659 94.1532 94.7943 94.1532 89.6483C94.1532 84.5024 89.9816 80.3308 84.8357 80.3308C79.6897 80.3308 75.5181 84.5024 75.5181 89.6483C75.5181 94.7943 79.6897 98.9659 84.8357 98.9659Z" fill="white"/>
</g>
<g id="Group_13">
<path id="Vector_9" d="M84.8357 96.8954C88.8381 96.8954 92.0826 93.6508 92.0826 89.6485C92.0826 85.6461 88.8381 82.4015 84.8357 82.4015C80.8333 82.4015 77.5887 85.6461 77.5887 89.6485C77.5887 93.6508 80.8333 96.8954 84.8357 96.8954Z" fill="#E0EBFC"/>
</g>
<g id="Group_14">
<path id="Vector_10" d="M80.5503 89.5582H80.2922C79.5994 89.5582 79.038 88.9967 79.038 88.304V87.2972C79.038 86.6044 79.5994 86.043 80.2922 86.043H80.5503C81.243 86.043 81.8045 86.6044 81.8045 87.2972V88.304C81.8045 88.9965 81.243 89.5582 80.5503 89.5582Z" fill="#4671C6"/>
</g>
<g id="Group_15">
<path id="Vector_11" d="M89.1211 89.5582H89.3791C90.0719 89.5582 90.6333 88.9967 90.6333 88.304V87.2972C90.6333 86.6044 90.0719 86.043 89.3791 86.043H89.1211C88.4283 86.043 87.8669 86.6044 87.8669 87.2972V88.304C87.8669 88.9965 88.4283 89.5582 89.1211 89.5582Z" fill="#4671C6"/>
</g>
<g id="Group_16">
<path id="Vector_12" d="M83.1978 87.0419H82.9397C82.247 87.0419 81.6855 86.4805 81.6855 85.7877V84.7809C81.6855 84.0882 82.247 83.5267 82.9397 83.5267H83.1978C83.8906 83.5267 84.452 84.0882 84.452 84.7809V85.7877C84.452 86.4802 83.8903 87.0419 83.1978 87.0419Z" fill="#4671C6"/>
</g>
<g id="Group_17">
<path id="Vector_13" d="M86.399 87.0419H86.657C87.3498 87.0419 87.9112 86.4805 87.9112 85.7877V84.7809C87.9112 84.0882 87.3498 83.5267 86.657 83.5267H86.399C85.7062 83.5267 85.1448 84.0882 85.1448 84.7809V85.7877C85.1448 86.4802 85.7064 87.0419 86.399 87.0419Z" fill="#4671C6"/>
</g>
<g id="Group_18">
<path id="Vector_14" d="M87.5534 89.7337C87.4308 89.7034 87.3459 89.6008 87.3459 89.4837C87.3459 88.203 86.222 87.1649 84.8359 87.1649C83.4496 87.1649 82.3259 88.203 82.3259 89.4837C82.3259 89.6008 82.241 89.7034 82.1184 89.7337C81.0603 89.9948 80.2808 90.8861 80.2808 91.946V92.0027C80.2808 93.2678 81.3909 94.2932 82.7602 94.2932H84.8356H86.9116C88.2809 94.2932 89.391 93.2678 89.391 92.0027V91.946C89.391 90.8861 88.6115 89.9951 87.5534 89.7337Z" fill="#4671C6"/>
</g>
<g id="Group_19">
<path id="Vector_15" d="M84.8357 99.4841C79.4121 99.4841 75 95.0717 75 89.6484C75 84.2249 79.4121 79.8127 84.8357 79.8127C90.2592 79.8127 94.6713 84.2251 94.6713 89.6484C94.6713 95.0717 90.2592 99.4841 84.8357 99.4841ZM84.8357 80.8491C79.9836 80.8491 76.0363 84.7964 76.0363 89.6484C76.0363 94.5005 79.9836 98.4478 84.8357 98.4478C89.6877 98.4478 93.635 94.5005 93.635 89.6484C93.635 84.7964 89.6877 80.8491 84.8357 80.8491Z" fill="#3762CC"/>
</g>
</g>
<g id="Group 1">
<g id="Group_20">
<g id="Group_21">
<g id="Group_22">
<path id="Vector_16" d="M56.5682 37.417L62.2562 43.7744C63.5537 45.2245 65.2565 45.9448 66.957 45.9366C68.6575 45.9448 70.3604 45.2245 71.6579 43.7744L77.3458 37.417C79.9262 34.5331 79.9262 29.857 77.3458 26.9727C74.7655 24.0888 70.5818 24.0888 68.0015 26.9727L67.5402 27.4881C67.2179 27.848 66.6957 27.848 66.3734 27.4881L65.9121 26.9727C63.3318 24.0888 59.1481 24.0888 56.5678 26.9727C53.9879 29.857 53.9879 34.5331 56.5682 37.417Z" fill="#F9CFCF"/>
</g>
<g id="Group_23">
<path id="Vector_17" d="M56.5682 37.417L62.2562 43.7744C63.5537 45.2245 65.2565 45.9448 66.957 45.9366C68.6575 45.9448 70.3604 45.2245 71.6579 43.7744L77.3458 37.417C79.9262 34.5331 79.9262 29.857 77.3458 26.9727C74.7655 24.0888 70.5818 24.0888 68.0015 26.9727L67.5402 27.4881C67.2179 27.848 66.6957 27.848 66.3734 27.4881L65.9121 26.9727C63.3318 24.0888 59.1481 24.0888 56.5678 26.9727C53.9879 29.857 53.9879 34.5331 56.5682 37.417Z" fill="white"/>
</g>
</g>
<g id="Group_24">
<g id="Group_25">
<path id="Vector_18" d="M66.9864 46.775C66.9639 46.775 66.9414 46.775 66.919 46.775C64.8934 46.775 62.9879 45.9066 61.5593 44.3272L55.8511 38.017C52.9586 34.8196 52.9586 29.6176 55.8511 26.4201C57.2793 24.8411 59.1862 23.9718 61.2195 23.9718C63.2534 23.9718 65.1602 24.8411 66.5884 26.4201L66.957 26.8272L67.3252 26.4201C68.7534 24.8411 70.6602 23.9718 72.694 23.9718C74.7279 23.9718 76.6347 24.8411 78.0629 26.4201C80.9555 29.6176 80.9555 34.8196 78.0629 38.017L72.3548 44.3272C70.9261 45.9062 69.0207 46.775 66.9864 46.775ZM66.9529 44.9411C66.9611 44.9411 66.9694 44.9411 66.9776 44.9411C68.4962 44.9411 69.9184 44.2868 70.9949 43.0966L76.703 36.7865C78.9822 34.2675 78.9822 30.1691 76.703 27.6502C75.627 26.4605 74.2034 25.8053 72.6945 25.8053C71.1856 25.8053 69.762 26.4605 68.686 27.6502L68.2229 28.1619C67.8951 28.5241 67.4338 28.7318 66.9575 28.7318C66.4811 28.7318 66.0199 28.5241 65.6921 28.1619L65.229 27.6502C64.1529 26.4605 62.7289 25.8053 61.22 25.8053C59.7111 25.8053 58.2875 26.4605 57.211 27.6502C54.9323 30.1691 54.9323 34.2675 57.211 36.7865L62.9191 43.0966C63.9957 44.2868 65.4183 44.9411 66.9277 44.9411C66.9364 44.9411 66.9446 44.9411 66.9529 44.9411Z" fill="#3762CC"/>
</g>
</g>
</g>
<g id="Group_26">
<g id="Group_27">
<g id="Group_28">
<path id="Vector_19" d="M72.0411 33.6743H69.7547C69.3659 33.6743 69.0504 33.3589 69.0504 32.9701V30.6836C69.0504 30.2948 68.735 29.9794 68.3462 29.9794H65.4078C65.019 29.9794 64.7035 30.2948 64.7035 30.6836V32.9701C64.7035 33.3589 64.3881 33.6743 63.9993 33.6743H61.7129C61.3241 33.6743 61.0086 33.9897 61.0086 34.3785V37.317C61.0086 37.7058 61.3241 38.0212 61.7129 38.0212H63.9993C64.3881 38.0212 64.7035 38.3366 64.7035 38.7254V41.0119C64.7035 41.4007 65.019 41.7161 65.4078 41.7161H68.3462C68.735 41.7161 69.0504 41.4007 69.0504 41.0119V38.7254C69.0504 38.3366 69.3659 38.0212 69.7547 38.0212H72.0411C72.4299 38.0212 72.7454 37.7058 72.7454 37.317V34.3785C72.7454 33.9897 72.4299 33.6743 72.0411 33.6743Z" fill="#9E8DED"/>
</g>
<g id="Group_29">
<path id="Vector_20" d="M72.0411 33.6743H69.7547C69.3659 33.6743 69.0504 33.3589 69.0504 32.9701V30.6836C69.0504 30.2948 68.735 29.9794 68.3462 29.9794H65.4078C65.019 29.9794 64.7035 30.2948 64.7035 30.6836V32.9701C64.7035 33.3589 64.3881 33.6743 63.9993 33.6743H61.7129C61.3241 33.6743 61.0086 33.9897 61.0086 34.3785V37.317C61.0086 37.7058 61.3241 38.0212 61.7129 38.0212H63.9993C64.3881 38.0212 64.7035 38.3366 64.7035 38.7254V41.0119C64.7035 41.4007 65.019 41.7161 65.4078 41.7161H68.3462C68.735 41.7161 69.0504 41.4007 69.0504 41.0119V38.7254C69.0504 38.3366 69.3659 38.0212 69.7547 38.0212H72.0411C72.4299 38.0212 72.7454 37.7058 72.7454 37.317V34.3785C72.7454 33.9897 72.4299 33.6743 72.0411 33.6743Z" fill="#9E8DED"/>
</g>
</g>
</g>
</g>
</g>
</g>
</g>
</g>
<defs>
<linearGradient id="paint0_linear_13_265" x1="37.8838" y1="12.7241" x2="93.0117" y2="115.483" gradientUnits="userSpaceOnUse">
<stop stop-color="#A79CEC"/>
<stop offset="1" stop-color="#8BB2EB"/>
</linearGradient>
<linearGradient id="paint1_linear_13_265" x1="117.192" y1="37.2403" x2="6.54521" y2="70.8676" gradientUnits="userSpaceOnUse">
<stop stop-color="#CD9BF2"/>
<stop offset="1" stop-color="#9E8DED"/>
</linearGradient>
</defs>
</svg>
