<svg width="141" height="119" viewBox="0 0 141 119" fill="none" xmlns="http://www.w3.org/2000/svg">
<g id="priv">
<mask id="mask0_13_263" style="mask-type:alpha" maskUnits="userSpaceOnUse" x="0" y="0" width="141" height="119">
<rect id="Rectangle 7" width="141" height="119" fill="#D9D9D9"/>
</mask>
<g mask="url(#mask0_13_263)">
<g id="priv_2">
<g id="Group 5" opacity="0.23">
<path id="Vector" fill-rule="evenodd" clip-rule="evenodd" d="M67.8271 16.3447C79.526 16.772 92.4743 13.7373 101.822 20.3833C111.131 27.0024 113.63 39.0984 115.158 49.9965C116.479 59.4202 112.046 68.086 109.808 77.3546C107.273 87.8527 108.787 99.7534 101.201 107.802C92.9014 116.607 80.3214 122.045 67.8271 121.893C55.402 121.742 42.6667 116.269 35.0733 106.996C28.1359 98.5243 33.176 86.3467 30.2511 76.0052C27.5771 66.5504 18.5348 59.2605 18.8058 49.4786C19.1273 37.8786 21.86 24.5895 31.8633 17.8282C41.8599 11.0713 55.5359 15.8957 67.8271 16.3447Z" fill="url(#paint0_linear_13_263)" fill-opacity="0.19"/>
<path id="Vector_2" fill-rule="evenodd" clip-rule="evenodd" d="M15.0769 53.3399C17.8231 42.3061 29.0809 36.3184 37.9113 29.1825C45.8745 22.7473 53.5171 14.0515 63.7361 14.0181C73.6788 13.9856 79.4524 25.3197 88.6827 29.0166C99.8088 33.4728 114.947 28.4503 122.681 37.6266C130.451 46.8451 130.23 61.6837 125.628 72.8519C121.316 83.319 108.837 86.7483 99.699 93.4017C92.1622 98.8895 85.5292 104.894 76.878 108.348C65.6385 112.836 53.5281 120.965 42.3772 116.287C31.2108 111.603 28.5838 97.196 23.7546 86.0613C19.1542 75.4539 12.2815 64.5715 15.0769 53.3399Z" fill="url(#paint1_linear_13_263)" fill-opacity="0.93"/>
</g>
<g id="Syringe">
<path id="Vector_3" d="M66.2941 32.2876L43.3607 54.548L56.4623 67.6476L79.3534 45.3449L66.2941 32.2876Z" fill="#9E8DED"/>
<path id="Vector_4" d="M79.2788 34.0666L91.631 21.7145L89.9265 20L77.5744 32.3521L74.9976 29.7753L70.2469 34.526L66.2941 30.5772L32.2315 64.6418L29.7655 62.1778L28.0571 63.8862L35.5417 71.3749L28.4257 78.4848L26.542 76.6131L24.8335 78.3216L33.3295 86.8075L35.038 85.097L33.1542 83.2133L40.2702 76.0994L47.7548 83.584L49.4633 81.8735L46.9993 79.4095L81.0618 45.345L77.111 41.3941L81.8617 36.6435L79.2788 34.0666ZM33.9742 66.316L38.8095 61.4807L41.2876 63.9588L42.9981 62.2503L40.52 59.7722L43.6972 56.593L47.0073 59.9032L37.2844 69.6261L33.9742 66.316ZM31.5102 81.4484L30.2007 80.1389L37.2522 73.0874L38.5617 74.399L31.5102 81.4484ZM38.9949 71.3467L48.7017 61.6399L50.0113 62.9494L40.3044 72.6562L38.9949 71.3467ZM45.323 77.6769L42.0068 74.3567L51.7298 64.6317L55.046 67.9499L45.323 77.6769ZM77.6429 45.345L56.7565 66.2334L45.4077 54.8846L49.2114 51.0788L51.6895 53.5569L53.4 51.8464L50.9219 49.3703L54.7599 45.5303L57.238 48.0044L58.9485 46.2959L56.4704 43.8178L60.3084 39.9798L62.7865 42.4559L64.4949 40.7474L62.0169 38.2693L66.2941 33.9921L77.6429 45.345ZM75.4509 39.6353L72.0058 36.1901L74.9976 33.1983L78.4427 36.6435L75.4509 39.6353Z" fill="#3762CC"/>
<path id="Vector_5" d="M97.1633 78.5574H73.0655V95.6541H97.1633V78.5574Z" fill="#9E8DED"/>
<path id="Vector_6" d="M94.792 72.1324C93.8202 70.8405 93.0874 69.3851 92.6283 67.835H94.7759V60.1086H75.4509V67.835H77.6066C77.1508 69.3848 76.4206 70.8403 75.4509 72.1324C73.9174 74.1991 73.0991 76.7092 73.1199 79.2826V99.0266C73.1172 99.3802 73.2548 99.7204 73.5026 99.9727C73.7503 100.225 74.088 100.369 74.4415 100.372H95.7994C96.1528 100.368 96.4902 100.224 96.7378 99.9721C96.9854 99.72 97.1232 99.3801 97.121 99.0266V79.2826C97.1433 76.7093 96.3256 74.1989 94.792 72.1324ZM77.8685 62.5263H92.3462V65.4174H77.8685V62.5263ZM94.6953 97.9528H75.5275V79.2826C75.5045 77.236 76.1495 75.2378 77.3649 73.591C78.6586 71.8736 79.595 69.9143 80.119 67.829H90.1079C90.6334 69.9141 91.5705 71.8732 92.864 73.591C94.0781 75.2361 94.7231 77.232 94.7014 79.2765L94.6953 97.9528Z" fill="#3762CC"/>
<path id="Vector_7" d="M95.7027 41.7849L91.1857 24.0555L86.6667 41.7849C86.4192 42.7098 86.3847 43.6788 86.5658 44.6189C86.747 45.559 87.139 46.4458 87.7123 47.2125C88.6129 48.369 89.8439 49.0076 91.1857 49.0076C92.5275 49.0076 93.7585 48.369 94.657 47.2125C95.2304 46.4458 95.6224 45.559 95.8035 44.6189C95.9847 43.6788 95.9502 42.7098 95.7027 41.7849Z" fill="#9E8DED"/>
</g>
<circle id="Ellipse 1" cx="51.8335" cy="53" r="3" fill="white"/>
<circle id="Ellipse 2" cx="57.8335" cy="47" r="3" fill="white"/>
<circle id="Ellipse 3" cx="63.8335" cy="41" r="3" fill="white"/>
</g>
</g>
</g>
<defs>
<linearGradient id="paint0_linear_13_263" x1="67.0994" y1="14.2574" x2="67.0994" y2="121.896" gradientUnits="userSpaceOnUse">
<stop stop-color="#A79CEC"/>
<stop offset="1" stop-color="#8BB2EB"/>
</linearGradient>
<linearGradient id="paint1_linear_13_263" x1="29.791" y1="103.906" x2="121.146" y2="30.6834" gradientUnits="userSpaceOnUse">
<stop stop-color="#CD9BF2"/>
<stop offset="1" stop-color="#9E8DED"/>
</linearGradient>
</defs>
</svg>
