<svg width="100" height="100" viewBox="0 0 100 100" fill="none" xmlns="http://www.w3.org/2000/svg">
<g id="sms_ico" clip-path="url(#clip0_2229_300)">
<g id="Group 62">
<path id="Vector" opacity="0.23" fill-rule="evenodd" clip-rule="evenodd" d="M80.965 49.4332C79.2525 56.3945 86.3013 63.912 82.9946 70.3439C79.4314 77.2745 71.3667 81.3582 63.4001 83.5984C54.9199 85.9831 45.7466 86.0088 37.3345 83.1836C28.4934 80.2143 19.4077 75.4566 15.5538 67.5293C11.816 59.8404 16.5808 51.4166 17.87 43.1451C19.0745 35.4178 17.9958 27.1342 22.84 20.7839C27.9823 14.0427 36.2584 10.0876 44.8604 7.76312C54.0328 5.28451 63.9598 3.97757 72.9395 7.24587C82.1325 10.5918 92.2872 16.6892 93.9909 25.6449C95.7131 34.6981 83.1564 40.5256 80.965 49.4332Z" fill="url(#paint0_linear_2229_300)" fill-opacity="0.93"/>
<g id="Group 59">
<path id="Vector_2" d="M62.9512 20.1139H33.932C31.9894 20.1139 30.4146 21.8494 30.4146 23.9902V34.6497V69.5351C30.4146 71.6754 31.9892 73.4112 33.932 73.4112H62.9512C64.8938 73.4112 66.4686 71.6757 66.4686 69.5351V58.8756V23.9902C66.4686 21.8494 64.8938 20.1139 62.9512 20.1139Z" fill="white"/>
<path id="Vector (Stroke)" fill-rule="evenodd" clip-rule="evenodd" d="M62.9512 23.249H33.932C33.932 23.249 33.9321 23.249 33.932 23.249C33.9285 23.2488 33.867 23.2453 33.7665 23.356C33.6594 23.4741 33.5497 23.6898 33.5497 23.9902V69.5351C33.5497 69.8351 33.6593 70.0508 33.7665 70.169C33.8671 70.2798 33.9284 70.2763 33.9318 70.2761L62.9512 70.2761C62.9522 70.2761 63.014 70.2822 63.1167 70.169C63.2238 70.0509 63.3335 69.8353 63.3335 69.5351V23.9902C63.3335 23.6898 63.2238 23.4741 63.1166 23.356C63.0162 23.2453 62.9547 23.2488 62.9512 23.249ZM33.932 20.1139H62.9512C64.8938 20.1139 66.4686 21.8494 66.4686 23.9902V69.5351C66.4686 71.6757 64.8938 73.4112 62.9512 73.4112H33.932C31.9892 73.4112 30.4146 71.6754 30.4146 69.5351V23.9902C30.4146 21.8494 31.9894 20.1139 33.932 20.1139Z" fill="#6A57C7"/>
<path id="Vector_3" d="M78.2258 56.0725L78.2258 35.8852C78.2258 34.5338 76.6435 33.4383 74.6916 33.4383L73.5942 33.4383L41.7869 33.4383C41.2989 33.4383 40.834 33.5067 40.4113 33.6306C40.1999 33.6925 39.999 33.7683 39.8109 33.8562C38.8708 34.296 38.2529 35.0406 38.2529 35.8852L38.2529 56.0725C38.2529 57.4239 39.8352 58.5194 41.7869 58.5194L46.6464 64.0059L49.2258 58.5194L74.6916 58.5194C76.6435 58.5194 78.2258 57.4239 78.2258 56.0725Z" fill="#0894CB"/>
<path id="Rectangle 18" d="M36.686 20.1139H60.1995V24.8166C60.1995 26.5481 58.7959 27.9517 57.0644 27.9517H39.8212C38.0897 27.9517 36.686 26.5481 36.686 24.8166V20.1139Z" fill="#6A57C7"/>
<path id="Rectangle 19" d="M41.387 24.8167C41.387 23.951 42.0888 23.2491 42.9545 23.2491H47.6572C48.523 23.2491 49.2248 23.951 49.2248 24.8167C49.2248 25.6825 48.523 26.3843 47.6572 26.3843H42.9545C42.0888 26.3843 41.387 25.6825 41.387 24.8167Z" fill="white"/>
<path id="Rectangle 21" d="M38.2522 65.5735C38.2522 64.7078 38.954 64.006 39.8198 64.006H60.1981C61.0639 64.006 61.7657 64.7078 61.7657 65.5735C61.7657 66.4393 61.0639 67.1411 60.1981 67.1411H39.8198C38.954 67.1411 38.2522 66.4393 38.2522 65.5735Z" fill="#6A57C7"/>
<path id="Rectangle 22" d="M28.8474 31.087C27.9816 31.087 27.2798 30.3852 27.2798 29.5194L27.2798 26.3843C27.2798 25.5185 27.9816 24.8167 28.8474 24.8167C29.7131 24.8167 30.4149 25.5185 30.4149 26.3843L30.4149 29.5194C30.4149 30.3851 29.7131 31.087 28.8474 31.087Z" fill="#6A57C7"/>
<path id="Rectangle 23" d="M28.8474 38.9248C27.9816 38.9248 27.2798 38.223 27.2798 37.3572L27.2798 34.2221C27.2798 33.3564 27.9816 32.6545 28.8474 32.6545C29.7131 32.6545 30.4149 33.3564 30.4149 34.2221L30.4149 37.3572C30.4149 38.223 29.7131 38.9248 28.8474 38.9248Z" fill="#6A57C7"/>
<path id="Rectangle 20" d="M52.3618 24.8167C52.3618 23.951 53.0636 23.2491 53.9294 23.2491C54.7951 23.2491 55.497 23.951 55.497 24.8167C55.497 25.6825 54.7951 26.3843 53.9294 26.3843C53.0636 26.3843 52.3618 25.6825 52.3618 24.8167Z" fill="white"/>
<g id="SMS">
<path id="Vector_4" d="M66.0444 50.3461L67.2332 48.6988C67.6294 49.0498 68.0936 49.3498 68.6257 49.5989C69.1691 49.848 69.7012 49.9725 70.222 49.9725C70.7654 49.9725 71.1956 49.848 71.5126 49.5989C71.8296 49.3385 71.9881 49.0045 71.9881 48.5969C71.9881 48.1781 71.7957 47.8158 71.4107 47.5101C71.0258 47.2044 70.556 46.9384 70.0012 46.7119C69.4578 46.4855 68.9087 46.2364 68.354 45.9647C67.7992 45.693 67.3294 45.3081 66.9445 44.81C66.5596 44.3118 66.3671 43.7175 66.3671 43.0269C66.3671 41.9853 66.752 41.1419 67.5219 40.4965C68.303 39.8512 69.288 39.5286 70.4767 39.5286C71.8919 39.5286 73.0693 39.9588 74.009 40.8192L73.041 42.6023C72.7014 42.2966 72.2881 42.0476 71.8013 41.8551C71.3258 41.6513 70.856 41.5494 70.3918 41.5494C69.8371 41.5494 69.3899 41.674 69.0502 41.923C68.7219 42.1721 68.5578 42.5061 68.5578 42.925C68.5578 43.3325 68.7502 43.6835 69.1352 43.9778C69.5201 44.2722 69.9843 44.5269 70.5277 44.742C71.0824 44.9571 71.6372 45.2005 72.1919 45.4723C72.7467 45.7326 73.2165 46.1119 73.6014 46.6101C73.9863 47.1082 74.1788 47.7139 74.1788 48.4271C74.1788 49.446 73.8222 50.2951 73.1089 50.9744C72.3957 51.6537 71.4164 51.9933 70.1711 51.9933C69.4012 51.9933 68.654 51.8518 67.9294 51.5688C67.2049 51.2858 66.5765 50.8782 66.0444 50.3461Z" fill="white"/>
<path id="Vector_5" d="M51.8416 51.7896L52.8265 39.7324H55.153L57.5305 45.693L58.1249 47.4592H58.1589C58.374 46.7572 58.5721 46.1685 58.7532 45.693L61.1307 39.7324H63.4572L64.4422 51.7896H62.2515L61.759 45.0477C61.7364 44.81 61.7251 44.5383 61.7251 44.2326C61.7251 43.9156 61.7307 43.6609 61.742 43.4684V43.1797H61.7081C61.4477 43.9609 61.2269 44.5835 61.0458 45.0477L59.0929 49.7178H57.1909L55.2379 45.0477L54.5757 43.1627H54.5417C54.5757 43.8873 54.57 44.5156 54.5247 45.0477L54.0322 51.7896H51.8416Z" fill="white"/>
<path id="Vector_6" d="M41.9812 50.3461L43.1699 48.6988C43.5662 49.0498 44.0304 49.3498 44.5625 49.5989C45.1059 49.848 45.638 49.9725 46.1588 49.9725C46.7022 49.9725 47.1324 49.848 47.4494 49.5989C47.7664 49.3385 47.9249 49.0045 47.9249 48.5969C47.9249 48.1781 47.7324 47.8158 47.3475 47.5101C46.9626 47.2044 46.4927 46.9384 45.938 46.7119C45.3946 46.4855 44.8455 46.2364 44.2908 45.9647C43.736 45.693 43.2662 45.3081 42.8812 44.81C42.4963 44.3118 42.3039 43.7175 42.3039 43.0269C42.3039 41.9853 42.6888 41.1419 43.4586 40.4965C44.2398 39.8512 45.2248 39.5286 46.4135 39.5286C47.8287 39.5286 49.0061 39.9588 49.9458 40.8192L48.9778 42.6023C48.6381 42.2966 48.2249 42.0476 47.7381 41.8551C47.2626 41.6513 46.7928 41.5494 46.3286 41.5494C45.7738 41.5494 45.3267 41.674 44.987 41.923C44.6587 42.1721 44.4945 42.5061 44.4945 42.925C44.4945 43.3325 44.687 43.6835 45.0719 43.9778C45.4568 44.2722 45.921 44.5269 46.4644 44.742C47.0192 44.9571 47.5739 45.2005 48.1287 45.4723C48.6834 45.7326 49.1533 46.1119 49.5382 46.6101C49.9231 47.1082 50.1156 47.7139 50.1156 48.4271C50.1156 49.446 49.7589 50.2951 49.0457 50.9744C48.3325 51.6537 47.3532 51.9933 46.1078 51.9933C45.338 51.9933 44.5908 51.8518 43.8662 51.5688C43.1416 51.2858 42.5133 50.8782 41.9812 50.3461Z" fill="white"/>
</g>
<path id="Ellipse 8" d="M89.9825 27.1681C89.9825 33.6611 84.7188 38.9248 78.2258 38.9248C71.7327 38.9248 66.469 33.6611 66.469 27.1681C66.469 20.675 71.7327 15.4113 78.2258 15.4113C84.7188 15.4113 89.9825 20.675 89.9825 27.1681Z" fill="#FF4D69"/>
<path id="1" d="M75.2578 32.979V31.094H77.8901V24.4031L77.907 23.5879H77.8731C77.7712 23.7804 77.59 24.0068 77.3296 24.2672L76.3617 25.1842L75.071 23.8257L78.0938 20.9218H80.0128V31.094H82.628V32.979H75.2578Z" fill="white"/>
</g>
</g>
<g id="Group 65">
<path id="Vector_7" d="M92.4442 48.009C92.9181 47.9808 93.4072 48.0142 93.8569 48.1802C94.5822 48.4479 95.2573 49.1722 95.53 49.8872C95.8028 50.6022 95.8243 51.4509 95.4557 52.1389C94.9988 52.9912 94.1954 53.409 93.3262 53.7204C92.8533 53.7406 92.3934 53.7593 91.939 53.6054C91.1405 53.3343 90.504 52.6962 90.1787 51.9253C89.8764 51.2091 89.9818 50.284 90.3138 49.5929C90.7469 48.691 91.5369 48.3067 92.4442 48.009Z" fill="#0F57F4"/>
<path id="Vector_8" d="M6.87064 54C7.40952 54.0188 7.94476 54.0938 8.43936 54.3039C9.22763 54.639 9.72259 55.2276 10.0043 55.9815C10.256 56.6544 10.1534 57.541 9.79817 58.1667C9.25562 59.1219 8.45853 59.4517 7.40886 59.7338C6.88777 59.7103 6.37197 59.6891 5.89462 59.4728C5.10725 59.1162 4.41713 58.5121 4.14616 57.7193C3.89573 56.9866 3.96159 56.2234 4.38647 55.5562C4.98067 54.6231 5.78606 54.2472 6.87064 54Z" fill="#F9AC8E"/>
<path id="Vector_9" d="M84.3731 64.0409C85.0732 64.0939 85.7819 64.1821 86.3752 64.5921C87.0572 65.0636 87.5352 65.7993 87.6824 66.6137C87.8433 67.5056 87.5944 68.5459 87.0452 69.2737C86.4292 70.0902 85.6108 70.4339 84.6263 70.5938C83.9708 70.5354 83.2311 70.4111 82.6617 70.059C81.8965 69.5861 81.4129 68.9216 81.2502 68.046C81.068 67.0646 81.2179 66.0541 81.8295 65.2551C82.4911 64.3908 83.3435 64.1656 84.3731 64.0409Z" fill="#E97CFC"/>
<path id="Vector_10" d="M5.98944 16.0548L6.35555 16.01C6.94993 15.9581 7.36164 16.1054 7.80655 16.5182C8.65733 17.3075 8.52077 18.4745 8.56865 19.5461C9.42603 19.6088 10.7004 19.6257 11.3766 20.2206C11.8053 20.5975 12.0237 21.0603 12.0539 21.6294C12.0838 22.193 11.9548 22.7183 11.5621 23.1374C10.7975 23.9537 9.73082 23.9068 8.70699 23.925C8.63225 24.5839 8.63048 25.321 8.43513 25.953C8.20306 26.7042 7.67961 27.0873 7.00871 27.4145L6.63855 27.4649C6.06723 27.4964 5.50021 27.2444 5.08571 26.8583C4.32943 26.1539 4.40949 24.9214 4.34159 23.9608C3.55642 23.8531 2.60784 23.7899 1.92883 23.3554C1.55563 23.1165 1.12847 22.7191 1.04587 22.2596C0.923752 21.5818 1.03903 20.9477 1.46924 20.4094C2.09327 19.6293 3.23161 19.6681 4.14042 19.5423C4.47207 18.8773 4.39555 17.9825 4.66462 17.2597C4.90658 16.609 5.38417 16.3204 5.98944 16.0548Z" fill="#4B5ECC"/>
<path id="Vector_11" d="M31.5164 89.061C32.7586 88.9248 33.8759 88.9859 34.9983 89.5646C36.4407 90.3083 37.3842 91.4878 37.8636 92.9884C38.2805 94.2933 37.9958 95.804 37.3053 96.9736C36.4931 98.3496 35.1343 99.1088 33.5871 99.4919C32.4421 99.7924 31.1854 99.6466 30.1098 99.1723C28.8354 98.61 27.8015 97.4633 27.335 96.2006C26.7965 94.7439 26.9089 93.0946 27.6601 91.7266C28.4673 90.2573 29.9339 89.526 31.5164 89.061Z" fill="#A18BEC"/>
</g>
</g>
<defs>
<linearGradient id="paint0_linear_2229_300" x1="79.6117" y1="15.0382" x2="13.852" y2="68.6182" gradientUnits="userSpaceOnUse">
<stop stop-color="#CD9BF2"/>
<stop offset="1" stop-color="#9E8DED"/>
</linearGradient>
<clipPath id="clip0_2229_300">
<rect width="100" height="100" fill="white"/>
</clipPath>
</defs>
</svg>
