<svg width="100" height="100" viewBox="0 0 100 100" fill="none" xmlns="http://www.w3.org/2000/svg">
<g id="bank_ico" clip-path="url(#clip0_2229_301)">
<g id="Group 67">
<g id="Group 63">
<path id="Vector" opacity="0.23" fill-rule="evenodd" clip-rule="evenodd" d="M78.965 48.4332C77.2525 55.3945 84.3013 62.912 80.9946 69.3439C77.4314 76.2745 69.3667 80.3582 61.4001 82.5984C52.9199 84.9831 43.7466 85.0088 35.3345 82.1836C26.4934 79.2143 17.4077 74.4566 13.5538 66.5293C9.81596 58.8404 14.5808 50.4166 15.87 42.1451C17.0745 34.4178 15.9958 26.1342 20.84 19.7839C25.9823 13.0427 34.2584 9.08758 42.8604 6.76312C52.0328 4.28451 61.9598 2.97757 70.9395 6.24587C80.1325 9.5918 90.2872 15.6892 91.9909 24.6449C93.7131 33.6981 81.1564 39.5256 78.965 48.4332Z" fill="url(#paint0_linear_2229_301)" fill-opacity="0.93"/>
</g>
<g id="Group 64">
<rect id="Rectangle 24" x="27.5" y="58.5" width="50" height="7" rx="3.5" fill="white" stroke="#6A56C7" stroke-width="3"/>
<rect id="Rectangle 30" x="65.5" y="36.5" width="4" height="18" rx="2" fill="#DEE2F6" stroke="#6A56C7" stroke-width="3"/>
<rect id="Rectangle 34" x="50.5" y="36.5" width="4" height="18" rx="2" fill="#DEE2F6" stroke="#6A56C7" stroke-width="3"/>
<rect id="Rectangle 37" x="35.5" y="36.5" width="4" height="18" rx="2" fill="#DEE2F6" stroke="#6A56C7" stroke-width="3"/>
<rect id="Rectangle 27" x="62.5" y="54.5" width="10" height="4" rx="2" fill="#7F95E0" stroke="#6A56C7" stroke-width="3"/>
<rect id="Rectangle 35" x="47.5" y="54.5" width="10" height="4" rx="2" fill="#7F95E0" stroke="#6A56C7" stroke-width="3"/>
<rect id="Rectangle 38" x="32.5" y="54.5" width="10" height="4" rx="2" fill="#7F95E0" stroke="#6A56C7" stroke-width="3"/>
<rect id="Rectangle 33" x="62.5" y="31.5" width="10" height="5" rx="2.5" fill="#7F95E0" stroke="#6A56C7" stroke-width="3"/>
<rect id="Rectangle 36" x="47.5" y="31.5" width="10" height="5" rx="2.5" fill="#7F95E0" stroke="#6A56C7" stroke-width="3"/>
<rect id="Rectangle 39" x="32.5" y="31.5" width="10" height="5" rx="2.5" fill="#7F95E0" stroke="#6A56C7" stroke-width="3"/>
<path id="Polygon 1" d="M51.7349 14.9351C51.8971 14.8336 52.1029 14.8336 52.2651 14.9351L76.4728 30.0761C76.6078 30.1605 76.6609 30.249 76.6863 30.3224C76.7161 30.4084 76.7221 30.5201 76.6883 30.6379C76.6545 30.7557 76.5902 30.8473 76.5193 30.9044C76.4588 30.9532 76.3669 31 76.2077 31H27.7923C27.6331 31 27.5412 30.9532 27.4807 30.9044C27.4098 30.8473 27.3455 30.7557 27.3117 30.6379C27.2779 30.5201 27.2839 30.4084 27.3137 30.3224C27.3391 30.249 27.3922 30.1605 27.5272 30.0761L51.7349 14.9351Z" fill="white" stroke="#6A56C7" stroke-width="3"/>
<path id="Vector 3" d="M42 26L51.3474 20.3349C51.6837 20.1311 52.1084 20.1433 52.4324 20.3662L60 25.5714" stroke="#6A56C7" stroke-width="3" stroke-linecap="round"/>
</g>
<g id="Group 50">
<path id="Vector_2" d="M87.8973 8.28533C88.3712 8.25713 88.8604 8.29057 89.31 8.45653C90.0354 8.72431 90.7104 9.44853 90.9832 10.1635C91.2559 10.8785 91.2774 11.7273 90.9089 12.4153C90.452 13.2676 89.6485 13.6853 88.7793 13.9968C88.3064 14.017 87.8465 14.0357 87.3921 13.8817C86.5937 13.6107 85.9571 12.9726 85.6318 12.2017C85.3296 11.4854 85.4349 10.5603 85.7669 9.86929C86.2001 8.96738 86.99 8.58305 87.8973 8.28533Z" fill="#0F57F4"/>
<path id="Vector_3" d="M15.4234 40.6313C15.9623 40.6501 16.4975 40.7251 16.9921 40.9353C17.7804 41.2703 18.2753 41.8589 18.557 42.6128C18.8087 43.2857 18.7062 44.1723 18.3509 44.798C17.8084 45.7532 17.0113 46.0831 15.9616 46.3651C15.4405 46.3416 14.9247 46.3205 14.4474 46.1042C13.66 45.7475 12.9699 45.1435 12.6989 44.3507C12.4485 43.6179 12.5143 42.8548 12.9392 42.1876C13.5334 41.2544 14.3388 40.8785 15.4234 40.6313Z" fill="#F9AC8E"/>
<path id="Vector_4" d="M85.3731 41.0409C86.0732 41.0939 86.7819 41.1821 87.3752 41.5921C88.0572 42.0636 88.5352 42.7993 88.6824 43.6137C88.8433 44.5056 88.5944 45.5459 88.0452 46.2737C87.4292 47.0902 86.6108 47.4339 85.6263 47.5938C84.9708 47.5354 84.2311 47.4111 83.6617 47.059C82.8965 46.5861 82.4129 45.9216 82.2502 45.046C82.068 44.0646 82.2179 43.0541 82.8295 42.2551C83.4911 41.3908 84.3435 41.1656 85.3731 41.0409Z" fill="#E97CFC"/>
<path id="Vector_5" d="M7.93859 97.1504C8.19034 97.1487 8.41492 97.1527 8.66034 97.2145C9.35861 97.3904 9.89431 97.7968 10.231 98.4065C10.5398 98.9654 10.5889 99.536 10.3722 100.131C10.0664 100.971 9.41746 101.271 8.63633 101.654C8.25315 101.662 7.83672 101.614 7.47994 101.476C6.8619 101.238 6.39322 100.759 6.14278 100.175C5.91636 99.6462 5.97336 98.968 6.2143 98.452C6.5761 97.678 7.16485 97.4411 7.93859 97.1504Z" fill="#F9FAFD"/>
<path id="Vector_6" d="M36.382 5.05479L36.7481 5.01001C37.3425 4.95807 37.7542 5.10545 38.1991 5.51816C39.0499 6.30751 38.9133 7.47452 38.9612 8.5461C39.8186 8.60878 41.093 8.62567 41.7692 9.22056C42.1979 9.59745 42.4163 10.0603 42.4465 10.6294C42.4764 11.193 42.3474 11.7183 41.9547 12.1374C41.19 12.9537 40.1234 12.9068 39.0996 12.925C39.0248 13.5839 39.0231 14.321 38.8277 14.953C38.5956 15.7042 38.0722 16.0873 37.4013 16.4145L37.0311 16.4649C36.4598 16.4964 35.8928 16.2444 35.4783 15.8583C34.722 15.1539 34.8021 13.9214 34.7342 12.9608C33.949 12.8531 33.0004 12.7899 32.3214 12.3554C31.9482 12.1165 31.521 11.7191 31.4385 11.2596C31.3163 10.5818 31.4316 9.94774 31.8618 9.40939C32.4858 8.62925 33.6242 8.66814 34.533 8.54226C34.8646 7.87726 34.7881 6.98249 35.0572 6.25967C35.2992 5.609 35.7767 5.32038 36.382 5.05479Z" fill="#4B5ECC"/>
<path id="Vector_7" d="M33.0418 77.962C34.284 77.8258 35.4013 77.8869 36.5237 78.4656C37.9661 79.2093 38.9095 80.3888 39.389 81.8894C39.8059 83.1943 39.5212 84.705 38.8307 85.8746C38.0185 87.2506 36.6597 88.0098 35.1125 88.3929C33.9674 88.6934 32.7108 88.5476 31.6352 88.0733C30.3608 87.511 29.3269 86.3644 28.8604 85.1016C28.3219 83.6449 28.4343 81.9956 29.1855 80.6276C29.9927 79.1583 31.4593 78.427 33.0418 77.962Z" fill="#A18BEC"/>
</g>
</g>
</g>
<defs>
<linearGradient id="paint0_linear_2229_301" x1="77.6117" y1="14.0382" x2="11.852" y2="67.6182" gradientUnits="userSpaceOnUse">
<stop stop-color="#CD9BF2"/>
<stop offset="1" stop-color="#9E8DED"/>
</linearGradient>
<clipPath id="clip0_2229_301">
<rect width="100" height="100" fill="white"/>
</clipPath>
</defs>
</svg>
