<svg width="123" height="82" viewBox="0 0 123 82" fill="none" xmlns="http://www.w3.org/2000/svg">
<g id="dog">
<mask id="mask0_13_177" style="mask-type:alpha" maskUnits="userSpaceOnUse" x="0" y="0" width="123" height="82">
<rect id="Rectangle 6" width="123" height="82" fill="#D9D9D9"/>
</mask>
<g mask="url(#mask0_13_177)">
<g id="Group 22">
<path id="Vector" d="M28.8145 61.9766C28.4847 61.3025 28.1923 60.5933 27.9395 59.8503C25.0449 51.3473 29.4225 41.1612 38.6393 38.7022C39.6353 26.2443 48.4301 17.6986 58.3626 16.2398C69.7309 14.571 80.1449 21.7597 83.6101 33.1857C87.7865 31.7127 91.8562 31.8921 95.6918 34.1235C97.4321 34.9246 99.0239 36.1064 100.452 37.6615C102.548 39.9443 103.912 42.8257 104.467 45.8636C105.289 45.9927 106.097 46.1218 106.859 46.3932C111.3 47.9789 114.102 51.2422 114.871 56.158C115.349 59.2189 114.384 62.2721 113.845 63.5054C111.718 68.3807 106.785 71.1439 101.773 70.4128C101.524 70.3767 101.161 70.4883 100.947 70.6678C100.682 78.4595 96.8813 85.3506 91.1801 89.2869C82.0325 95.6034 70.263 93.6577 62.838 84.996C59.6565 88.2352 55.8704 89.8089 51.4225 89.2376C46.9998 88.6697 43.5655 86.2402 41.0601 82.2897C39.9025 82.5994 38.8053 83.0459 37.6708 83.1695C33.2273 83.6532 29.6489 81.8738 26.972 77.9167C26.8808 77.781 26.7489 77.6771 26.6356 77.5578C26.2531 76.6845 25.8705 75.8112 25.4879 74.9379C25.3175 73.6127 25.0163 72.2864 25.0009 70.9633C24.958 67.4012 26.4213 64.1543 28.8145 61.9766Z" fill="#F2E9FC"/>
<g id="Group">
<path id="Vector_2" d="M70.4318 81.2016H75.3151C77.5178 81.2016 79.6141 79.3008 79.6141 76.9926V71.098C75.516 68.3572 73.6712 66.1764 73.6712 66.1764L68.0029 67.874C69.6226 72.9648 73.9413 74.6624 73.9413 74.6624V77.8074C70.613 77.8063 70.4318 81.2016 70.4318 81.2016Z" fill="#A795F9"/>
<path id="Vector_3" d="M70.4329 81.9702H75.3151C78.0153 81.9702 80.3839 79.6434 80.3839 76.9915V71.098C80.3839 70.8422 80.2554 70.6017 80.0412 70.4589C76.1002 67.8235 74.2741 65.6998 74.2565 65.6778C74.0577 65.445 73.7448 65.3528 73.4494 65.4385L67.7811 67.1361C67.5834 67.1954 67.4187 67.3316 67.3221 67.5138C67.2254 67.6961 67.2079 67.9092 67.2693 68.1057C68.6683 72.5069 71.9285 74.5241 73.1716 75.1533V77.0936C70.5702 77.4856 69.7335 79.8564 69.6643 81.1609C69.6533 81.3707 69.7302 81.5782 69.874 81.7308C70.0201 81.8835 70.221 81.9702 70.4329 81.9702ZM78.8465 71.5065V76.9915C78.8465 78.7934 77.1642 80.4329 75.3151 80.4329H71.3619C71.6178 79.6412 72.2722 78.576 73.9413 78.576C74.3663 78.576 74.71 78.2323 74.71 77.8073V74.6635C74.71 74.3473 74.5157 74.064 74.2225 73.9487C74.1873 73.9344 70.6383 72.4739 68.9988 68.3791L73.4285 67.0526C74.1203 67.7774 75.8652 69.4739 78.8465 71.5065Z" fill="#3762CC"/>
</g>
<g id="Group_2">
<path id="Vector_4" d="M46.4694 81.0039L51.4646 80.9951L54.3065 80.9863H54.7007V67.6752C52.9657 67.6412 51.3647 67.0043 50.1074 65.9776L49.555 65.8491V77.4801C46.4529 77.4801 46.4694 81.0039 46.4694 81.0039Z" fill="#A795F9"/>
<path id="Vector_5" d="M46.4694 81.7725L54.6996 81.756C55.1246 81.756 55.4683 81.4123 55.4683 80.9874V67.6763C55.4683 67.2579 55.1322 66.9164 54.7139 66.9076C53.2227 66.8791 51.7589 66.3366 50.5927 65.3835C50.5016 65.3099 50.394 65.2572 50.2809 65.2298L49.7285 65.1013C49.499 65.0464 49.2586 65.1024 49.0752 65.2484C48.8918 65.3945 48.7842 65.6152 48.7842 65.8502V76.7773C48.0638 76.9058 47.4478 77.222 46.9493 77.7238C45.704 78.9746 45.6985 80.9237 45.6985 81.006C45.7029 81.4299 46.0466 81.7725 46.4694 81.7725ZM53.9309 80.2187L47.3248 80.233C47.4983 79.4116 48.0155 78.2487 49.5539 78.2487C49.9789 78.2487 50.3226 77.905 50.3226 77.4801V67.0877C51.4075 67.7982 52.6484 68.2484 53.9298 68.3934L53.9309 80.2187Z" fill="#3762CC"/>
</g>
<g id="Group_3">
<path id="Vector_6" d="M42.5053 33.9102C44.9397 29.0379 48.3032 28.7436 50.0821 28.7436H52.835C55.6264 28.7436 57.4624 30.7114 58.275 32.867C58.6824 33.9475 62.0118 41.8636 63.1659 44.8647C64.32 47.8658 65.9638 48.5741 68.003 48.5741H78.4809C78.851 48.5741 80.5761 48.5741 80.5761 48.5741C83.2873 47.9492 87.4622 46.4558 88.5395 42.707C89.5662 39.1327 88.456 36.0514 85.5065 31.5866C84.9904 30.8048 85.0574 29.7253 85.7799 29.128C86.6068 28.445 87.8125 28.6415 88.3912 29.509C92.0105 34.9369 93.0603 39.2886 91.8063 43.6195C90.6247 47.6923 87.8806 51.0865 85.6065 52.7655C86.5761 54.2721 87.2832 55.2801 87.2832 58.6326C87.2832 68.6911 91.2144 71.2057 91.2144 71.2057V76.8697C91.2144 79.1526 89.363 81.004 87.0801 81.004H81.9948C81.9948 81.004 81.9048 77.6515 85.3473 77.6515V74.5582C76.0432 70.4239 73.8722 66.1765 73.8722 66.1765C68.7035 66.1765 68.9912 69.5289 60.7215 69.5289V76.8126C60.7215 79.1175 58.8361 80.9996 56.5301 80.9941L51.4734 80.982C51.4734 80.982 51.7523 77.6515 54.8533 77.6515V67.8521C50.6883 67.8521 47.3127 64.4722 47.3193 60.3072C47.3248 56.6055 47.3193 53.1355 47.3138 49.4086C47.3127 47.5561 45.8105 46.0594 43.958 46.0594C33.6272 46.0594 34.7374 37.6777 34.7374 37.6777C34.7374 37.6777 40.7835 37.3549 42.5053 33.9102Z" fill="#FCBA7F"/>
</g>
<g id="Group_4">
<path id="Vector_7" d="M34.9471 37.5964C34.9471 37.5964 40.7868 37.3504 42.5053 33.9134C44.9365 29.0357 48.2813 28.995 50.058 28.995H52.8076C55.5989 28.995 57.4668 30.7114 58.2717 32.8647C58.6824 33.9452 62.0096 41.8581 63.167 44.8592C64.3233 47.8602 65.9671 47.8449 68.003 47.8449H78.481C78.8499 47.8449 80.5761 47.8449 80.5761 47.8449C83.284 47.2244 87.4579 46.4514 88.5384 42.7047C89.5607 39.1348 88.4549 36.0492 85.5044 31.5821C84.985 30.8025 85.0519 29.7209 85.7811 29.1268C86.6024 28.4471 88.2562 28.681 88.8349 29.5441C92.4564 34.9752 93.7214 39.417 92.4717 43.7512C91.2902 47.8251 87.8762 51.0875 85.6043 52.7643C86.5761 54.2731 87.1866 55.6347 87.1866 58.9872C87.1866 69.0457 91.2122 71.2046 91.2122 71.2046V76.8707C91.2122 79.1503 89.3598 81.0028 87.0801 81.0028H81.9927C81.9927 81.0028 81.7983 77.4033 85.243 77.4033V74.31C82.511 73.0944 81.4974 72.1182 79.7383 71.0036C75.4974 68.2968 73.8712 66.1753 73.8712 66.1753C68.6992 66.1753 68.2149 69.1127 59.9419 69.1127V76.3963C59.9419 78.7012 58.8339 81.0028 56.529 80.994L54.7018 80.9853H54.3076L51.4745 80.9776C51.4745 80.9776 51.6293 77.915 54.5887 77.814C54.6392 77.8063 54.95 77.8601 55.0005 77.8601V68.0618L54.5887 68.008C52.8537 67.974 51.3658 67.1899 50.1085 66.1753C48.4064 64.7928 47.2458 62.9985 47.2458 60.6354C47.2458 60.6266 47.2458 60.6266 47.2458 60.6179C47.2545 56.9129 47.2458 53.4429 47.2458 49.7215C47.237 47.869 45.8095 46.0583 43.957 46.0583C35.449 46.0583 34.9153 40.2944 34.9153 38.2827C34.9131 37.8566 34.9471 37.5964 34.9471 37.5964Z" fill="#D0C6FF"/>
</g>
<g id="Group_5">
<path id="Vector_8" d="M62.3434 42.7068V59.4703C62.3434 60.7276 63.3152 63.8209 64.7932 65.3374C66.2712 66.8549 66.7775 67.4325 69.0318 67.4325C69.0318 67.4325 73.1156 65.7558 74.3411 66.1752L85.5636 52.3283C87.7773 50.6515 90.6686 47.6933 91.8205 43.6193C93.0372 39.2863 92.0171 34.9356 88.4878 29.5045C87.9245 28.6414 86.7484 28.4481 85.9479 29.1278C85.2375 29.723 85.1716 30.8046 85.6789 31.5843C88.5537 36.0513 89.632 39.1358 88.6361 42.7068C87.5819 46.4535 83.5146 47.9535 80.8769 48.5739C80.8769 48.5739 79.1947 48.5739 78.8345 48.5739H68.6244C66.6402 48.5739 65.0721 48.7529 63.9444 45.7529C63.716 45.1413 63.3975 44.2694 63.0297 43.2723L62.3434 42.7068Z" fill="#A795F9"/>
</g>
<g id="Group_6">
<path id="Vector_9" d="M50.9508 36.9397C51.6437 35.2575 53.5126 34.3768 55.2707 34.8896C55.2707 34.8896 56.9474 39.5971 56.9474 43.4481C56.9474 45.5883 55.6901 48.1556 53.1755 48.1556C50.6609 48.1556 49.4036 45.5883 49.4036 43.4481C49.4036 41.23 50.1909 38.7834 50.9508 36.9397Z" fill="#A795F9"/>
</g>
<g id="Group_7">
<path id="Vector_10" d="M36.4109 36.8386C36.8556 36.8386 37.2821 37.0153 37.5965 37.3297C37.911 37.6442 38.0876 38.0707 38.0876 38.5154C38.0876 38.9601 37.911 39.3866 37.5965 39.7011C37.2821 40.0155 36.8556 40.1922 36.4109 40.1922C35.9661 40.1922 35.5397 40.0155 35.2252 39.7011C34.9107 39.3866 34.7341 38.9601 34.7341 38.5154C34.7341 38.0707 34.9107 37.6442 35.2252 37.3297C35.5397 37.0153 35.9661 36.8386 36.4109 36.8386Z" fill="#3762CC"/>
</g>
<g id="Group_8">
<path id="Vector_11" d="M45.3955 34.8499C45.6867 34.8499 45.966 34.9655 46.172 35.1715C46.3779 35.3774 46.4936 35.6567 46.4936 35.9479C46.4936 36.2392 46.3779 36.5185 46.172 36.7244C45.966 36.9303 45.6867 37.046 45.3955 37.046C45.1043 37.046 44.825 36.9303 44.619 36.7244C44.4131 36.5185 44.2974 36.2392 44.2974 35.9479C44.2974 35.6567 44.4131 35.3774 44.619 35.1715C44.825 34.9655 45.1043 34.8499 45.3955 34.8499Z" fill="#3762CC"/>
</g>
<g id="Group_9">
<path id="Vector_12" d="M53.0712 48.5739C55.8614 48.5739 57.3658 45.933 57.3658 43.448C57.3658 41.187 56.7882 38.6493 56.3039 36.9187C56.2413 36.6947 56.0063 36.5663 55.7768 36.6245C55.5484 36.6859 55.4134 36.9166 55.4749 37.1395C55.946 38.8217 56.506 41.2815 56.506 43.4491C56.506 45.2291 55.4397 47.7371 53.07 47.7371C50.7004 47.7371 49.6341 45.2291 49.6341 43.4491C49.6341 41.243 50.4786 38.7789 51.1868 37.101C51.8138 35.6142 53.4961 34.8368 55.0971 35.2936C55.3266 35.3595 55.5638 35.231 55.6297 35.0081C55.6956 34.7863 55.5649 34.5535 55.3376 34.4887C53.3149 33.9122 51.1868 34.8983 50.3929 36.7815C49.655 38.5296 48.7754 41.1069 48.7754 43.4491C48.7765 45.933 50.282 48.5739 53.0712 48.5739Z" fill="#3762CC"/>
</g>
<g id="Group_10">
<path id="Vector_13" d="M68.8792 67.8519C69.1109 67.8519 69.2987 67.6641 69.2987 67.4324C69.2987 67.2007 69.1109 67.0129 68.8792 67.0129C64.6845 67.0129 62.8529 63.7384 62.8529 59.0496C62.8529 58.8179 62.6651 58.6169 62.4334 58.6169C62.2017 58.6169 62.014 58.7915 62.014 59.0221V59.0485C62.0151 64.1502 64.2651 67.8519 68.8792 67.8519Z" fill="#3762CC"/>
</g>
<g id="Group_11">
<path id="Vector_14" d="M62.3422 57.7682C62.5739 57.7682 62.7617 57.5804 62.7617 57.3487V55.6719C62.7617 55.4402 62.5739 55.2524 62.3422 55.2524C62.1106 55.2524 61.9228 55.4402 61.9228 55.6719V57.3487C61.9228 57.5804 62.1106 57.7682 62.3422 57.7682Z" fill="#3762CC"/>
</g>
<g id="Group_12">
<path id="Vector_15" d="M62.3422 53.8898C62.5739 53.8898 62.7617 53.702 62.7617 53.4703V43.0088C62.7617 42.7771 62.5739 42.5894 62.3422 42.5894C62.1106 42.5894 61.9228 42.7771 61.9228 43.0088V53.4703C61.9228 53.702 62.1106 53.8898 62.3422 53.8898Z" fill="#3762CC"/>
</g>
<g id="Group_13">
<path id="Vector_16" d="M73.87 66.5948C73.9875 66.5948 74.105 66.5453 74.1874 66.4498L83.9384 55.1494C84.09 54.9737 84.0702 54.709 83.8945 54.5586C83.7199 54.407 83.4542 54.4257 83.3037 54.6025L73.5527 65.9019C73.4012 66.0776 73.4209 66.3422 73.5966 66.4926C73.6757 66.5618 73.7723 66.5948 73.87 66.5948Z" fill="#3762CC"/>
</g>
<g id="Group_14">
<path id="Vector_17" d="M81.9915 81.7724H87.0801C89.7825 81.7724 91.982 79.574 91.982 76.8716V71.2055C91.982 70.9222 91.826 70.6619 91.5768 70.5279C91.5493 70.5126 87.9564 68.3471 87.9564 58.9881C87.9564 56.0046 87.5083 54.4804 86.6233 52.9552C88.5252 51.4541 91.9655 48.2576 93.2096 43.9662C94.4966 39.5036 93.3447 34.9245 89.4739 29.1189C89.0808 28.5314 88.3725 28.1241 87.5314 28.0011C86.6683 27.8726 85.8535 28.0703 85.2902 28.5347C84.2799 29.3605 84.0955 30.855 84.8652 32.0102C87.9223 36.6398 88.6899 39.3839 87.7993 42.4948C86.8956 45.6287 83.3696 46.4259 80.7946 47.009L80.4904 47.0782H68.0029C67.9931 47.0782 67.9821 47.0782 67.9733 47.0782C66.0121 47.0782 64.8404 47.0661 63.884 44.5844C63.1823 42.7671 61.712 39.2115 60.5315 36.3564C59.7716 34.5182 59.1512 33.0204 58.9898 32.5933C57.9697 29.8623 55.6582 28.2273 52.8075 28.2273H50.0579C48.2472 28.2273 44.4796 28.2273 41.8157 33.5706C40.319 36.5662 34.9691 36.8264 34.9153 36.8286C34.543 36.844 34.2355 37.1273 34.185 37.4952C34.185 37.4952 34.1444 37.7938 34.1444 38.2836C34.1444 40.8531 35.1008 46.8278 43.9558 46.8278C45.4339 46.8278 46.4694 48.3553 46.476 49.7257L46.4782 53.4087C46.4804 55.8025 46.4825 58.1579 46.476 60.6166C46.476 63.0115 47.5356 65.077 49.6231 66.7714C51.145 68.0001 52.6549 68.6524 54.2307 68.7622V77.0682C51.6106 77.2911 50.7706 79.674 50.7058 80.9389C50.6948 81.1476 50.7717 81.354 50.9155 81.5067C51.0594 81.6593 51.2603 81.746 51.4712 81.7471L56.5246 81.7636C56.529 81.7636 57.6326 81.7636 57.6381 81.7636C58.6549 81.7636 59.5652 81.3903 60.2735 80.6842C61.2486 79.7124 61.8075 78.1509 61.8075 76.3983V69.8757C66.0626 69.779 67.0926 68.8896 68.9835 68.099C70.3792 67.5159 71.5948 67.0064 73.5154 66.9515C74.1336 67.652 75.9026 69.4694 79.3232 71.6535C79.8173 71.9664 80.2499 72.2673 80.6771 72.5649C81.6895 73.2677 82.7327 73.9924 84.4732 74.8061V76.6915C83.6156 76.8222 82.904 77.1802 82.3539 77.7622C81.1306 79.0535 81.2185 80.9653 81.2229 81.0466C81.2459 81.4529 81.583 81.7724 81.9915 81.7724ZM90.4435 71.6041V76.8716C90.4435 78.7252 88.9348 80.2351 87.0801 80.2351H82.8206C82.8985 79.7914 83.0764 79.2303 83.4772 78.8119C83.8879 78.3815 84.4655 78.1729 85.243 78.1729C85.6679 78.1729 86.0116 77.8292 86.0116 77.4042V74.312C86.0116 74.0089 85.8326 73.7333 85.5548 73.6092C83.6672 72.7691 82.6427 72.0565 81.5545 71.301C81.1098 70.9913 80.6595 70.6795 80.1478 70.3555C76.1014 67.7717 74.4938 65.7271 74.4784 65.7073C74.3323 65.5196 74.1072 65.4086 73.8689 65.4086C71.4312 65.4086 69.9542 66.0269 68.3906 66.6802C66.5227 67.4621 65.5048 68.3471 61.0388 68.3471C60.6139 68.3471 60.2702 68.6908 60.2702 69.1158V76.3994C60.2702 77.727 59.8661 78.9218 59.1897 79.596C58.768 80.0155 58.2475 80.2274 57.6392 80.2274C57.6359 80.2274 56.5345 80.2274 56.5312 80.2274L52.41 80.2142C52.6505 79.5191 53.227 78.6319 54.6139 78.5846L54.7358 78.6055C54.8566 78.6231 54.9653 78.6319 54.9993 78.6319C55.4243 78.6319 55.768 78.2882 55.768 77.8632V68.0649C55.768 67.6795 55.4825 67.3545 55.1004 67.3029L54.6886 67.2479C53.2567 67.2161 51.9445 66.6725 50.5905 65.5788C48.8577 64.1711 48.0133 62.5536 48.0133 60.6374C48.0188 58.1612 48.0166 55.8047 48.0155 53.4076L48.0133 49.7246C48.0012 47.3209 46.1443 45.2927 43.9558 45.2927C37.1334 45.2927 35.6894 41.4999 35.6828 38.3078C37.3816 38.1178 41.6542 37.3381 43.1927 34.2602C45.4317 29.7668 48.4415 29.7668 50.059 29.7668H52.8086C55.9536 29.7668 57.1747 32.1233 57.5513 33.1368C57.7171 33.5717 58.3441 35.086 59.1117 36.945C60.2899 39.7935 61.7559 43.3381 62.4499 45.139C63.7863 48.6024 65.9001 48.6177 67.9491 48.6177C67.9579 48.6177 67.9667 48.6177 67.9755 48.6177H80.5761C80.6343 48.6177 80.6914 48.6111 80.7474 48.598L81.1339 48.5101C83.9165 47.8809 88.12 46.93 89.2774 42.9208C90.4446 38.8447 88.9446 35.3989 86.1456 31.1614C85.8601 30.7331 85.8293 30.082 86.2653 29.724C86.4882 29.5395 86.8967 29.4626 87.3074 29.5219C87.7016 29.5801 88.0497 29.7569 88.1946 29.9732C91.7909 35.366 92.8824 39.5508 91.7327 43.5391C90.449 47.9666 86.3674 51.2477 85.1485 52.147C84.8213 52.3886 84.7389 52.841 84.9586 53.1814C85.8129 54.5079 86.4179 55.7015 86.4179 58.9881C86.4179 67.6158 89.3443 70.7366 90.4435 71.6041Z" fill="#3762CC"/>
</g>
</g>
</g>
</g>
</svg>
