<svg width="123" height="82" viewBox="0 0 123 82" fill="none" xmlns="http://www.w3.org/2000/svg">
<g id="cat">
<mask id="mask0_13_211" style="mask-type:alpha" maskUnits="userSpaceOnUse" x="0" y="0" width="123" height="82">
<rect id="Rectangle 5" width="123" height="82" fill="#D9D9D9"/>
</mask>
<g mask="url(#mask0_13_211)">
<g id="Group 23">
<path id="Vector" d="M94.1864 62.9755C94.5162 62.3014 94.8086 61.5923 95.0614 60.8492C97.956 52.3462 93.5784 42.1601 84.3614 39.7011C83.3643 27.2443 74.5695 18.6975 64.638 17.2398C53.2696 15.571 42.8554 22.7597 39.3903 34.1857C35.2138 32.7127 31.144 32.8921 27.3084 35.1235C25.5681 35.9246 23.9762 37.1064 22.5482 38.6615C20.4517 40.9443 19.0885 43.8257 18.5334 46.8636C17.711 46.9927 16.903 47.1218 16.1412 47.3932C11.6998 48.9789 8.89754 52.2422 8.12909 57.158C7.65087 60.2189 8.6161 63.2721 9.15479 64.5054C11.282 69.3807 16.2148 72.1439 21.2268 71.4128C21.4763 71.3767 21.8391 71.4883 22.0535 71.6678C22.3184 79.4595 26.1189 86.3506 31.8201 90.2869C40.9678 96.6034 52.7375 94.6577 60.1625 85.996C63.344 89.2352 67.1302 90.8089 71.5782 90.2376C76.0009 89.6697 79.4352 87.2402 81.9407 83.2897C83.0983 83.5994 84.1954 84.0459 85.33 84.1695C89.7736 84.6532 93.3816 82.8946 96.0289 78.9167C97.0425 77.3945 98 75.4214 98 71.9633C98.0011 68.4001 96.5785 65.1532 94.1864 62.9755Z" fill="#EFE8FC"/>
<g id="Group">
<path id="Vector_2" d="M75.6484 47.7548C80.0814 47.343 81.6934 42.5663 81.6934 41.9898C81.6934 41.4133 80.0814 41.1663 79.4599 39.6839C78.3332 36.9968 78.7373 35.1707 77.6634 33.3424C76.4544 31.2835 74.6579 30.4599 72.8274 30.4599L74.4394 26.342C65.782 27.5401 61.5434 34.4635 61.5434 43.637C61.5434 43.637 60.3344 44.8723 59.9314 46.9313C47.467 46.9313 37.3624 57.2555 37.3624 69.9912V75.7561C37.3624 76.6665 36.6409 77.4033 35.7504 77.4033C30.854 77.4033 26.8844 73.3469 26.8844 68.344V61.3437C26.8844 60.1369 25.8675 59.1717 24.6618 59.2958C23.6132 59.4034 22.8544 60.3851 22.8544 61.4623V67.9333C22.8544 75.4388 28.8082 81.5222 36.1534 81.5222H66.3783C66.3783 79.7027 64.9343 78.228 63.1543 78.228H54.2883C59.6294 78.228 63.9603 73.8026 63.9603 68.3451L65.5723 73.2865L71.2143 81.5222H76.8563C76.8563 79.7027 75.4123 78.228 73.6323 78.228L70.4083 67.5216C70.4083 67.5216 74.4383 63.4037 74.4383 56.8152C74.4383 52.6973 72.8263 49.8148 72.8263 49.8148L73.6323 47.7559L75.6484 47.7548Z" fill="#D0C6FF"/>
</g>
<g id="Group_2">
<path id="Vector_3" d="M75.6177 39.3017C75.6177 39.3017 74.098 39.8079 73.0833 38.7955C72.0698 37.7819 72.5771 36.2611 72.5771 36.2611C72.5771 36.2611 74.0969 35.7549 75.1115 36.7673C76.125 37.7808 75.6177 39.3017 75.6177 39.3017Z" fill="#3762CC"/>
</g>
<g id="Group_3">
<path id="Vector_4" d="M63.8418 68.9324C63.5783 68.9324 63.3466 68.7425 63.3005 68.4756C62.5164 63.8472 60.5377 60.8582 57.5816 59.8337C57.295 59.7337 57.1435 59.4208 57.2434 59.1342C57.3422 58.8476 57.653 58.696 57.9418 58.7949C60.284 59.6074 63.3027 61.9145 64.3843 68.2901C64.4348 68.5887 64.2339 68.8731 63.9341 68.9237C63.9022 68.9302 63.8726 68.9324 63.8418 68.9324Z" fill="#3762CC"/>
</g>
<g id="Group_4">
<path id="Vector_5" d="M51.3587 60.2499C51.1457 60.2499 50.9425 60.1247 50.8536 59.9149C50.735 59.636 50.8646 59.3132 51.1435 59.1957C52.4535 58.6379 53.8492 58.3447 55.1812 58.3447C55.4831 58.3073 55.7434 58.5863 55.7434 58.8948C55.7434 59.1968 55.4974 59.4428 55.1943 59.4428C55.19 59.4428 55.1856 59.4428 55.1812 59.4428C53.9952 59.4428 52.7489 59.7063 51.5728 60.2059C51.5037 60.2356 51.4301 60.2499 51.3587 60.2499Z" fill="#3762CC"/>
</g>
<g id="Group_5">
<path id="Vector_6" d="M47.288 63.3488C47.1958 63.3488 47.1025 63.3257 47.0157 63.2763C46.7533 63.1259 46.661 62.791 46.8115 62.5274C47.2485 61.7642 47.9765 61.023 48.9165 60.3828C49.1669 60.2126 49.5095 60.2763 49.6797 60.5278C49.8499 60.7793 49.7851 61.1197 49.5347 61.2899C48.7419 61.829 48.1138 62.4615 47.7646 63.0721C47.6647 63.25 47.4791 63.3488 47.288 63.3488Z" fill="#3762CC"/>
</g>
<g id="Group_6">
<path id="Vector_7" d="M27.1545 67.4293H22.7621V61.9389C22.7621 60.7255 23.7449 59.7427 24.9583 59.7427C26.1717 59.7427 27.1545 60.7255 27.1545 61.9389V67.4293Z" fill="white"/>
</g>
<g id="Group_7">
<path id="Vector_8" d="M26.88 67.7038H24.6838C24.5323 67.7038 24.4093 67.5808 24.4093 67.4293C24.4093 67.2778 24.5323 67.1548 24.6838 67.1548H26.88C27.0315 67.1548 27.1545 67.2778 27.1545 67.4293C27.1545 67.5808 27.0315 67.7038 26.88 67.7038Z" fill="#3762CC"/>
</g>
<g id="Group_8">
<path id="Vector_9" d="M76.8575 82.2895H71.2155C70.9619 82.2895 70.7247 82.1643 70.5808 81.9546L64.9388 73.7189C64.8971 73.6585 64.8652 73.5926 64.8422 73.5223L64.2229 71.6237C63.4421 74.0758 61.8115 76.1413 59.6877 77.4568H63.1555C65.3572 77.4568 67.1482 79.2796 67.1482 81.5197C67.1482 81.9447 66.8045 82.2884 66.3795 82.2884H36.1535C28.3965 82.2884 22.0847 75.8481 22.0847 67.9309V61.4598C22.0847 59.9598 23.1817 58.6718 24.5818 58.529C25.3636 58.4554 26.1378 58.7047 26.7176 59.2285C27.3116 59.7644 27.652 60.5341 27.652 61.3423V68.3426C27.652 72.914 31.2845 76.6332 35.7494 76.6332C36.215 76.6332 36.5927 76.2401 36.5927 75.7548V69.9898C36.5927 57.0587 46.7336 46.4994 59.3221 46.17C59.7174 44.7655 60.4202 43.7805 60.7749 43.3468C60.8704 33.3772 65.9227 26.7448 74.333 25.5797C74.6053 25.5401 74.8733 25.6511 75.0424 25.8652C75.2115 26.0793 75.2532 26.367 75.1544 26.6207L73.9179 29.7799C75.7506 30.0895 77.2901 31.1887 78.3256 32.9523C78.9516 34.0185 79.1284 35.0595 79.3161 36.162C79.4841 37.1481 79.6576 38.1682 80.1682 39.3871C80.4351 40.024 80.971 40.3688 81.4442 40.6729C81.9208 40.9793 82.4622 41.3274 82.4622 41.9896C82.4622 42.8658 80.6031 48.0664 75.7199 48.5199C75.6968 48.5221 75.6727 48.5232 75.6485 48.5232H74.1584L73.6697 49.7728C74.1046 50.6744 75.2093 53.3109 75.2093 56.8138C75.2093 62.6205 72.2576 66.5582 71.2715 67.7123L74.2199 77.5018C76.1448 77.7906 77.6284 79.4828 77.6284 81.5208C77.6262 81.9458 77.2814 82.2895 76.8575 82.2895ZM71.6207 80.7522H75.9724C75.6551 79.7342 74.7261 78.9952 73.6335 78.9952C73.2942 78.9952 72.9955 78.7734 72.8978 78.4484L69.6738 67.742C69.5936 67.474 69.665 67.1831 69.8594 66.9843C69.8978 66.9448 73.6708 62.9894 73.6708 56.8138C73.6708 52.9419 72.172 50.2154 72.1566 50.189C72.0435 49.988 72.0281 49.7476 72.1116 49.5334L72.9176 47.4745C73.0329 47.1791 73.3173 46.9859 73.6335 46.9859H75.6112C79.1295 46.6378 80.6305 43.1151 80.8875 42.1477C80.8051 42.0895 80.6997 42.0214 80.613 41.9654C80.0518 41.6041 79.203 41.0584 78.7517 39.9811C78.173 38.5997 77.9754 37.4413 77.8019 36.42C77.6251 35.3779 77.4845 34.5544 77.0014 33.7319C75.7869 31.6631 74.0607 31.2294 72.8275 31.2294C72.5739 31.2294 72.3356 31.1042 72.1928 30.8933C72.0501 30.6825 72.0193 30.4157 72.1116 30.1807L73.2228 27.3421C66.2675 28.8926 62.3122 34.7553 62.3122 43.6378C62.3122 43.8387 62.2331 44.0309 62.0926 44.1748C62.0838 44.1835 61.0351 45.2904 60.6848 47.0803C60.6145 47.4405 60.2983 47.7007 59.9304 47.7007C47.9096 47.7007 38.1311 57.6999 38.1311 69.992V75.757C38.1311 77.0889 37.0627 78.1727 35.7505 78.1727C30.4379 78.1727 26.1158 73.7628 26.1158 68.3448V61.3445C26.1158 60.9712 25.9599 60.6176 25.6887 60.3716C25.4273 60.1366 25.0924 60.0279 24.7399 60.0608C24.114 60.1256 23.6231 60.7406 23.6231 61.462V67.9331C23.6231 75.0026 29.2443 80.7533 36.1535 80.7533H65.4945C65.1771 79.7353 64.2481 78.9963 63.1555 78.9963H54.2884C53.8635 78.9963 53.5198 78.6526 53.5198 78.2277C53.5198 77.8027 53.8635 77.459 54.2884 77.459C59.198 77.459 63.1918 73.3697 63.1918 68.3448C63.1918 67.9671 63.4663 67.6443 63.8396 67.5861C64.213 67.5301 64.5743 67.7464 64.6907 68.1077L66.2686 72.9436L71.6207 80.7522Z" fill="#3762CC"/>
</g>
</g>
</g>
</g>
</svg>
