<svg width="161" height="142" viewBox="0 0 161 142" fill="none" xmlns="http://www.w3.org/2000/svg">
<g id="Group 33">
<path id="Vector" d="M146.798 89.4524C147.447 88.3913 148.04 87.2665 148.573 86.0796C154.679 72.4968 149.078 54.9922 134.294 49.4837C134.618 28.7601 121.488 13.2693 105.367 9.29961C86.9162 4.7573 68.6396 14.9881 61.134 33.3068C54.4912 30.2184 47.7634 29.8749 41.0976 32.9558C38.1065 34.0047 35.2998 35.7056 32.7038 38.0484C28.8928 41.4875 26.1945 46.0301 24.8017 50.9582C23.4276 51.0421 22.0772 51.1282 20.7803 51.4565C13.2191 53.3762 8.09166 58.3231 6.05167 66.3179C4.78188 71.2959 5.88943 76.4882 6.58174 78.609C9.31488 86.9921 16.9994 92.3294 25.365 91.9104C25.7815 91.8901 26.3611 92.1314 26.6857 92.4614C25.8934 105.366 31.0631 117.34 39.8276 124.735C53.8903 136.601 73.5717 135.239 87.16 122.107C91.8865 127.955 97.871 131.148 105.283 130.904C112.653 130.662 118.69 127.191 123.437 121.063C125.294 121.756 127.029 122.665 128.877 123.048C136.116 124.545 142.287 122.17 147.317 116.058C147.489 115.848 147.723 115.697 147.928 115.518C148.695 114.137 149.463 112.755 150.23 111.373C150.72 109.212 151.425 107.07 151.659 104.888C152.291 99.0142 150.394 93.4238 146.798 89.4524Z" fill="#F2E9FC"/>
<path id="Vector_2" d="M75.2 3.04236C75.4504 3.06752 75.6767 3.10654 75.9055 3.21735C76.3571 3.43593 76.6665 3.91408 76.8083 4.38563C76.9421 4.83116 76.8423 5.32897 76.6119 5.7248C76.2874 6.28237 75.7551 6.45481 75.1658 6.59763C74.8288 6.51311 74.4377 6.43457 74.1479 6.23583C73.7963 5.99469 73.6001 5.6425 73.518 5.23092C73.4035 4.65758 73.5867 4.13764 73.927 3.6795C74.2426 3.25436 74.7026 3.13015 75.2 3.04236Z" fill="#F9AC8E"/>
<path id="Vector_3" d="M29.1381 131.723C29.4953 131.706 29.7994 131.688 30.1334 131.831C30.5646 132.016 30.9283 132.383 31.0889 132.827C31.2418 133.25 31.2505 133.8 31.0559 134.21C30.7991 134.751 30.3318 135.008 29.7944 135.209C29.5071 135.253 29.2292 135.237 28.9512 135.145C28.4363 134.974 28.1089 134.654 27.8876 134.162C27.7052 133.757 27.668 133.241 27.8513 132.829C28.1294 132.203 28.5364 131.968 29.1381 131.723Z" fill="#4B5ECC"/>
<path id="Vector_4" d="M142.17 111.242C142.501 111.19 142.858 111.17 143.177 111.29C143.645 111.467 143.997 111.795 144.206 112.247C144.387 112.639 144.416 113.211 144.248 113.614C144.011 114.18 143.598 114.479 143.048 114.7C142.734 114.71 142.392 114.739 142.089 114.643C141.649 114.504 141.279 114.172 141.066 113.767C140.838 113.334 140.832 112.825 140.99 112.368C141.194 111.779 141.644 111.516 142.17 111.242Z" fill="#0F57F4"/>
<path id="Vector_5" d="M58.1856 10.2134C58.4911 10.1952 58.8063 10.2168 59.0961 10.3241C59.5636 10.4971 59.9987 10.9651 60.1745 11.4271C60.3503 11.8891 60.3642 12.4376 60.1266 12.8822C59.8321 13.4329 59.3143 13.7029 58.7541 13.9041C58.4493 13.9172 58.1529 13.9293 57.86 13.8298C57.3454 13.6547 56.9352 13.2423 56.7255 12.7442C56.5307 12.2813 56.5986 11.6835 56.8126 11.237C57.0918 10.6542 57.6009 10.4058 58.1856 10.2134Z" fill="#0F57F4"/>
<path id="Vector_6" d="M11.1898 31.1002C11.5313 31.1129 11.8705 31.1639 12.1839 31.3066C12.6834 31.5341 12.9971 31.9339 13.1756 32.4459C13.3351 32.9029 13.2701 33.5051 13.045 33.93C12.7012 34.5788 12.196 34.8028 11.5308 34.9944C11.2006 34.9784 10.8738 34.9641 10.5713 34.8172C10.0723 34.5749 9.63495 34.1647 9.46323 33.6262C9.30453 33.1286 9.34627 32.6102 9.61551 32.1571C9.99207 31.5233 10.5025 31.268 11.1898 31.1002Z" fill="#F9AC8E"/>
<path id="Vector_7" d="M127.768 76.1907C128.226 76.2256 128.69 76.2835 129.078 76.5528C129.524 76.8624 129.837 77.3456 129.933 77.8805C130.039 78.4662 129.876 79.1495 129.516 79.6275C129.113 80.1637 128.578 80.3894 127.934 80.4944C127.505 80.456 127.021 80.3744 126.649 80.1432C126.148 79.8326 125.832 79.3962 125.725 78.8211C125.606 78.1766 125.704 77.513 126.104 76.9882C126.537 76.4205 127.095 76.2727 127.768 76.1907Z" fill="#3DE5DD"/>
<path id="Vector_8" d="M145.463 23.4491C145.824 23.4297 146.239 23.4739 146.574 23.615C147.217 23.8861 147.55 24.3047 147.789 24.9525C147.998 25.5223 147.913 26.2785 147.631 26.8127C147.272 27.493 146.639 27.8161 145.934 28.0264C145.508 28.0342 145.063 27.9845 144.683 27.7803C144.067 27.4502 143.685 26.9389 143.503 26.2673C143.327 25.6145 143.499 24.9058 143.873 24.3534C144.263 23.7785 144.811 23.5768 145.463 23.4491Z" fill="#FEC35D"/>
<path id="Vector_9" d="M145.306 24.2377C145.512 24.2274 145.712 24.2219 145.917 24.2558C146.349 24.3271 146.683 24.5195 146.923 24.8941C147.166 25.2731 147.217 25.7114 147.094 26.1423C146.948 26.6512 146.567 26.8844 146.126 27.1233C145.807 27.1666 145.429 27.2002 145.12 27.0931C144.784 26.9772 144.521 26.6906 144.379 26.3731C144.207 25.9891 144.185 25.5124 144.344 25.1195C144.527 24.6675 144.874 24.4285 145.306 24.2377Z" fill="#F9FAFD"/>
<path id="Vector_10" d="M140.812 2.79398C141.202 2.78822 141.601 2.76319 141.976 2.89219C142.707 3.14421 143.215 3.62311 143.514 4.33684C143.727 4.84627 143.624 5.52718 143.397 6.01303C143.065 6.72092 142.469 7.07891 141.76 7.32903C141.322 7.43773 140.886 7.36661 140.468 7.21695C139.882 7.00699 139.398 6.56975 139.154 5.99321C138.955 5.52159 138.92 4.81059 139.124 4.33516C139.48 3.50656 140 3.12291 140.812 2.79398Z" fill="#3DE5DD"/>
<path id="Vector_11" d="M140.908 3.71147C141.101 3.69425 141.29 3.68062 141.481 3.72257C141.916 3.81802 142.293 4.02497 142.526 4.41633C142.727 4.75444 142.739 5.20023 142.616 5.56603C142.471 5.99533 142.079 6.2206 141.701 6.4173C141.366 6.47993 141.025 6.5014 140.698 6.38137C140.387 6.26755 140.158 6.00188 140.041 5.69892C139.887 5.29853 139.907 4.78553 140.088 4.39322C140.258 4.02602 140.539 3.84386 140.908 3.71147Z" fill="#F9FAFD"/>
<path id="Vector_12" d="M13.9402 121.244C14.4729 121.216 15.021 121.266 15.4821 121.562C16.0702 121.938 16.5152 122.56 16.6231 123.258C16.7314 123.958 16.5492 124.625 16.1314 125.194C15.7063 125.773 15.1286 125.947 14.4597 126.054C13.9717 126.094 13.4797 125.996 13.0397 125.775C12.5292 125.518 12.1198 125.037 11.9596 124.488C11.7534 123.781 11.7792 123.069 12.1625 122.419C12.5656 121.736 13.1965 121.413 13.9402 121.244Z" fill="#1FC728"/>
<path id="Vector_13" d="M14.066 122.205C14.2199 122.204 14.3571 122.206 14.5071 122.246C14.9338 122.359 15.2611 122.62 15.4669 123.011C15.6556 123.37 15.6856 123.736 15.5532 124.118C15.3663 124.658 14.9697 124.85 14.4924 125.096C14.2582 125.101 14.0038 125.07 13.7857 124.982C13.408 124.829 13.1216 124.522 12.9686 124.146C12.8302 123.807 12.8651 123.372 13.0123 123.04C13.2334 122.543 13.5932 122.391 14.066 122.205Z" fill="#F9FAFD"/>
<path id="Vector_14" d="M24.8535 8.22697L25.0866 8.19875C25.4649 8.16602 25.727 8.2589 26.0101 8.51903C26.5517 9.01653 26.4647 9.75206 26.4952 10.4274C27.0409 10.4669 27.8521 10.4776 28.2825 10.8525C28.5554 11.0901 28.6944 11.3818 28.7136 11.7405C28.7326 12.0957 28.6505 12.4268 28.4006 12.691C27.9139 13.2054 27.2349 13.1759 26.5833 13.1873C26.5357 13.6026 26.5346 14.0672 26.4102 14.4655C26.2625 14.939 25.9293 15.1804 25.5023 15.3867L25.2667 15.4184C24.903 15.4383 24.5421 15.2794 24.2783 15.0361C23.7969 14.5921 23.8479 13.8153 23.8047 13.2099C23.3049 13.142 22.7011 13.1022 22.2689 12.8284C22.0314 12.6777 21.7595 12.4273 21.7069 12.1377C21.6292 11.7105 21.7026 11.3109 21.9764 10.9715C22.3736 10.4799 23.0982 10.5044 23.6766 10.425C23.8877 10.0059 23.839 9.44195 24.0103 8.98637C24.1643 8.57628 24.4683 8.39437 24.8535 8.22697Z" fill="#4B5ECC"/>
<path id="Vector_15" d="M133.89 127.529C134.154 127.517 134.4 127.53 134.642 127.648C135.021 127.834 135.488 128.23 135.626 128.649C135.758 129.05 135.586 129.631 135.731 130.101C136.197 130.385 136.837 129.947 137.326 130.229L137.404 130.278C137.543 130.361 137.679 130.436 137.799 130.547C138.098 130.823 138.305 131.21 138.313 131.619C138.322 132.057 138.202 132.343 137.901 132.658C137.721 132.847 137.349 133.174 137.09 133.229C136.805 133.288 136.205 133.177 135.872 133.178C135.817 133.215 135.745 133.233 135.708 133.288C135.696 133.307 135.7 133.561 135.699 133.589C135.688 133.983 135.742 134.39 135.588 134.763C135.372 135.285 134.996 135.541 134.496 135.765L134.369 135.765C133.86 135.765 133.523 135.715 133.152 135.339C132.47 134.647 132.887 134.247 132.778 133.449C132.778 133.443 132.738 133.234 132.705 133.207C132.526 133.064 131.986 133.168 131.762 133.146C131.387 133.109 130.988 132.965 130.695 132.724C130.392 132.474 130.151 132.207 130.137 131.801C130.123 131.401 130.237 130.912 130.525 130.619C131.134 129.999 131.946 130.189 132.736 130.214L132.732 128.552C133.064 127.983 133.319 127.823 133.89 127.529Z" fill="#3DE5DD"/>
<path id="Vector_16" d="M22.6291 55.3768C23.4171 55.287 24.1258 55.3273 24.8378 55.709C25.7528 56.1996 26.3513 56.9775 26.6554 57.9674C26.9199 58.8281 26.7393 59.8245 26.3013 60.596C25.7861 61.5036 24.9241 62.0043 23.9426 62.257C23.2163 62.4552 22.4192 62.3591 21.7369 62.0463C20.9284 61.6754 20.2726 60.919 19.9766 60.0861C19.6351 59.1253 19.7064 58.0374 20.1829 57.1351C20.6949 56.1659 21.6253 55.6835 22.6291 55.3768Z" fill="#A18BEC"/>
<path id="Vector_17" d="M23.1535 56.2639C23.6757 56.261 24.1295 56.3526 24.5794 56.6259C25.1875 56.9954 25.6439 57.6248 25.7889 58.3255C25.9205 58.962 25.7632 59.7446 25.4007 60.2821C24.9216 60.9928 24.2298 61.2999 23.4147 61.4542C22.9058 61.4253 22.5128 61.3953 22.058 61.1497C21.4128 60.8011 20.9412 60.1752 20.7716 59.4601C20.6139 58.7948 20.7579 58.0179 21.1359 57.4498C21.6187 56.7241 22.3322 56.4334 23.1535 56.2639Z" fill="#F9FAFD"/>
<path id="Vector_18" d="M143.375 64.8074C144.046 64.774 144.599 64.8811 145.101 65.3586C145.628 65.8604 145.544 66.5108 145.549 67.1796C145.927 67.1644 146.383 67.1449 146.754 67.2293C147.169 67.3239 147.534 67.6234 147.733 67.9945C147.966 68.4305 148.011 68.9575 147.859 69.4271C147.654 70.0625 147.105 70.5258 146.429 70.5781C146.174 70.5979 145.922 70.5516 145.693 70.6765C145.656 70.9801 145.619 71.2899 145.526 71.5826C145.317 72.2464 144.959 72.5536 144.355 72.854C144.18 72.903 143.998 72.928 143.817 72.935C143.35 72.9529 142.955 72.7418 142.621 72.4286C142.089 71.9305 142.101 71.2627 142.07 70.5866L141.158 70.6044C140.816 70.5989 140.543 70.4388 140.315 70.1886C139.959 69.7987 139.789 69.3062 139.82 68.7821C139.847 68.3291 140.079 67.8816 140.428 67.5952C141.027 67.1036 141.327 67.2254 142.049 67.3026C142.235 66.923 141.978 66.3392 142.189 65.8901L142.237 65.7987C142.508 65.2684 142.846 65.0572 143.375 64.8074Z" fill="#1FC728"/>
<path id="Vector_19" d="M105.63 3.19839C106.474 3.13138 107.315 3.24735 108.062 3.66686C108.864 4.1176 109.436 5.00577 109.675 5.87339C109.916 6.75006 109.816 7.88772 109.351 8.66647C108.799 9.59294 107.846 10.1083 106.828 10.3498C105.935 10.5025 105.108 10.3307 104.314 9.9037C103.517 9.47474 102.88 8.61922 102.641 7.75662C102.386 6.83316 102.564 5.82217 103.028 4.99996C103.596 3.99325 104.564 3.51031 105.63 3.19839Z" fill="#A18BEC"/>
<path id="Vector_20" d="M105.78 4.24841C106.345 4.17967 106.841 4.20328 107.362 4.449C107.984 4.74144 108.427 5.37139 108.633 6.0095C108.85 6.6835 108.837 7.4175 108.484 8.04579C108.078 8.77068 107.449 9.16401 106.671 9.39333C106.107 9.45654 105.606 9.40397 105.091 9.15852C104.444 8.85035 103.914 8.24238 103.7 7.55748C103.496 6.90876 103.61 6.08873 103.951 5.5064C104.369 4.79606 105.007 4.44459 105.78 4.24841Z" fill="#F9FAFD"/>
<path id="Vector_21" d="M29.7224 87.2607C29.4359 86.4807 29.5454 85.5069 29.5853 84.6887C29.7651 81.0073 30.503 77.355 31.1089 73.7257C33.7975 76.7625 36.0049 79.9359 37.7158 83.6247L38.67 85.7875C38.9308 86.4462 39.1799 87.4903 39.5961 88.0356L39.6213 97.7987L37.0333 94.481L35.759 92.9697C35.6748 92.8703 35.4339 92.6466 35.4 92.5462C35.3184 92.3031 35.3978 91.905 35.3333 91.6268L35.3412 92.4075L35.2026 92.4397C35.0915 92.3272 34.9427 92.2317 34.9217 92.073C33.8896 91.3225 32.9462 90.2136 32.0283 89.3176C31.355 88.527 30.4682 87.9746 29.7224 87.2607Z" fill="#3DE5DD"/>
<path id="Vector_22" d="M34.9216 92.0729C34.948 88.8294 34.4472 85.5393 33.8218 82.3672C33.6747 81.6213 33.4554 80.889 33.2451 80.1591C33.1488 79.8247 32.9248 79.3388 33.0111 79.0101L33.1561 79.0556C33.5183 79.7361 33.7145 80.5272 33.9238 81.2666C34.7752 84.2727 35.1811 87.4941 35.3051 90.6125L35.3331 91.6267L35.341 92.4074L35.2025 92.4397C35.0914 92.3271 34.9426 92.2316 34.9216 92.0729Z" fill="#3E17E7"/>
<path id="Vector_23" d="M129.813 36.7024C135.505 36.1758 141.57 36.4368 147.142 37.7346C146.424 38.727 145.596 39.6448 144.795 40.5695C141.64 44.207 137.869 47.5115 133.615 49.8019C132.656 50.3183 131.674 50.8165 130.672 51.244C130.036 51.5149 129.075 51.7007 128.534 52.0803C128.334 52.0911 127.933 51.9281 127.728 51.8694L125.622 51.279C123.687 50.8029 121.731 50.5507 119.751 50.3438C120.418 50.0034 120.938 49.4512 121.464 48.9309C122.482 47.9248 123.45 46.8882 124.313 45.743C123.67 45.7529 122.925 45.8348 122.294 45.7379C121.989 45.6911 121.981 45.6963 121.79 45.4499L124.718 45.3613C125.588 44.2675 126.451 43.1468 127.172 41.9469C128.179 40.271 128.983 38.4705 129.813 36.7024Z" fill="#3DE5DD"/>
<path id="Vector_24" d="M124.717 45.3613C128.643 45.1743 132.47 44.605 136.167 43.2199C137.711 42.6413 139.192 41.8987 140.67 41.1697L140.796 41.2863C140.737 41.5587 140.668 41.6268 140.428 41.7721C139.881 42.1027 139.216 42.3591 138.633 42.63C134.839 44.3921 130.772 45.341 126.607 45.6328C125.865 45.6847 125.053 45.7811 124.313 45.7431C123.67 45.7529 122.925 45.8348 122.294 45.7379C121.989 45.6911 121.981 45.6963 121.79 45.4499L124.717 45.3613Z" fill="#3E17E7"/>
<path id="Vector_25" d="M112.669 25.1654C113.467 23.8487 114.199 22.5276 115.094 21.2701C117.811 17.4534 121.288 14.116 125.064 11.3629C125.854 10.7864 126.637 10.1769 127.465 9.65558C128.07 11.6245 128.662 13.5905 129.102 15.6048C130.377 21.4523 130.701 28.1348 128.875 33.8891C128.562 34.8731 128.254 35.9928 127.766 36.9044L127.712 37.0038L129.813 36.7024C128.982 38.4705 128.179 40.271 127.172 41.9469C126.451 43.1468 125.588 44.2675 124.717 45.3613L121.789 45.4499C121.981 45.6963 121.989 45.6911 122.294 45.7379C122.925 45.8348 123.67 45.7529 124.313 45.743C123.45 46.8882 122.481 47.9248 121.464 48.9309C120.937 49.4512 120.418 50.0033 119.751 50.3438L118.53 50.3638L118.539 48.1817L118.471 47.107L118.491 39.6595C118.38 39.3092 118.422 38.9912 118.567 38.6616C118.329 38.294 118.628 32.4998 118.428 31.3256C118.278 30.4491 117.948 29.5962 117.51 28.8242C116.479 27.0045 114.664 25.7266 112.669 25.1654Z" fill="#A18BEC"/>
<path id="Vector_26" d="M118.567 38.6615C120.416 34.6743 122.093 30.7144 123.245 26.4626L123.951 23.6152L124.225 22.1896C124.292 21.7597 124.292 21.1517 124.624 20.8475L124.785 20.9357C124.828 21.6726 124.543 22.5808 124.389 23.3083C123.412 27.9243 121.894 32.2712 119.967 36.5738C119.517 37.5786 119.073 38.7259 118.491 39.6595C118.38 39.3092 118.422 38.9912 118.567 38.6615Z" fill="#3E17E7"/>
<path id="Vector_27" d="M118.553 102.757L120.86 100.423L131.499 89.9659L135.648 85.8263C136.177 85.31 136.737 84.6477 137.348 84.2336C138.142 83.6956 139.101 83.4831 140.047 83.4931C140.454 83.4974 140.81 83.5277 141.206 83.6284C142.878 84.053 144.124 84.8741 145.032 86.3626C145.8 87.6208 146.072 89.3855 145.72 90.8127C145.547 91.5113 145.207 92.2804 144.764 92.8431C143.927 93.9066 142.784 94.9123 141.823 95.876L136.053 101.631L118.453 119.135C117.727 119.703 116.958 120.409 116.367 121.115L105.562 124.099C105.264 124.179 105.144 124.213 104.869 124.053C104.728 123.534 107.312 115.203 107.677 113.951C107.732 113.719 107.787 113.433 107.925 113.233C108.382 112.573 109.23 111.962 109.809 111.379L116.351 104.864C117.153 104.521 118.055 103.459 118.553 102.757Z" fill="#3E17E7"/>
<path id="Vector_28" d="M111.94 117.414L115.296 120.748L106.643 123.085C106.975 122.327 107.948 121.577 108.539 120.995C109.706 119.845 110.95 118.723 111.94 117.414Z" fill="#F9FAFD"/>
<path id="Vector_29" d="M135.612 93.1385L132.492 90.0454L133.948 88.5692C134.043 88.6204 134.014 88.5937 134.083 88.6717L137.101 91.7746L140.995 95.5908L139.595 97.0445L135.612 93.1385Z" fill="#F9FAFD"/>
<path id="Vector_30" d="M106.643 123.085L105.647 123.366L108.36 113.93C109.661 114.9 110.806 116.257 111.941 117.414C110.951 118.723 109.707 119.845 108.54 120.994C107.949 121.577 106.976 122.327 106.643 123.085Z" fill="#F9FAFD"/>
<path id="Vector_31" d="M144.8 87.5348C145.249 88.997 145.3 90.3713 144.581 91.7624C143.923 93.0349 142.475 94.1297 141.445 95.1075L137.822 91.4542C138.464 91.1055 139.023 90.5751 139.603 90.1326C141.198 88.9159 142.823 87.9583 144.8 87.5348Z" fill="#3EAFF7"/>
<path id="Vector_32" d="M137.823 91.4542L134.491 88.094C134.632 87.7999 135.03 87.4849 135.259 87.2471C136.188 86.2869 137.277 84.9889 138.513 84.4474C139.522 84.0053 140.7 84.0816 141.715 84.4719C143.21 85.0473 144.17 86.0855 144.801 87.5348C142.823 87.9583 141.198 88.9159 139.603 90.1326C139.023 90.5751 138.465 91.1055 137.823 91.4542Z" fill="#63D8F6"/>
<path id="Vector_33" d="M111.699 116.207C110.77 115.277 109.725 114.331 108.937 113.283L131.923 90.5502L134.97 93.4518L117.885 110.172L114.061 113.915C113.349 114.625 112.552 115.708 111.699 116.207Z" fill="#63D8F6"/>
<path id="Vector_34" d="M134.969 93.4518L139.135 97.542L122.907 113.623L119.2 117.331C118.16 118.407 117.152 119.58 115.971 120.505L111.699 116.207C112.551 115.708 113.348 114.625 114.061 113.915L117.885 110.172L134.969 93.4518Z" fill="#3EAFF7"/>
<path id="Vector_35" d="M22.7684 103.397C22.6505 103.113 22.2145 102.824 21.9809 102.619L20.0978 100.874C19.1061 99.8964 18.2238 98.8011 17.3742 97.6992C12.9577 91.9701 10.5193 84.7069 8.47021 77.8561C13.1867 78.7592 17.7398 80.163 22.0188 82.3767C24.7494 83.7894 27.2322 85.4709 29.722 87.2607C30.4678 87.9746 31.3546 88.5269 32.0279 89.3176C32.0049 89.7008 32.126 89.9935 32.2137 90.3595L32.6035 92.1565C32.9916 94.2142 33.2335 96.2905 33.3177 98.3823C33.3424 98.9924 33.4201 99.6569 33.3661 100.264L39.6163 105.652L39.6124 106.451L33.2837 100.958C33.2111 102.619 33.0812 104.383 32.4938 105.954C32.2182 106.691 31.7854 107.393 31.3851 108.069C32.9342 108.636 34.4901 109.116 36.1025 109.475C36.8738 109.647 37.7691 109.681 38.5034 109.943L39.6279 109.997L39.6197 110.557L31.507 110.764C32.4034 110.883 33.3314 110.846 34.2347 110.853C34.2715 110.912 34.3303 110.973 34.3295 111.044C35.7241 112.695 37.8348 113.825 39.6205 115.003L39.625 116.127C37.2613 116.607 34.978 116.823 32.5691 116.8C25.8802 116.673 18.9013 114.529 13.3163 110.853C11.999 109.986 10.7849 108.974 9.58822 107.95L22.7684 103.397Z" fill="#A18BEC"/>
<path id="Vector_36" d="M22.8179 103.433L23.1885 103.093C23.4921 103.263 23.7545 103.512 24.0335 103.72L25.809 105.022C27.5915 106.29 29.374 107.214 31.3856 108.069C32.9347 108.636 34.4906 109.116 36.1029 109.475C36.8742 109.647 37.7696 109.681 38.5038 109.943C37.9394 110.148 37.3116 110.146 36.7168 110.182L33.3764 110.261L33.9126 110.154C33.7852 109.882 33.0129 109.474 32.7344 109.335C32.2722 109.105 31.8447 108.89 31.3512 108.73C28.4559 107.271 25.1962 105.667 22.8179 103.433Z" fill="url(#paint0_linear_204_1330)"/>
<path id="Vector_37" d="M31.5071 110.764C26.7759 110.735 21.9102 110.407 17.2695 109.463C16.7686 109.361 15.9578 109.303 15.5469 109.018L15.5835 108.776C15.9304 108.569 16.8023 108.889 17.2121 108.977C22.2062 110.046 27.5655 110.287 32.6607 110.263L33.376 110.261L36.7165 110.182C37.3112 110.146 37.939 110.148 38.5035 109.943L39.628 109.997L39.6198 110.557L31.5071 110.764Z" fill="#3E17E7"/>
<path id="Vector_38" d="M33.2836 100.958L16.4635 86.3824C16.2527 86.1706 16.2108 86.1734 16.2114 85.8762L16.3745 85.7629C16.8584 85.9848 17.3764 86.5136 17.793 86.8668L21.2994 89.9317L28.8364 96.3898L33.366 100.264L39.6162 105.652L39.6123 106.451L33.2836 100.958Z" fill="#3E17E7"/>
<path id="Vector_39" d="M95.5631 13.4527L95.6273 13.1455L95.7576 13.1277L95.9708 13.4159C99.2917 16.6624 102.407 20.675 104.333 24.9235L108.972 24.9367C110.22 24.9354 111.454 24.8409 112.67 25.1654C114.664 25.7266 116.479 27.0045 117.51 28.8242C117.948 29.5962 118.278 30.4491 118.428 31.3256C118.628 32.4997 118.33 38.294 118.567 38.6615C118.422 38.9911 118.38 39.3092 118.491 39.6594L118.471 47.107L118.539 48.1817L118.531 50.3637L119.751 50.3437C121.731 50.5506 123.687 50.8029 125.622 51.2789L127.728 51.8693C127.933 51.928 128.333 52.0911 128.534 52.0802C131.766 53.2504 134.796 54.874 137.627 56.8181L137.657 56.8877C132.189 60.5443 125.108 62.8578 118.511 62.8671L118.536 74.2539L118.533 93.1155L118.51 100.067L118.505 101.753C118.504 102.077 118.466 102.445 118.553 102.757C118.055 103.459 117.154 104.521 116.352 104.864L116.342 33.511C116.339 31.5181 116.001 30.0071 114.539 28.5679C113.778 27.8184 112.701 27.2586 111.632 27.118C110.926 27.0251 110.176 27.0677 109.463 27.0654L105.561 27.0578L92.7127 27.0522L50.3643 27.0664L39.0997 27.1356C40.3689 28.5858 41.3007 30.0317 41.5869 31.9782C41.7484 33.0759 41.6656 34.2677 41.665 35.3753L41.6435 41.4766L41.6872 58.62L41.7408 122.916L41.7395 126.065C41.7397 126.685 41.6793 127.383 41.805 127.992C42.1015 129.431 43.5589 130.688 45.0167 130.791C46.4193 130.89 47.8606 130.826 49.2685 130.831L56.7602 130.868L82.1192 130.903L102.848 130.91L109.629 130.914C110.685 130.913 111.801 130.983 112.851 130.897C113.606 130.835 114.405 130.415 114.967 129.918C115.756 129.219 116.301 128.271 116.361 127.2L116.367 121.115C116.958 120.409 117.727 119.703 118.453 119.135L118.446 124.442C118.446 125.697 118.533 127.017 118.223 128.241C117.951 129.316 117.408 130.303 116.651 131.113C115.651 132.186 114.122 132.937 112.65 132.981L107.512 132.981L98.6587 132.97L70.3383 132.961L52.4902 132.954L47.6036 132.937C46.6618 132.935 45.6565 132.997 44.7229 132.882C43.5197 132.733 42.2705 132.076 41.4112 131.226C40.65 130.473 40.014 129.412 39.7561 128.369C39.5893 127.693 39.6218 126.968 39.6218 126.277L39.6293 123.415L39.6251 116.127L39.6206 115.003C37.8349 113.825 35.7243 112.695 34.3297 111.044C34.3305 110.973 34.2716 110.912 34.2349 110.853C33.3316 110.846 32.4035 110.883 31.5072 110.764L39.6198 110.557L39.628 109.997L38.5035 109.943C37.7693 109.681 36.874 109.647 36.1026 109.475C34.4903 109.116 32.9344 108.635 31.3853 108.069C31.7856 107.393 32.2184 106.691 32.494 105.954C33.0813 104.383 33.2113 102.619 33.2839 100.958L39.6126 106.451L39.6164 105.652L33.3663 100.264C33.4203 99.6569 33.3426 98.9923 33.3179 98.3822C33.2337 96.2905 32.9918 94.2142 32.6037 92.1564L32.2139 90.3595C32.1262 89.9934 32.005 89.7007 32.0281 89.3175C32.946 90.2135 33.8894 91.3224 34.9215 92.0729C34.9425 92.2316 35.0913 92.3271 35.2024 92.4396L35.341 92.4074L35.3331 91.6267C35.3976 91.9049 35.3182 92.303 35.3998 92.5461C35.4337 92.6465 35.6746 92.8702 35.7588 92.9695L37.0331 94.4809L39.6211 97.7986L39.596 88.0355L39.6143 83.2946L39.5945 45.0926L26.0708 45.0821L26.0739 37.0974L26.0737 34.1358C26.0747 33.1872 26.0558 32.2661 26.2977 31.3398C26.7052 29.7784 27.5701 28.3984 28.7104 27.2626C29.88 26.0975 31.6569 25.256 33.2836 25.0112C35.2929 24.7087 37.52 24.8837 39.5516 24.8827L51.4123 24.8977L90.364 24.8993L93.2044 24.8927C93.2097 22.2816 93.7729 19.4766 94.5055 16.9755C94.8469 15.8106 95.2959 14.6332 95.5631 13.4527Z" fill="#4B5ECC"/>
<path id="Vector_40" d="M118.44 56.0831L124.14 56.4237L124.216 56.6066L124.092 56.7822C122.259 56.8835 120.307 56.5803 118.468 56.4769L118.44 56.0831Z" fill="#3E17E7"/>
<path id="Vector_41" d="M95.5628 13.4528L98.3458 24.8989L93.8221 24.9219C92.7034 24.94 91.4754 25.0166 90.3638 24.8994L93.2041 24.8928C93.2095 22.2817 93.7726 19.4767 94.5052 16.9756C94.8466 15.8106 95.2956 14.6332 95.5628 13.4528Z" fill="#3DE5DD"/>
<path id="Vector_42" d="M95.9707 13.4159C99.2916 16.6623 102.407 20.6749 104.333 24.9235L100.322 24.911C99.8136 24.9096 99.1428 24.993 98.6533 24.8696L95.9707 13.4159Z" fill="#3DE5DD"/>
<path id="Vector_43" d="M33.0322 27.3915L33.5402 27.3722C35.2253 27.3511 36.6809 27.8931 37.8871 29.0867C38.572 29.7642 39.0878 30.588 39.3293 31.5277C39.7041 32.9857 39.5212 34.6952 39.5228 36.2052L39.527 42.8799L34.7994 42.8574L28.138 42.8632L28.1449 35.9337C28.1464 34.6877 28.0237 33.2888 28.2556 32.0639C28.3868 31.3711 28.6563 30.6768 29.0461 30.0879C30.0195 28.6168 31.3062 27.7486 33.0322 27.3915Z" fill="#A795F9"/>
<path id="Vector_44" d="M50.3642 27.0665L92.7126 27.0523L105.561 27.058L109.463 27.0655C110.176 27.0678 110.925 27.0252 111.632 27.1181C112.701 27.2587 113.778 27.8185 114.539 28.568C116.001 30.0072 116.339 31.5182 116.342 33.5111L116.352 104.864L109.809 111.379C109.23 111.963 108.383 112.573 107.926 113.234C107.788 113.433 107.732 113.719 107.677 113.951C107.313 115.203 104.728 123.534 104.869 124.053C105.144 124.213 105.264 124.179 105.562 124.099L116.367 121.116L116.361 127.2C116.301 128.271 115.756 129.219 114.967 129.918C114.405 130.415 113.606 130.836 112.851 130.897C111.8 130.984 110.685 130.914 109.629 130.914L102.848 130.911L82.1191 130.903L56.7601 130.868L49.2684 130.831C47.8605 130.826 46.4191 130.89 45.0166 130.791C43.5588 130.688 42.1014 129.431 41.8048 127.992C41.6792 127.383 41.7395 126.685 41.7394 126.065L41.7407 122.916L41.6871 58.6202L41.6434 41.4767L41.6649 35.3754C41.6655 34.2678 41.7482 33.0761 41.5868 31.9783C41.3006 30.0318 40.3688 28.5859 39.0996 27.1357L50.3642 27.0665Z" fill="#F9FAFD"/>
<path id="Vector_45" d="M70.4381 39.9156L86.7301 39.9432L91.3653 39.9497C92.1145 39.9506 92.9193 39.8868 93.6595 39.9713C94.081 40.0192 94.4627 40.2573 94.7654 40.5429C95.1546 40.91 95.3152 41.3309 95.3195 41.859C95.3242 42.4052 95.1392 42.9211 94.7351 43.3022C94.499 43.5247 94.1804 43.7241 93.8628 43.8012C93.2832 43.9416 92.5022 43.851 91.8962 43.8532L87.3719 43.864L71.4161 43.8531L66.5719 43.8468C65.8143 43.8457 64.972 43.9165 64.2229 43.8182C63.8922 43.7749 63.5088 43.557 63.2611 43.3415C62.8831 43.0127 62.6172 42.4835 62.5836 41.9832C62.5478 41.4512 62.724 40.924 63.0941 40.5365C63.3201 40.2999 63.6694 40.0793 63.9899 40.0024C64.6338 39.8477 65.4674 39.9364 66.1392 39.933L70.4381 39.9156Z" fill="#3762CC"/>
<path id="Vector_46" d="M53.5364 77.4417C52.9231 77.4425 51.1306 77.6107 50.6789 77.2264L50.6171 77.1679C50.3074 76.8806 50.1982 76.621 50.18 76.1977C50.1659 75.876 50.2351 75.6499 50.4562 75.4122C50.6402 75.2143 50.8363 75.1075 51.0979 75.0461C51.8432 74.871 52.8881 75.0242 53.6643 75.0287L58.8905 75.015L91.8688 75.0217L102.357 75.0241L107.691 75.0333C107.945 75.0433 108.155 75.1678 108.336 75.3391C108.627 75.6145 108.727 75.8639 108.719 76.2607C108.712 76.6142 108.576 76.9064 108.296 77.1301C108.069 77.3102 107.813 77.3527 107.53 77.3598L100.014 77.3712L85.9638 77.3777L53.5364 77.4417Z" fill="#4B5ECC"/>
<path id="Vector_47" d="M53.5225 64.7156L90.4868 64.7412L101.826 64.7401C103.673 64.7383 105.605 64.6176 107.44 64.7501C107.851 64.7798 108.127 64.8612 108.413 65.1659C108.673 65.4434 108.743 65.7398 108.705 66.1154C108.673 66.4342 108.468 66.6993 108.215 66.8846C108 67.0428 107.754 67.1101 107.489 67.122L101.045 67.1231L88.4953 67.1196L53.5278 67.1251C52.8053 67.126 51.1427 67.3146 50.6068 66.8062C50.3527 66.5653 50.2282 66.2862 50.2238 65.9372C50.2191 65.5658 50.3051 65.3087 50.5741 65.0456C51.1506 64.4814 52.7534 64.7132 53.5225 64.7156Z" fill="#4B5ECC"/>
<path id="Vector_48" d="M53.5249 54.4148L90.4882 54.4258L101.906 54.4179L105.489 54.4167C106.119 54.4172 106.781 54.3764 107.407 54.4272C107.776 54.4572 108.038 54.5632 108.294 54.8362C108.525 55.0818 108.694 55.4142 108.666 55.7599C108.64 56.0863 108.471 56.4005 108.217 56.6053C107.983 56.7947 107.737 56.8472 107.442 56.8665C105.477 56.996 103.426 56.8791 101.454 56.8784L89.3456 56.873L53.4862 56.8691C52.715 56.8763 51.2395 57.0949 50.6162 56.5753C50.3564 56.3588 50.2003 56.0697 50.1751 55.733C50.1477 55.3637 50.2727 55.0565 50.5276 54.7897C51.1103 54.18 52.7347 54.412 53.5249 54.4148Z" fill="#4B5ECC"/>
<path id="Vector_49" d="M53.5188 85.1984L90.0018 85.2005L101.653 85.2026C103.593 85.2019 105.603 85.0936 107.538 85.2137C107.908 85.2368 108.21 85.3514 108.463 85.6343C108.714 85.9144 108.756 86.2405 108.713 86.6019C108.673 86.9404 108.453 87.2419 108.179 87.4377C107.93 87.6157 107.674 87.6243 107.376 87.6364L100.65 87.6591L87.5346 87.6482L53.4738 87.6836C52.7948 87.689 51.2864 87.8905 50.7556 87.4346C50.4571 87.1781 50.2639 86.8701 50.2443 86.4724C50.2262 86.1052 50.3252 85.8191 50.5882 85.5536C51.152 84.9845 52.7652 85.1989 53.5188 85.1984Z" fill="#4B5ECC"/>
<path id="Vector_50" d="M116.367 121.116L116.361 127.2C116.301 128.271 115.756 129.219 114.967 129.918C114.405 130.415 113.606 130.836 112.851 130.897C111.8 130.984 110.685 130.914 109.629 130.914L102.848 130.91L82.1191 130.903L56.7601 130.868L49.2684 130.831C47.8605 130.826 46.4191 130.89 45.0166 130.791C43.5588 130.688 42.1014 129.431 41.8048 127.992C41.6792 127.383 41.7395 126.685 41.7394 126.065L41.7407 122.916L41.6871 58.6201L41.6434 41.4766L41.6649 35.3753C41.6655 34.2678 41.7482 33.076 41.5868 31.9783C41.3006 30.0318 40.3688 28.5859 39.0996 27.1357L50.3642 27.0665L49.591 27.1756C49.9079 27.4401 50.2808 27.6435 50.6115 27.8944C51.5435 28.6012 52.414 29.4571 52.9202 30.5219L52.982 30.6498C53.1586 31.0228 53.2502 31.3974 53.3611 31.7923C53.6593 32.8533 53.5495 34.068 53.5498 35.1631L53.5448 39.6976L53.525 54.4148C52.7348 54.4121 51.1103 54.18 50.5277 54.7897C50.2727 55.0565 50.1477 55.3637 50.1752 55.733C50.2003 56.0697 50.3564 56.3589 50.6162 56.5753C51.2395 57.0949 52.7151 56.8764 53.4862 56.8691L53.5225 64.7156C52.7535 64.7132 51.1506 64.4815 50.5741 65.0456C50.3051 65.3088 50.2192 65.5658 50.2239 65.9372C50.2282 66.2862 50.3527 66.5653 50.6069 66.8063C51.1427 67.3146 52.8054 67.1261 53.5279 67.1251L53.528 74.9552L57.2253 74.9587C57.7249 74.9616 58.4116 74.8918 58.8907 75.015L53.6644 75.0287C52.8883 75.0242 51.8434 74.871 51.0981 75.0461C50.8365 75.1076 50.6404 75.2143 50.4564 75.4122C50.2353 75.6499 50.1661 75.876 50.1802 76.1977C50.1984 76.621 50.3076 76.8807 50.6173 77.1679L50.6791 77.2264C51.1308 77.6107 52.9233 77.4425 53.5366 77.4417L53.5187 85.1984C52.7651 85.1989 51.1519 84.9846 50.5882 85.5537C50.3251 85.8191 50.2261 86.1052 50.2442 86.4724C50.2638 86.8701 50.457 87.1781 50.7555 87.4347C51.2863 87.8906 52.7947 87.689 53.4737 87.6837L53.5042 95.1012L81.6888 95.0974L88.0561 95.1009L89.709 95.0994C90.0527 95.0993 90.4183 95.0608 90.7452 95.177C91.1277 95.3773 91.5353 95.6469 91.6571 96.0896C91.7456 96.4117 91.6848 96.7608 91.5045 97.0379C91.3091 97.3381 91.0451 97.5146 90.691 97.5784C90.1815 97.6703 89.5682 97.6079 89.0494 97.6094L85.4792 97.6152L72.2161 97.6286L72.15 97.6413C71.5238 97.75 70.8147 97.6908 70.178 97.6919L66.6049 97.6952L53.5303 97.7005L53.5308 102.368C53.5312 103.017 53.4443 103.814 53.559 104.446C56.2547 103.037 58.9017 102.602 61.8495 103.526C64.4362 104.336 66.3601 106.123 67.5826 108.515C68.4596 110.232 68.6542 112.058 68.637 113.953L107.677 113.951C107.313 115.203 104.728 123.534 104.869 124.053C105.144 124.213 105.264 124.179 105.562 124.099L116.367 121.116Z" fill="#BECBFB"/>
<path id="Vector_51" d="M72.2162 97.6286C70.4491 97.497 68.5861 97.6152 66.8088 97.6148L56.0705 97.6198C54.5115 97.6254 52.8584 97.7607 51.3116 97.6288C51.0719 97.6083 50.9111 97.5817 50.7236 97.4203C50.4459 97.181 50.2412 96.8525 50.2195 96.4795C50.1966 96.0876 50.264 95.8173 50.5425 95.5372C50.7429 95.3354 50.9887 95.198 51.2738 95.1674C52.4291 95.0435 53.6965 95.1759 54.867 95.1764L63.2186 95.1726L90.7453 95.1771C91.1278 95.3774 91.5355 95.647 91.6572 96.0897C91.7458 96.4117 91.685 96.7609 91.5047 97.0379C91.3092 97.3382 91.0452 97.5146 90.6911 97.5785C90.1817 97.6704 89.5684 97.608 89.0496 97.6094L85.4793 97.6152L72.2162 97.6286Z" fill="#4B5ECC"/>
<path id="Vector_52" d="M53.5592 104.446C56.2549 103.037 58.9019 102.602 61.8497 103.526C64.4364 104.336 66.3603 106.123 67.5828 108.515C68.4598 110.232 68.6544 112.058 68.6372 113.953L68.5403 114.689C68.1845 117.19 66.5739 119.572 64.5905 121.065C62.6183 122.55 59.9405 123.412 57.4637 123.044L56.6074 122.91C54.0394 122.391 51.7774 120.779 50.3423 118.604C48.8317 116.315 48.3681 113.707 48.928 111.028C49.5151 108.219 51.1834 106.006 53.5592 104.446Z" fill="#3762CC"/>
<path id="Vector_53" d="M63.3366 109.179C63.5727 109.154 63.8409 109.25 64.0341 109.384C64.2683 109.545 64.3897 109.771 64.4216 110.053C64.4444 110.252 64.4037 110.54 64.2968 110.711C64.1462 110.951 63.8853 111.171 63.6896 111.376L62.6413 112.524L58.9546 116.72C58.7093 117 58.3784 117.274 57.9897 117.285C57.2923 117.304 56.6419 116.309 56.195 115.841L54.8605 114.501C54.4928 114.149 53.8323 113.593 53.7243 113.083C53.6762 112.856 53.7376 112.594 53.8702 112.404C54.0732 112.114 54.3622 111.94 54.7181 111.93C54.9171 111.924 55.0731 111.981 55.2406 112.083C55.6109 112.31 55.9246 112.688 56.2264 112.998L57.8893 114.736C59.0997 113.652 60.1562 112.257 61.2247 111.026C61.6896 110.49 62.1552 109.867 62.7262 109.443C62.9183 109.3 63.106 109.232 63.3366 109.179Z" fill="#F9FAFD"/>
</g>
<defs>
<linearGradient id="paint0_linear_204_1330" x1="30.7807" y1="104.959" x2="29.8396" y2="109.169" gradientUnits="userSpaceOnUse">
<stop stop-color="#6F5EF7"/>
<stop offset="1" stop-color="#5725FF"/>
</linearGradient>
</defs>
</svg>
