<svg width="159" height="141" viewBox="0 0 159 141" fill="none" xmlns="http://www.w3.org/2000/svg">
<g id="Group 26">
<path id="Vector" d="M14.9433 41.1648C14.4761 41.6764 14.0367 42.1578 13.4649 42.5543C12.9458 42.1276 12.5264 41.6047 12.0608 41.1234C11.5719 40.6183 10.7189 40.0124 10.5645 39.3228C10.836 38.7707 11.6225 38.3119 12.0822 37.8821C12.5664 37.4295 12.96 36.7704 13.5706 36.4953C13.9264 36.581 14.2595 37.0958 14.4955 37.3704L14.571 37.4736C14.923 37.9468 15.3431 38.3388 15.766 38.7461C16.0035 38.9747 16.2853 39.1838 16.3954 39.5029C16.1741 40.2865 15.3829 40.5429 14.9433 41.1648Z" fill="#A18BEC"/>
<path id="Vector_2" d="M9.88183 57.2239C10.3512 57.2577 10.7445 57.342 11.157 57.5784C11.7455 57.9158 12.2678 58.5482 12.4452 59.2011L12.4727 59.3095L12.5204 59.4988C12.6416 60.1257 12.5037 60.7939 12.1301 61.3131C11.5946 62.0569 10.8758 62.3896 9.99815 62.5479C9.4279 62.5333 8.85026 62.4881 8.35059 62.18C7.79709 61.8385 7.44327 61.2403 7.30858 60.6137C7.14761 59.8647 7.27419 59.0113 7.7211 58.3732C8.24274 57.6285 9.02078 57.3566 9.88183 57.2239Z" fill="#A18BEC"/>
<path id="Vector_3" d="M9.64636 58.648L9.7589 58.657C9.99892 58.6743 10.2897 58.6707 10.5119 58.7735C10.7588 58.888 11.0519 59.2098 11.1419 59.4689C11.2446 59.7637 11.2314 60.2437 11.087 60.525C10.8852 60.9184 10.495 61.1093 10.103 61.2569L9.57703 61.2101C9.2279 61.1446 8.92161 60.8975 8.74552 60.5925C8.56635 60.2822 8.53862 59.8683 8.65945 59.5346C8.83771 59.042 9.18774 58.8454 9.64636 58.648Z" fill="#FBA9F8"/>
<path id="Vector_4" d="M109.805 0.046002C110.294 -0.00837634 110.95 -0.0524913 111.404 0.146296L111.524 0.202474C112.232 0.521001 112.802 1.08063 113.09 1.81348C113.375 2.54002 113.346 3.32851 113.004 4.03092C112.603 4.85596 111.904 5.29783 111.07 5.60087C110.348 5.6214 109.772 5.59889 109.105 5.27928C108.475 4.9775 107.966 4.34801 107.759 3.68539C107.543 2.99179 107.6 2.25012 107.918 1.60011C108.34 0.740676 108.917 0.343642 109.805 0.046002Z" fill="#A18BEC"/>
<path id="Vector_5" d="M110.234 1.64598C110.484 1.63752 110.722 1.63374 110.956 1.73565C111.197 1.84081 111.444 2.04662 111.531 2.3023C111.65 2.65144 111.602 3.24564 111.389 3.55769C111.197 3.84002 110.946 3.94806 110.623 4.00478L110.173 3.98749C109.863 3.93996 109.584 3.7246 109.424 3.46315C109.237 3.15831 109.14 2.79225 109.263 2.43573C109.418 1.98882 109.838 1.82172 110.234 1.64598Z" fill="#FEFEFE"/>
<path id="Vector_6" d="M55.7969 0.508301C56.6186 0.545753 57.3771 0.646408 58.089 1.1079C58.924 1.64917 59.6213 2.62509 59.809 3.61057C60.0097 4.66482 59.7267 5.7198 59.1172 6.58877C58.4477 7.54309 57.6295 7.86144 56.5292 8.04168C55.5361 8.03574 54.6475 7.94355 53.8045 7.35295C52.9748 6.77189 52.3948 5.88869 52.241 4.87981C52.0872 3.86985 52.317 2.80444 52.9368 1.98912C53.6628 1.03408 54.6347 0.634703 55.7969 0.508301Z" fill="#A18BEC"/>
<path id="Vector_7" d="M55.5747 2.374C55.9123 2.35455 56.2355 2.35293 56.56 2.46259C57.1241 2.65309 57.5734 3.03212 57.8172 3.58077C58.0003 3.99292 58.0401 4.49241 57.8699 4.91466C57.5998 5.58466 57.1247 5.96873 56.4721 6.23414C56.1795 6.25647 55.8189 6.28636 55.5365 6.20173C54.9794 6.03481 54.4824 5.53784 54.2291 5.02557C54.0035 4.56912 54.0193 4.08169 54.188 3.60669C54.4102 2.9817 55.0001 2.62374 55.5747 2.374Z" fill="#FEFEFE"/>
<path id="Vector_8" d="M146.572 118.662L147.965 118.22L144.317 129.192C142.305 128.249 139.779 127.612 137.573 128.185L136.094 128.559L136.093 121.155C139.512 119.905 143.02 119.367 146.572 118.662Z" fill="#70B955"/>
<path id="Vector_9" d="M138.676 15.1044C139.693 13.2098 140.939 11.9501 143.022 11.2999C144.086 10.968 145.237 10.9048 146.325 11.1441L146.478 11.1764C148.142 11.5415 149.767 12.7604 150.676 14.1911C151.059 14.7934 151.314 15.4417 151.503 16.1268L151.546 16.2737C151.999 17.9222 151.664 19.8666 150.796 21.323L150.136 22.3414C149.06 23.5514 147.871 24.3073 146.287 24.6804C144.562 25.0866 142.689 24.7944 141.187 23.8402C139.798 22.9585 138.514 21.1724 138.171 19.5571L138.141 19.4129C137.813 17.922 138.084 16.4959 138.676 15.1044Z" fill="#F8AD6D"/>
<path id="Vector_10" d="M144.762 13.9628C144.984 13.9542 145.258 13.9243 145.461 14.0323C145.935 14.2846 146.17 15.0351 146.343 15.4979C146.425 15.715 146.521 16.0825 146.648 16.2673C146.775 16.452 148.083 16.6832 148.341 16.8139C148.663 16.9765 148.911 17.261 149.005 17.6116C149.079 17.891 149.039 18.1312 148.893 18.3776C148.513 19.0173 147.411 19.1767 146.737 19.3045C146.475 19.6371 146.372 20.2266 146.223 20.629C146.042 21.1197 145.911 21.3938 145.425 21.6194L145.11 21.6882C144.999 21.6955 144.852 21.6757 144.747 21.6453C143.655 21.3291 144.026 20.0019 143.441 19.4129C143.263 19.2332 142.833 19.1947 142.584 19.1455C142.161 19.0618 141.664 18.867 141.378 18.5304C141.176 18.2922 141.075 18.0227 141.127 17.7083C141.303 16.6457 142.633 16.7633 143.257 16.307C143.559 16.0859 143.623 15.9313 143.69 15.5744C143.732 15.3578 143.768 15.1494 143.84 14.94C144.027 14.3928 144.249 14.2205 144.762 13.9628Z" fill="#FEFEFE"/>
<path id="Vector_11" d="M136.094 128.559L137.573 128.185C139.779 127.612 142.305 128.249 144.317 129.192C146.462 129.859 148.482 131.697 150.18 133.141C150.714 133.596 151.321 134.025 151.776 134.557C151.647 134.672 151.535 134.771 151.381 134.85C150.339 135.724 149.19 136.49 148.087 137.284C146.797 138.212 145.519 139.202 144.091 139.913C143.288 140.312 142.455 140.568 141.611 140.863C139.712 141.041 137.74 140.949 135.831 140.949C134.878 140.949 133.617 141.094 132.709 140.845C133.428 140.438 134.143 140.038 134.721 139.437C136.313 137.775 136.158 136.035 136.135 133.906L136.094 128.559Z" fill="#98DD8D"/>
<path id="Vector_12" d="M22.803 126.145L22.7947 133.143C22.7851 135.512 22.581 137.758 24.4361 139.589C25.1041 140.249 25.79 140.591 26.6561 140.914C25.6874 141.09 24.4448 140.941 23.4442 140.937L19.5558 140.918C18.7593 140.913 17.921 140.968 17.1419 140.795C13.9553 139.398 11.246 136.974 8.48689 134.9C8.31943 134.786 8.17268 134.665 8.02197 134.53L8.05402 134.44C8.23102 134.07 8.69558 133.7 8.99664 133.407C10.4485 131.998 12.1412 130.707 13.8457 129.621C14.5124 129.196 15.172 128.753 15.9106 128.462C16.5451 128.32 17.2285 127.869 17.8311 127.596C19.4227 126.876 21.062 126.336 22.803 126.145Z" fill="#98DD8D"/>
<path id="Vector_13" d="M44.079 17.2972C50.3869 17.713 56.6928 16.5997 62.2059 13.382L69.7046 8.56395C75.7029 5.07149 82.6878 3.93314 89.438 5.71016C92.3259 6.47038 95.0382 7.68615 97.6253 9.16805C101.374 11.3151 105.021 14.0185 109.284 15.0744C113.083 16.015 116.749 15.5642 120.59 15.3373C124.042 15.1335 127.532 15.2505 130.88 16.1893C133.003 16.7846 134.881 17.646 136.916 18.4487C136.323 19.8402 136.053 21.2663 136.38 22.7572L136.41 22.9015C136.753 24.5168 138.038 26.3028 139.427 27.1846C140.929 28.1387 142.801 28.4309 144.527 28.0247C146.111 27.6516 147.3 26.8957 148.376 25.6857L148.397 25.7563C148.567 26.2823 148.904 26.7701 149.19 27.2406L151.213 30.3747C153.562 34.28 155.426 38.5984 156.409 43.0591C156.862 45.1181 157.222 47.1817 157.366 49.2877C157.73 54.6082 156.959 59.8805 155.466 64.982L152.887 73.0644C151.835 76.6562 151.042 80.2918 150.495 83.9933C149.966 87.5683 149.914 91.0901 149.776 94.6879C149.616 98.8698 149.386 103.028 148.826 107.179C148.589 108.942 148.234 110.718 147.814 112.447C147.458 113.915 147.068 115.364 146.811 116.854C146.708 117.451 146.568 118.054 146.572 118.662C143.02 119.367 139.512 119.905 136.093 121.155L136.075 116.82C136.039 87.979 136.268 60.2956 136.21 32.3753L136.198 29.5576C136.192 29.0282 136.221 28.4549 136.121 27.934C135.95 27.0349 135.512 26.2133 134.856 25.5795C134.193 24.9394 133.355 24.536 132.436 24.4394C131.294 24.3196 130.027 24.4181 128.872 24.4176L121.404 24.4192L97.0986 24.4249L53.9201 24.4253L29.2809 24.4954C27.5615 24.5413 25.7712 25.5728 24.6165 26.8124C23.6501 27.8497 23.0856 29.2378 22.9419 30.6352C22.8295 31.7275 22.8983 32.8792 22.8989 33.9779L22.9059 39.8749L22.9009 58.3061L22.8522 99.3376L22.8139 122.101L22.8029 126.145C21.0619 126.336 19.4226 126.876 17.8311 127.596C17.2284 127.869 16.5451 128.32 15.9105 128.462C14.4461 126.51 13.4496 124.434 13.1628 121.997C13.082 121.31 12.9168 119.857 13.3403 119.317C13.3414 119.211 13.374 119.102 13.344 119.001C13.3076 118.879 12.919 118.537 12.8025 118.409L11.0835 116.5L9.20904 114.201C8.23923 112.907 7.35819 111.505 6.5418 110.11C1.65123 101.749 0.510992 91.4239 4.0985 82.3521C5.14917 79.6953 6.60518 77.2351 8.23689 74.8981L12.8938 68.8828C14.933 66.1473 16.723 63.0013 17.5808 59.681C18.3642 56.6486 18.3723 53.5802 17.5464 50.5577L15.6498 44.5446C15.4795 43.9219 15.3041 43.287 15.195 42.6505C15.1141 42.1791 15.1871 41.5797 14.9434 41.1648C15.383 40.5429 16.1741 40.2865 16.3954 39.5029C16.2854 39.1838 16.0036 38.9748 15.7661 38.7461C15.3432 38.3388 14.9231 37.9468 14.5711 37.4736L14.4956 37.3704C14.6751 37.0632 14.6031 36.6513 14.5941 36.3048L14.5369 33.8902C14.5631 32.7288 14.61 31.5708 14.7351 30.4154C15.1184 26.8722 16.1896 23.4069 18.1728 20.4267C21.2506 15.8013 36.5273 16.7987 44.079 17.2972Z" fill="#E1EAF8"/>
<path id="Vector_14" d="M14.3828 87.7718L14.4946 87.6691C14.7202 87.8794 14.9671 88.062 14.9956 88.3894C15.0274 88.7576 15.0326 89.3014 14.7734 89.588C14.5733 89.5821 14.6079 89.6104 14.4332 89.4697L14.3828 87.7718Z" fill="#D7D2F0"/>
<path id="Vector_15" d="M9.82178 92.2068C10.4869 92.3436 11.1011 92.3182 11.7697 92.2142C11.8991 92.3683 11.8597 92.2804 11.8892 92.4772L11.7771 92.7077C11.599 92.8143 11.4412 92.8746 11.2374 92.9213C10.849 93.0104 10.5249 92.985 10.1941 92.7479C9.93864 92.5646 9.86517 92.5169 9.82178 92.2068Z" fill="#D7D2F0"/>
<path id="Vector_16" d="M83.1394 16.4417C83.4864 16.7126 83.8516 16.8729 84.2644 17.0218C84.4657 17.0946 84.8152 17.1801 84.9654 17.3225C85.1181 17.4673 85.1979 17.8101 85.2629 18.008C84.6084 17.8164 83.6486 17.553 83.1841 17.051C83.1198 16.8009 83.0593 16.6914 83.1394 16.4417Z" fill="#D7D2F0"/>
<path id="Vector_17" d="M17.4869 90.952C17.6616 91.2334 17.6688 91.539 17.596 91.8586C17.4943 92.3057 17.3218 92.5138 16.9217 92.7457C16.6039 92.9297 16.3131 92.9591 15.9564 93.0138C15.6633 93.0587 15.3988 93.077 15.1015 93.07L15.0115 92.98L14.9207 93.0306C14.9292 93.6538 15.0968 94.6095 14.737 95.1366C14.3863 95.3798 13.93 95.6577 13.4809 95.5691C13.1046 95.4947 12.6768 95.259 12.4348 94.9616L12.3716 94.614C12.6066 94.6963 13.0257 94.7811 13.2146 94.9264C13.3671 95.037 13.4311 95.0811 13.6318 95.0752C13.9648 95.0654 14.3757 94.8681 14.5925 94.6151C14.9679 94.1769 14.7667 93.3059 14.7325 92.761C15.4004 92.6233 16.6966 92.8766 17.1722 92.3566C17.5539 91.9394 17.4669 91.4812 17.4869 90.952Z" fill="#D7D2F0"/>
<path id="Vector_18" d="M17.1528 90.5301C17.2203 90.6153 17.3381 90.7391 17.3865 90.834L17.4867 90.952C17.4667 91.4812 17.5536 91.9394 17.1719 92.3566C16.6964 92.8766 15.4001 92.6233 14.7323 92.761C14.7665 93.3059 14.9676 94.1769 14.5922 94.6151C14.3754 94.8681 13.9645 95.0655 13.6316 95.0752C13.4308 95.0811 13.3669 95.037 13.2144 94.9265C13.4591 94.8145 13.7214 94.7039 13.9308 94.5316C14.5261 94.0416 14.3763 92.8183 14.3822 92.111C14.7532 92.1285 15.1183 92.1299 15.4781 92.2301C15.9014 92.1714 16.3894 92.1344 16.7218 91.8323C17.1242 91.4666 17.1278 91.0323 17.1528 90.5301Z" fill="#D0C2E7"/>
<path id="Vector_19" d="M148.069 66.9432C148.315 67.0223 148.32 67.1073 148.452 67.3223C148.482 67.8288 148.561 68.3688 148.19 68.7813C147.898 69.107 147.486 69.3317 147.041 69.3076C146.7 69.2892 146.392 69.1836 146.064 69.1193L145.977 69.114L145.957 69.2044L145.826 70.8718C145.571 71.0508 145.465 71.0454 145.162 71.0792L145.097 70.4218C145.322 69.8361 145.16 69.2233 145.314 68.6214C145.756 68.417 146.684 68.5316 147.195 68.5307L147.198 68.5101C147.325 68.4359 147.437 68.3567 147.546 68.2579C148.036 67.8137 148.045 67.5666 148.069 66.9432Z" fill="#D7D2F0"/>
<path id="Vector_20" d="M145.313 68.6214C145.756 68.4171 146.684 68.5316 147.194 68.5307L147.121 68.683L145.975 68.9859L145.759 69.0223C145.644 69.1609 145.683 69.0898 145.617 69.2846L145.568 69.4337L145.51 69.393L145.419 69.476L145.34 69.4697L145.313 68.6214Z" fill="#D0C2E7"/>
<path id="Vector_21" d="M90.5457 15.8206C90.7279 16.1877 90.6987 16.5075 90.6895 16.9052C90.1742 17.7065 88.9055 17.5317 88.4049 18.1941C87.9357 18.8151 88.1136 19.9854 87.1254 20.1499C86.7507 20.2124 86.6337 20.1494 86.3151 19.9762L86.186 19.7412C86.2854 19.5676 86.2183 19.62 86.3602 19.5545C86.5272 19.5683 86.7003 19.5761 86.8559 19.5008C87.4076 19.234 87.7047 18.5771 87.8854 18.0306C88.3149 16.732 89.1983 17.1607 90.0881 16.4776C90.2988 16.3159 90.422 16.0498 90.5457 15.8206Z" fill="#D7D2F0"/>
<path id="Vector_22" d="M83.1392 16.4416L83.0861 16.3458C83.0098 16.2293 82.9077 16.1378 82.8526 16.0049C82.755 15.7696 82.7827 15.4649 82.8708 15.2318C83.2251 14.2945 84.4422 14.5335 84.991 13.8802C85.511 13.2612 85.3538 12.1133 86.2221 11.7497C86.4511 11.6538 86.7196 11.6671 86.9452 11.7686C87.6269 12.0755 87.7176 13.0112 87.9805 13.6191C88.2567 14.2583 88.9051 14.2848 89.466 14.5346C90.03 14.7857 90.3165 15.2764 90.5455 15.8206C90.4218 16.0498 90.2986 16.3159 90.088 16.4776C89.1981 17.1607 88.3147 16.732 87.8853 18.0306C87.7045 18.5771 87.4074 19.234 86.8557 19.5008C86.7001 19.5761 86.5271 19.5683 86.36 19.5545C85.829 19.1209 85.5573 18.6122 85.2627 18.0079C85.1977 17.81 85.1179 17.4672 84.9652 17.3224C84.8151 17.18 84.4656 17.0945 84.2643 17.0217C83.8514 16.8728 83.4862 16.7126 83.1392 16.4416Z" fill="#FEFEFE"/>
<path id="Vector_23" d="M9.82219 92.2068C9.82669 92.165 9.18549 91.4678 9.14426 91.1352C9.09816 90.7654 9.25481 90.3329 9.506 90.063C10.0622 89.465 11.1534 89.635 11.9048 89.6361C11.9006 89.0748 11.8758 88.4909 11.9948 87.9392C12.071 87.5859 12.304 87.2371 12.6407 87.0792C12.9108 86.9523 13.3631 86.9661 13.6449 87.052C14.005 87.162 14.2014 87.4653 14.3829 87.7717L14.4334 89.4697C14.608 89.6103 14.5734 89.582 14.7735 89.588C15.3765 89.5977 16.1311 89.5016 16.609 89.942C16.7596 90.0806 16.9719 90.4935 17.1528 90.5301C17.1278 91.0323 17.1242 91.4666 16.7217 91.8323C16.3894 92.1344 15.9014 92.1713 15.4781 92.23C15.1183 92.1299 14.7531 92.1285 14.3822 92.111C14.3763 92.8183 14.5261 94.0416 13.9308 94.5316C13.7214 94.7039 13.459 94.8144 13.2143 94.9264C13.0255 94.7811 12.6063 94.6963 12.3713 94.614C12.3769 94.4422 11.9591 94.0661 11.9143 93.8376C11.8347 93.4323 11.8922 92.8961 11.8896 92.4772C11.8601 92.2804 11.8995 92.3683 11.7701 92.2142C11.1015 92.3182 10.4873 92.3436 9.82219 92.2068Z" fill="#FEFEFE"/>
<path id="Vector_24" d="M13.3404 119.317C15.6234 119.766 17.8436 120.145 20.0515 120.924C20.9997 121.258 21.8785 121.759 22.814 122.101L22.803 126.145C21.062 126.336 19.4227 126.875 17.8311 127.596C17.2285 127.869 16.5451 128.32 15.9106 128.462C14.4462 126.51 13.4497 124.434 13.1629 121.997C13.082 121.31 12.9169 119.857 13.3404 119.317Z" fill="#70B955"/>
<rect id="Rectangle 12" x="26" y="20" width="113.438" height="116.499" rx="5" fill="#3C23A0"/>
<rect id="Rectangle 11" x="22.707" y="24.3082" width="113.438" height="116.499" rx="5" fill="#A18BEC"/>
<path id="Vector_25" d="M141.25 68.5033C141.029 68.4251 140.829 68.3266 140.657 68.166C140.353 67.8817 140.184 67.5225 140.211 67.0972C140.232 66.7687 140.362 66.4745 140.623 66.2683C141.183 65.825 142.084 66.0218 142.748 66.1007C142.74 65.433 142.587 64.3066 142.996 63.7344C143.178 63.4796 143.487 63.2648 143.799 63.2188C144.351 63.1378 144.673 63.3449 145.106 63.6486C145.13 63.8118 145.129 64.1101 145.233 64.2317L145.473 64.3404C145.654 64.8671 145.725 65.4444 145.678 65.9988C146.248 65.9992 147.134 65.8528 147.562 66.3C147.731 66.4767 147.857 66.705 147.982 66.9137L148.068 66.9432C148.044 67.5666 148.036 67.8136 147.546 68.2578C147.437 68.3567 147.325 68.4359 147.198 68.5101L147.194 68.5306C146.684 68.5315 145.755 68.417 145.313 68.6214C145.16 69.2233 145.321 69.8361 145.097 70.4218L144.878 70.6843L144.304 70.9056C143.998 70.899 143.675 70.917 143.394 70.7808C142.468 70.3316 143.001 69.4135 142.744 68.6711L142.704 68.5643L141.25 68.5033Z" fill="#FEFEFE"/>
<path id="Vector_26" d="M145.233 64.2317L145.474 64.3404C145.654 64.8671 145.726 65.4444 145.679 65.9988C145.465 66.0109 145.458 66.0339 145.257 65.9268L145.233 64.2317Z" fill="#D0C2E7"/>
<path id="Vector_27" d="M25.9512 46.8362L25.9209 37.1918L25.8991 34.1794C25.8963 33.5981 25.8466 32.9616 25.9429 32.3881C26.0119 31.9778 26.1804 31.7037 26.4703 31.41C26.7564 31.1201 27.1137 30.9289 27.5253 30.9068C28.7619 30.8401 30.0326 30.8999 31.2729 30.9008L38.2648 30.9059L59.6373 30.9024L107.938 30.9064L133.243 30.9077L133.242 46.852L127.453 46.8247C126.551 46.823 125.566 46.7449 124.674 46.8565C123.786 46.9586 122.748 46.8574 121.846 46.856L115.71 46.8495L95.1926 46.8509L25.9512 46.8362Z" fill="#4B5ECC"/>
<path id="Vector_28" d="M47.2412 37.1396L47.3219 37.1398C47.6743 37.1335 47.9898 37.1223 48.3342 37.2159C49.0743 37.4169 49.656 37.8708 50.0005 38.5608C50.29 39.1408 50.2827 40.0017 50.0416 40.5935C49.6877 41.4618 49.0159 41.8858 48.1849 42.2236C47.6097 42.2333 47.1633 42.307 46.6118 42.0581C45.9954 41.7803 45.5155 41.1719 45.3013 40.5413C45.0676 39.8542 45.1547 38.9906 45.4914 38.3491C45.8625 37.6421 46.5151 37.3443 47.2412 37.1396Z" fill="#7ECBF6"/>
<path id="Vector_29" d="M39.8357 37.1345C40.2198 37.116 40.6445 37.0652 41.0181 37.1709L41.1201 37.2024L41.4897 37.3256C42.1621 37.5992 42.6545 38.1101 42.9207 38.7833C43.1715 39.4175 43.1005 40.2148 42.8045 40.8195C42.4424 41.5591 41.8345 41.9708 41.0792 42.2425C40.6199 42.3541 40.1875 42.366 39.7365 42.2129C39.0461 41.9789 38.505 41.4171 38.1964 40.7678C37.8721 40.0853 37.8602 39.3932 38.1235 38.6926C38.4301 37.8769 39.0775 37.4608 39.8357 37.1345Z" fill="#F3D39A"/>
<path id="Vector_30" d="M32.3363 37.0501C32.8184 36.9749 33.2984 36.9542 33.7682 37.1096C34.5093 37.3544 35.0745 37.8348 35.4013 38.5502C35.682 39.1642 35.6997 39.9655 35.4375 40.5878C35.0778 41.4422 34.3903 41.8318 33.5742 42.146C33.1666 42.1903 32.6567 42.2361 32.2636 42.1046C31.5963 41.8814 30.978 41.363 30.667 40.7268C30.3445 40.0669 30.2741 39.3848 30.5514 38.6927C30.8814 37.8687 31.5453 37.3795 32.3363 37.0501Z" fill="#A18BEC"/>
<path id="Vector_31" d="M57.5771 36.1523L61.432 36.1307L68.3121 36.1284L89.726 36.1248L113.359 36.1271L121.095 36.1273L125.189 36.1415C125.823 36.1701 126.445 36.2753 127.009 36.5787C127.837 37.0233 128.489 37.8476 128.746 38.7493C129.006 39.6638 128.902 40.779 128.415 41.5999C127.857 42.5405 127.022 43.0688 125.979 43.3196C125.059 43.4482 124.104 43.3963 123.176 43.3929L118.959 43.3762L105.201 43.3623L75.3458 43.3473L58.28 43.3432C57.8337 43.3353 57.4251 43.3257 56.9969 43.1801C56.0422 42.8551 55.2698 42.1739 54.8402 41.2646C54.4674 40.4759 54.3003 39.4805 54.6136 38.6384L54.6633 38.5125C54.9266 37.8233 55.2892 37.221 55.8851 36.7681C56.4018 36.3752 56.9476 36.2445 57.5771 36.1523Z" fill="#3DE5DD"/>
<path id="Vector_32" d="M25.9512 46.8362L95.1926 46.8509L115.71 46.8495L121.846 46.856C122.748 46.8574 123.786 46.9586 124.674 46.8565C125.59 46.9734 126.602 46.9003 127.529 46.905L133.15 46.9309L133.091 54.7544L133.053 68.9276L133.011 112.978L133.001 128.715L132.995 133.432C132.993 134.223 133.057 135.076 132.98 135.862C132.941 136.259 132.691 136.626 132.437 136.921C132.052 137.367 131.526 137.762 130.919 137.791L125.398 137.783L114.039 137.777L79.4458 137.784L45.7984 137.765L33.9923 137.772C32.0621 137.773 30.0809 137.866 28.1555 137.768C27.6131 137.74 27.0879 137.448 26.7096 137.071C26.3037 136.665 26.1316 136.337 26.0841 135.765C25.9915 134.65 26.059 133.473 26.0579 132.353L26.0657 125.778L26.0471 106.544L26.029 65.6053L25.9512 46.8362Z" fill="#FEFEFE"/>
<path id="Vector_33" d="M66.0256 56.301C66.325 56.31 66.6725 56.3121 66.95 56.4376C67.3067 56.5991 67.6373 57.0633 67.7622 57.4285C67.8753 57.7587 67.8276 58.231 67.6643 58.5386C67.4201 58.9986 67.0888 59.2226 66.5981 59.3611C66.3272 59.3759 66.0925 59.3687 65.8329 59.2797C65.3962 59.1303 64.9897 58.728 64.8186 58.3038C64.6913 57.9883 64.7286 57.5563 64.8687 57.2511C65.1135 56.7174 65.5129 56.5095 66.0256 56.301Z" fill="#D0C2E7"/>
<path id="Vector_34" d="M65.7415 63.8111C66.0262 63.7427 66.3501 63.7483 66.6384 63.7976C67.0354 63.8657 67.4146 64.2305 67.6114 64.5663C67.8 64.8879 67.8506 65.2968 67.7573 65.6564L67.7319 65.7467L67.6943 65.9014C67.5347 66.3177 67.0934 66.59 66.7027 66.7499C66.4664 66.7915 66.2442 66.8257 66.0048 66.7855C65.5494 66.7094 65.1792 66.4184 64.9341 66.0275C64.711 65.6717 64.6431 65.1448 64.782 64.7474C64.9483 64.2713 65.3014 64.0164 65.7415 63.8111Z" fill="#D0C2E7"/>
<path id="Vector_35" d="M65.6827 71.1035C65.9569 71.0343 66.3615 71.016 66.6435 71.0734C66.9827 71.1427 67.4095 71.5343 67.5695 71.8336C67.7766 72.2206 67.831 72.5953 67.6941 73.0173C67.554 73.4488 67.1822 73.7961 66.7785 73.9825C66.4391 74.0593 66.093 74.0574 65.7491 74.0001C65.4016 73.9421 65.0575 73.6231 64.8594 73.3456C64.6338 73.0296 64.5834 72.592 64.6652 72.2168C64.7795 71.6914 65.2522 71.3619 65.6827 71.1035Z" fill="#D0C2E7"/>
<path id="Vector_36" d="M65.6354 78.3588C66.0659 78.2966 66.6876 78.2534 67.0559 78.5188L67.1297 78.5761C67.2838 78.6897 67.4036 78.7815 67.5048 78.9494C67.7453 79.3482 67.8346 79.863 67.6967 80.3148C67.5332 80.8504 67.1569 81.104 66.6774 81.3406C66.4597 81.3733 66.2153 81.4259 65.9957 81.4002C65.5473 81.3476 65.1427 81.0177 64.9018 80.6499C64.6915 80.3281 64.6261 79.854 64.7147 79.4847C64.848 78.9294 65.1573 78.6499 65.6354 78.3588Z" fill="#D7D2F0"/>
<path id="Vector_37" d="M35.7265 85.7601L41.9483 85.7517L53.6766 85.7481L62.3825 85.7347C63.805 85.7331 65.2701 85.6602 66.6888 85.7383C66.882 85.749 67.0346 85.8087 67.202 85.9013C67.5427 86.0895 67.8014 86.3898 67.8843 86.7778C67.9682 87.1714 67.9125 87.7675 67.6623 88.1027C67.4302 88.4135 67.0846 88.4504 66.7301 88.5158L44.3649 88.5332L37.5221 88.5412C37.0392 88.5414 35.6104 88.671 35.256 88.3851L35.1782 88.3157L34.8309 87.9952C34.5662 87.71 34.4533 87.43 34.4895 87.0377C34.5235 86.6682 34.723 86.3291 35.0036 86.0925C35.2211 85.9089 35.457 85.8365 35.7265 85.7601Z" fill="#D7D2F0"/>
<path id="Vector_38" d="M54.6039 70.9189L54.6106 72.969C54.61 73.4964 54.6604 74.0761 54.419 74.5611C54.0913 75.2196 53.5655 75.7845 52.8307 75.973C52.2575 76.1199 51.4343 76.0229 50.8365 76.0216L46.8247 76.022L40.59 76.0218C39.5665 76.0214 38.4928 76.0862 37.4738 76.0128C37.0926 75.9854 36.7205 75.8225 36.4032 75.6152C35.8695 75.2666 35.4498 74.6983 35.3351 74.0622C35.1946 73.2836 35.2703 72.3972 35.271 71.6044L35.2791 67.3025L35.2915 63.3653C35.294 62.633 35.2409 61.8474 35.3306 61.1225C35.3963 60.5915 35.5783 60.2249 35.8699 59.7827L35.9208 60.1203L36.0413 60.1199C36.1806 63.0778 36.7714 66.045 38.7465 68.3485C39.7347 69.5009 40.9524 70.4968 42.3355 71.1371C44.6716 72.2185 47.4665 72.2456 49.9643 71.7929C50.9568 71.613 51.9197 71.3028 52.9065 71.1014C53.427 70.9954 53.9728 71.0287 54.5033 70.9347L54.6039 70.9189Z" fill="#3DE5DD"/>
<path id="Vector_39" d="M74.6907 56.5065L123.498 56.4916C123.84 56.5382 124.168 56.8114 124.363 57.0861C124.575 57.3847 124.594 57.8179 124.505 58.1649C124.38 58.653 123.976 58.9626 123.558 59.1896C122.482 59.3554 121.289 59.2512 120.196 59.2487L113.956 59.2371L89.4121 59.1982L79.1247 59.2494L76.1892 59.2559C75.6486 59.2557 75.0002 59.3104 74.4798 59.1455C74.2071 59.0591 73.9481 58.8117 73.8298 58.5549C73.6699 58.2083 73.6139 57.6904 73.7549 57.3289C73.9361 56.8645 74.2632 56.7013 74.6907 56.5065Z" fill="#D7D2F0"/>
<path id="Vector_40" d="M74.8073 78.4644L84.3537 78.4653L112.522 78.4414L120.473 78.4378L122.618 78.4382C122.944 78.4383 123.382 78.4023 123.685 78.5235C124.003 78.6504 124.326 79.0334 124.465 79.3413C124.615 79.6746 124.626 80.105 124.478 80.4419C124.305 80.836 123.925 81.0787 123.542 81.2305L85.6891 81.2383L77.8116 81.2442L75.5718 81.2489C75.2409 81.2494 74.7943 81.2927 74.4778 81.2037C74.1247 81.1043 73.8391 80.7611 73.7049 80.4348C73.5708 80.1086 73.6232 79.5126 73.7998 79.2063C74.057 78.7605 74.331 78.6063 74.8073 78.4644Z" fill="#D7D2F0"/>
<path id="Vector_41" d="M74.8006 63.7946L78.8043 63.7757L86.4244 63.7701L109.703 63.7908L118.971 63.7871L122.01 63.7836C122.552 63.7842 123.198 63.7267 123.716 63.8886C124.028 63.9857 124.399 64.2878 124.514 64.5981L124.552 64.7563C124.584 64.8899 124.621 65.0225 124.619 65.1615C124.612 65.6221 124.364 66.0085 124.02 66.2984C123.806 66.479 123.591 66.5611 123.325 66.6356L74.4284 66.6349C74.1243 66.3591 73.8162 66.0999 73.6706 65.7045C73.5469 65.3684 73.6014 64.9328 73.7572 64.6152C73.9711 64.1794 74.3507 63.9317 74.8006 63.7946Z" fill="#D7D2F0"/>
<path id="Vector_42" d="M74.8973 85.771L123.555 85.7532C124.016 86.0071 124.316 86.1983 124.508 86.7174C124.646 87.0887 124.621 87.5925 124.416 87.9391C124.168 88.3572 123.8 88.4818 123.355 88.5862L118.382 88.5996L108.966 88.598L85.4892 88.5879L77.808 88.6035L75.5506 88.605C75.2024 88.6035 74.7823 88.6471 74.4551 88.5211C74.1422 88.4004 73.7997 88.0034 73.7023 87.6847C73.5768 87.2745 73.6661 86.7284 73.8874 86.3643C74.1139 85.9916 74.4985 85.8747 74.8973 85.771Z" fill="#D7D2F0"/>
<path id="Vector_43" d="M95.7197 71.1035L113.942 71.0977L119.925 71.1062C121.003 71.1094 122.108 71.0693 123.183 71.1408C123.51 71.1624 123.857 71.2873 124.113 71.4955C124.401 71.7303 124.569 72.0834 124.59 72.454C124.61 72.8186 124.497 73.272 124.234 73.5343C123.988 73.7803 123.799 73.9539 123.448 73.9935C122.711 74.0765 121.911 74.0122 121.167 74.0109L117.022 74.0135L102.453 74.0158L84.4859 74.0073L78.2471 74.0167L75.1515 74.0163C74.8578 74.0021 74.5312 73.9688 74.2934 73.7839C73.91 73.4861 73.72 73.134 73.6826 72.6486C73.6532 72.2683 73.7552 71.8257 74.0389 71.5537C74.1457 71.4512 74.3998 71.22 74.5375 71.1726C74.9335 71.0365 75.6222 71.1224 76.0583 71.1199L80.3209 71.1109L95.7197 71.1035Z" fill="#D7D2F0"/>
<path id="Vector_44" d="M119.411 94.7875L123.816 94.7887L123.803 122.019C122.479 120.986 121.32 119.699 120.105 118.543L112.533 111.232L112.274 111.093L112.43 110.912L112.345 110.147C111.873 109.82 111.332 109.46 111.138 108.899C112.231 109.439 113.313 109.688 114.528 109.424C115.796 109.148 116.808 108.514 117.482 107.394C118.249 106.119 118.312 104.754 117.952 103.357L117.678 102.541C118.357 103.073 118.942 103.821 119.529 104.456L119.411 94.7875Z" fill="#7ECBF6"/>
<path id="Vector_45" d="M35.8696 59.7826C36.2706 59.4075 36.6567 59.0663 37.2134 58.9457C37.694 58.8416 38.2965 58.9043 38.7949 58.9035L42.0437 58.9055L52.2411 58.9297C52.8659 58.9495 53.4803 59.1598 53.9214 59.6166C54.2427 59.9493 54.4486 60.3055 54.5327 60.7629C54.7168 61.7624 54.59 62.9546 54.592 63.9813L54.6037 70.9188L54.503 70.9347C53.9726 71.0287 53.4268 70.9953 52.9062 71.1014C51.9195 71.3027 50.9565 71.613 49.9641 71.7928C47.4663 72.2455 44.6714 72.2185 42.3352 71.137C40.9522 70.4968 39.7344 69.5008 38.7463 68.3484C36.7712 66.0449 36.1804 63.0777 36.041 60.1199L35.9206 60.1202L35.8696 59.7826Z" fill="#3DE5DD"/>
<path id="Vector_46" d="M112.274 111.092L112.533 111.231L120.105 118.542C121.32 119.699 122.479 120.986 123.803 122.019L123.814 125.722L123.815 129.218L112.552 129.224L99.1882 129.231L83.4822 129.211L83.4795 125.786L98.16 125.743L99.9772 123.505C100.402 123.101 100.755 122.421 101.139 121.954C101.931 120.991 102.791 120.114 103.665 119.224L103.807 119.227L106.956 116.123L110.354 112.724C110.92 112.173 111.553 111.422 112.274 111.092Z" fill="#4B5ECC"/>
<path id="Vector_47" d="M99.188 129.231C99.2091 128.104 99.1592 126.91 99.3149 125.797L112.639 125.807L112.552 129.224L99.188 129.231Z" fill="#2931A3"/>
<path id="Vector_48" d="M112.274 111.092L112.533 111.231L112.604 125.738L109.905 125.717C109.121 124.982 108.46 124.126 107.717 123.351L105.207 120.756C104.738 120.272 104.184 119.785 103.807 119.227L106.956 116.123L110.354 112.724C110.92 112.173 111.552 111.422 112.274 111.092Z" fill="#A18BEC"/>
<path id="Vector_49" d="M83.4802 122.316L83.4014 94.7736L119.411 94.7874L119.529 104.456C118.943 103.821 118.358 103.073 117.679 102.541L117.953 103.357C118.313 104.754 118.25 106.119 117.482 107.394C116.808 108.514 115.796 109.148 114.529 109.424C113.314 109.688 112.232 109.439 111.138 108.899C111.333 109.46 111.874 109.82 112.345 110.147L112.431 110.912L112.274 111.092C111.553 111.422 110.92 112.173 110.354 112.724L106.956 116.123L103.807 119.227L103.665 119.224C102.791 120.114 101.931 120.991 101.139 121.954C100.755 122.421 100.403 123.101 99.9774 123.505L98.1602 125.743L83.4797 125.786L83.4802 122.316Z" fill="#8ED6F9"/>
<path id="Vector_50" d="M93.7461 101.327L93.8516 101.328C94.1946 101.322 94.4907 101.297 94.8114 101.444C95.5619 101.785 95.9366 102.588 96.1942 103.327C96.2861 103.59 97.2265 103.43 97.5215 103.472C97.78 103.508 98.0951 103.665 98.2835 103.842C98.6119 104.151 98.8047 104.583 98.8114 105.031C98.8183 105.488 98.7392 105.821 98.3965 106.143C98.2365 106.293 98.0487 106.402 97.8321 106.446C97.2724 106.56 96.5954 106.496 96.0244 106.498L92.4373 106.504C91.7352 106.504 88.9509 106.727 88.4901 106.264C88.2184 105.991 88.172 105.683 88.1641 105.315C88.3474 104.794 88.7793 104.691 89.2126 104.44C89.178 104.236 89.1494 104.034 89.178 103.827C89.2498 103.304 89.5016 102.968 89.9168 102.662C90.2501 102.417 90.792 102.366 91.1871 102.448C91.6194 102.537 91.7849 102.738 92.0296 103.094L92.0989 103.198C92.5338 102.3 92.8028 101.762 93.7461 101.327Z" fill="#FEFEFE"/>
<path id="Vector_51" d="M110.106 101.943C110.747 101.203 111.651 100.61 112.608 100.377C113.984 100.041 115.132 100.408 116.3 101.124C116.825 101.565 117.241 102.013 117.679 102.541L117.952 103.357C118.312 104.754 118.249 106.119 117.482 107.394C116.808 108.514 115.796 109.148 114.529 109.424C113.314 109.688 112.231 109.439 111.138 108.899L111.132 108.873C109.923 107.9 109.319 106.986 109.093 105.427C109.025 104.787 109.104 104.203 109.259 103.582C109.43 102.936 109.7 102.462 110.106 101.943Z" fill="#F8AD6D"/>
<path id="Vector_52" d="M116.371 101.75C116.784 102.353 116.93 102.999 116.781 103.726C116.577 104.715 116.04 105.62 115.17 106.159C114.821 106.375 114.485 106.47 114.089 106.555L113.987 106.579C113.047 106.786 111.917 106.537 111.123 106.003C110.464 105.56 109.69 104.689 109.482 103.92L109.365 103.838L109.343 103.68L109.259 103.582C109.43 102.936 109.7 102.462 110.106 101.943C110.207 102.146 110.181 102.423 110.222 102.648C110.28 102.963 110.461 103.264 110.648 103.521C111.124 104.171 111.881 104.598 112.67 104.721C113.473 104.846 114.332 104.7 114.99 104.206C115.81 103.589 116.197 102.733 116.371 101.75Z" fill="#F4C286"/>
<path id="Vector_53" d="M110.106 101.943C110.747 101.203 111.651 100.61 112.608 100.377C113.984 100.041 115.132 100.408 116.3 101.124L116.371 101.75C116.197 102.733 115.81 103.589 114.99 104.206C114.332 104.7 113.473 104.846 112.671 104.721C111.881 104.598 111.124 104.171 110.648 103.521C110.461 103.264 110.28 102.963 110.222 102.648C110.181 102.423 110.207 102.146 110.106 101.943Z" fill="#F3D39A"/>
<path id="Vector_54" d="M83.48 122.316L95.2628 111.068L103.665 119.224C102.791 120.114 101.931 120.991 101.139 121.954C100.755 122.421 100.402 123.101 99.9772 123.505L98.16 125.743L83.4795 125.786L83.48 122.316Z" fill="#A18BEC"/>
<path id="Vector_55" d="M35.0034 94.8276L76.1682 94.822L76.1385 129.211L35.013 129.23L35.0034 94.8276Z" fill="#A18BEC"/>
<path id="Vector_56" d="M42.0706 117.094L50.15 117.095L52.5151 117.113C52.8309 117.122 53.2504 117.097 53.554 117.188C53.8655 117.281 54.1363 117.491 54.2644 117.796C54.4232 118.175 54.4233 118.655 54.2501 119.029C54.0506 119.46 53.6799 119.638 53.2494 119.77C51.8469 119.835 42.0964 120.003 41.4813 119.64C41.2069 119.479 40.9472 119.185 40.8624 118.875C40.7494 118.461 40.7942 118.043 41.0319 117.683C41.2962 117.282 41.6162 117.172 42.0706 117.094Z" fill="#E1EAF8"/>
<path id="Vector_57" d="M41.8633 111.323L46.8259 111.302L56.1322 111.298L59.9542 111.302C60.4039 111.302 61.0232 111.216 61.4483 111.328C61.7216 111.4 61.9669 111.556 62.085 111.822C62.2652 112.228 62.2561 112.992 62.0542 113.39C61.8684 113.757 61.6419 113.948 61.2515 114.064L48.3601 114L43.6072 113.99C43.0373 113.988 42.0786 114.091 41.55 113.889C41.2781 113.785 40.9965 113.497 40.8911 113.224C40.7583 112.881 40.761 112.399 40.9259 112.067C41.1403 111.636 41.4205 111.465 41.8633 111.323Z" fill="#E1EAF8"/>
<path id="Vector_58" d="M41.999 105.312L61.1702 105.265L66.003 105.27C66.8162 105.272 67.7963 105.173 68.5792 105.363C68.9017 105.636 69.0198 105.83 69.0578 106.256C69.1078 106.819 69.0925 107.459 68.7056 107.905C68.5187 108.12 68.2914 108.063 68.0165 108.081L50.3388 108.062L44.767 108.063C43.8324 108.063 42.8593 108.117 41.9302 108.055C41.7148 108.041 41.4725 107.975 41.3 107.843C41.0355 107.641 40.8898 107.336 40.8331 107.017C40.7594 106.603 40.8642 106.073 41.1217 105.735C41.3643 105.417 41.6266 105.369 41.999 105.312Z" fill="#E1EAF8"/>
<path id="Vector_59" d="M2.2309 70.4123C2.68848 70.4036 3.07014 70.4012 3.50401 70.5709C4.23967 70.8586 4.82607 71.4431 5.11583 72.1812C5.35853 72.799 5.29893 73.5477 4.99818 74.1377C4.60965 74.8995 3.89924 75.2743 3.12167 75.5177C2.52324 75.5711 2.05382 75.5501 1.504 75.2825C0.837393 74.9579 0.326226 74.3948 0.104309 73.6834C-0.0878941 73.0673 -0.00854001 72.4251 0.293419 71.8619C0.725231 71.0563 1.38738 70.6757 2.2309 70.4123Z" fill="#A18BEC"/>
<path id="Vector_60" d="M9.26557 54.0228C10.4365 53.905 11.7226 54.2478 12.6713 54.9467C13.6536 55.6702 14.4537 56.7508 14.6234 57.9816L14.6411 58.1209C14.8159 59.3973 14.5232 60.6994 13.7948 61.769C12.9602 62.9943 11.8618 63.4937 10.437 63.7771C9.26041 63.8186 8.20939 63.6434 7.19531 63.0177C6.07541 62.3269 5.26779 61.1281 4.99812 59.844C4.75147 58.6685 4.94075 57.2515 5.63759 56.2604C6.57421 54.9282 7.67161 54.299 9.26557 54.0228Z" fill="#A18BEC"/>
<path id="Vector_61" d="M151.696 82.03C153.202 81.906 154.59 82.152 155.854 83.0292C157.212 83.9713 158.255 85.6049 158.511 87.2388C158.774 88.9205 158.334 90.6998 157.325 92.0682C156.251 93.5254 154.808 94.2683 153.048 94.5512C152.489 94.6053 151.958 94.596 151.4 94.527C149.768 94.3247 148.335 93.5083 147.326 92.2099C146.297 90.8837 145.825 89.1254 146.059 87.4591L146.08 87.3233C146.241 86.1771 146.696 85.1352 147.435 84.2422C148.554 82.8899 149.97 82.2259 151.696 82.03Z" fill="#A18BEC"/>
</g>
</svg>
