<svg width="103" height="32" viewBox="0 0 103 32" fill="none" xmlns="http://www.w3.org/2000/svg">
<path id="Line 1" d="M97.5904 31.4125C98.0942 31.6387 98.6861 31.4136 98.9123 30.9098L102.599 22.6994C102.825 22.1955 102.6 21.6037 102.096 21.3775C101.592 21.1513 101 21.3764 100.774 21.8802L97.4973 29.1783L90.1992 25.9016C89.6953 25.6754 89.1035 25.9004 88.8773 26.4043C88.6511 26.9081 88.8762 27.4999 89.38 27.7261L97.5904 31.4125ZM1.92468 30.8809C2.17863 30.2642 2.44294 29.6583 2.71726 29.0631L0.900896 28.2259C0.614996 28.8462 0.339697 29.4774 0.0753213 30.1195L1.92468 30.8809ZM4.50782 25.5723C5.16257 24.4199 5.85819 23.3133 6.59174 22.2518L4.94639 21.1148C4.1794 22.2246 3.45256 23.381 2.76888 24.5843L4.50782 25.5723ZM8.96198 19.1312C9.80552 18.1189 10.6873 17.1547 11.6042 16.2378L10.1899 14.8236C9.23069 15.7829 8.30806 16.7918 7.42551 17.8509L8.96198 19.1312ZM14.4974 13.594C15.5048 12.7532 16.5455 11.9611 17.6162 11.2168L16.4746 9.57459C15.3566 10.3518 14.2691 11.1795 13.2159 12.0586L14.4974 13.594ZM20.9318 9.11696C22.067 8.46368 23.2292 7.85822 24.4147 7.29989L23.5625 5.49053C22.3286 6.07165 21.1179 6.70235 19.9343 7.38348L20.9318 9.11696ZM28.0357 5.76632C29.2611 5.3027 30.5062 4.88533 31.7673 4.51354L31.2017 2.59517C29.8937 2.9808 28.6012 3.41403 27.328 3.89571L28.0357 5.76632ZM35.584 3.53661C36.866 3.25669 38.1601 3.02117 39.4629 2.82939L39.1716 0.850718C37.8242 1.04906 36.4849 1.29276 35.1573 1.58265L35.584 3.53661ZM43.3831 2.38543C44.6935 2.28069 46.0088 2.21864 47.3255 2.19857L47.2951 0.1988C45.9359 0.219518 44.5775 0.283583 43.2237 0.391783L43.3831 2.38543ZM51.2734 2.26348C52.5892 2.32662 53.9027 2.43103 55.2103 2.576L55.4307 0.588183C54.0818 0.438643 52.7268 0.330921 51.3692 0.265778L51.2734 2.26348ZM59.1204 3.1333C60.4204 3.36015 61.7106 3.62727 62.9877 3.9339L63.4546 1.98918C62.1367 1.67272 60.8053 1.3971 59.4642 1.16307L59.1204 3.1333ZM66.7953 4.97771C68.0573 5.36775 69.3019 5.79742 70.5253 6.26591L71.2405 4.39818C69.9755 3.91375 68.6893 3.46973 67.3858 3.06689L66.7953 4.97771ZM74.1577 7.80071C75.3558 8.35649 76.5279 8.95155 77.6701 9.58499L78.6401 7.83596C77.455 7.17873 76.2401 6.56197 74.9993 5.98642L74.1577 7.80071ZM81.0368 11.6217C82.1375 12.3469 83.2028 13.111 84.2286 13.9132L85.4606 12.3377C84.391 11.5013 83.2817 10.7057 82.1371 9.95162L81.0368 11.6217ZM87.2128 16.4598C88.1729 17.3547 89.0878 18.2881 89.9531 19.2588L91.446 17.928C90.5385 16.9099 89.5804 15.9325 88.5764 14.9967L87.2128 16.4598ZM92.4112 22.303C93.1787 23.3566 93.8916 24.4472 94.5456 25.574L96.2754 24.57C95.5859 23.382 94.835 22.2335 94.0278 21.1254L92.4112 22.303ZM96.3202 29.0475C96.5843 29.6415 96.8328 30.2442 97.0653 30.8556L98.9347 30.1448C98.6891 29.4989 98.4266 28.8624 98.1478 28.2352L96.3202 29.0475Z" fill="#9077E4"/>
</svg>
