<svg width="154" height="140" viewBox="0 0 154 140" fill="none" xmlns="http://www.w3.org/2000/svg">
<g id="Group 42">
<rect id="Rectangle 13" x="89.2568" y="4.58228" width="41.3321" height="7.8168" rx="3.9084" transform="rotate(26.3439 89.2568 4.58228)" fill="#9077E4"/>
<rect id="Rectangle 14" x="90.4688" y="9" width="41.3321" height="17.0023" rx="6" transform="rotate(26.3439 90.4688 9)" fill="#9077E4"/>
<g id="Group 41">
<path id="Vector" d="M8.44234 86.5034C7.88533 85.3617 7.39146 84.1607 6.96443 82.9023C2.07584 68.5014 9.46907 51.25 25.0353 47.0854C26.7175 25.9863 41.5708 11.5131 58.3457 9.04255C77.5455 6.21612 95.1337 18.3911 100.986 37.7424C108.039 35.2477 114.913 35.5517 121.391 39.3308C124.33 40.6875 127.018 42.6891 129.43 45.3228C132.971 49.189 135.273 54.069 136.211 59.214C137.599 59.4327 138.964 59.6514 140.251 60.1111C147.752 62.7966 152.484 68.3235 153.782 76.6489C154.59 81.8329 152.959 87.0039 152.05 89.0926C148.457 97.3495 140.126 102.029 131.662 100.791C131.24 100.73 130.628 100.919 130.265 101.223C129.818 114.419 123.4 126.09 113.771 132.757C98.3216 143.455 78.4441 140.159 65.9042 125.49C60.531 130.976 54.1367 133.641 46.6246 132.673C39.1553 131.711 33.355 127.597 29.1237 120.906C27.1686 121.431 25.3157 122.187 23.3996 122.396C15.895 123.216 9.85153 120.202 5.33055 113.5C5.17645 113.27 4.95366 113.094 4.76242 112.892C4.1163 111.413 3.47018 109.934 2.82407 108.455C2.53629 106.211 2.02756 103.964 2.00156 101.724C1.92915 95.6907 4.40038 90.1917 8.44234 86.5034Z" fill="#F2E9FC"/>
<g id="Group 27">
<path id="Vector_2" d="M19.268 70.917C19.7256 70.9082 20.1072 70.9058 20.5411 71.0755C21.2768 71.3632 21.8632 71.9477 22.1529 72.6858C22.3956 73.3036 22.336 74.0524 22.0353 74.6424C21.6468 75.4041 20.9363 75.7789 20.1588 76.0223C19.5604 76.0757 19.0909 76.0548 18.5411 75.7872C17.8745 75.4625 17.3633 74.8995 17.1414 74.188C16.9492 73.5719 17.0286 72.9297 17.3305 72.3665C17.7623 71.5609 18.4245 71.1803 19.268 70.917Z" fill="#A18BEC"/>
<path id="Vector_3" d="M118.592 95.555C118.935 95.7534 119.187 95.8968 119.292 96.2982C119.407 96.742 119.372 97.2999 119.374 97.7632C119.386 100.247 118.799 102.581 117.443 104.676C115.467 107.727 112.743 109.524 109.219 110.281C108.854 110.359 108.514 110.394 108.194 110.183C107.973 110.038 107.801 109.791 107.649 109.579L107.81 109.425C108.795 109.288 109.742 109.044 110.674 108.694C114.886 107.112 118.054 103.069 118.521 98.5821C118.578 98.0385 118.586 97.4744 118.564 96.9286C118.546 96.4621 118.396 95.9808 118.592 95.555Z" fill="#E36FCE"/>
<path id="Vector_4" d="M99.9329 127.685C100.677 127.626 101.409 127.642 102.095 127.969C102.705 128.258 103.221 128.756 103.417 129.413C103.574 129.94 103.509 130.734 103.235 131.216C102.836 131.919 102.088 132.301 101.335 132.489C100.491 132.554 99.6778 132.534 98.9081 132.145C98.3496 131.862 97.8264 131.391 97.6531 130.768C97.4969 130.207 97.4988 129.588 97.8049 129.076C98.2807 128.28 99.0588 127.883 99.9329 127.685Z" fill="#A18BEC"/>
<path id="Vector_5" d="M44.1439 29.8685C44.407 30.2098 44.5867 30.4779 44.7354 30.8858L44.7775 30.9945C44.9322 31.4155 44.9681 32.0426 44.7703 32.454C44.4827 33.0521 43.8622 33.5559 43.2369 33.7616C42.6416 33.9576 42.0028 33.9757 41.4006 34.1509C39.554 34.6883 37.7122 36.2091 36.7842 37.8865C35.9954 39.3122 36.2288 41.6074 34.3518 42.1165C33.7857 42.2701 33.1859 42.2029 32.6777 41.903C32.1713 41.6043 31.903 41.2228 31.6948 40.6845L31.8214 40.6201C32.2163 40.875 32.6052 41.049 33.0882 40.9994C34.9848 40.8043 34.8946 38.7347 35.4305 37.4034C35.7783 36.5396 36.3221 35.7309 36.9566 35.0504C37.7733 34.1742 38.7816 33.4671 39.8975 33.0299C41.1256 32.5492 43.1821 32.5569 43.9867 31.4597C44.1913 31.1809 44.2174 30.8082 44.1799 30.477L44.1451 30.0256L44.1439 29.8685Z" fill="#E36FCE"/>
<path id="Vector_6" d="M125.223 94.6877C125.635 95.4192 125.784 96.2708 125.919 97.0915C126.313 99.4737 126.226 101.836 125.571 104.168C124.29 108.735 121.272 112.644 117.115 114.957C115.543 115.831 113.832 116.464 112.104 116.954C111.347 117.169 110.372 117.426 109.583 117.353C109.335 117.045 109.095 116.7 108.809 116.428C112.267 116.082 115.833 114.572 118.586 112.456C122.556 109.405 125.411 104.425 125.491 99.3455C125.504 98.5075 125.446 97.6628 125.348 96.8309C125.268 96.1583 125.114 95.4438 125.21 94.7708L125.223 94.6877Z" fill="#E36FCE"/>
<path id="Vector_7" d="M24.666 40.4408C24.846 40.4667 24.9518 40.5296 25.1016 40.6242C25.2129 40.6945 25.3076 40.7637 25.4335 40.8051C25.9633 40.9791 26.5442 40.8999 27.0345 40.6471C28.3972 39.9442 28.1645 38.4382 28.3237 37.1524C28.4005 36.5322 28.5583 35.9042 28.745 35.3087C30.0844 31.0363 33.6858 27.5996 37.9045 26.2157C38.4502 26.0366 39.0031 25.854 39.5633 25.7257C40.2406 25.5708 40.968 25.567 41.5831 25.2144C42.1015 24.917 42.4653 24.4614 42.6022 23.8827C42.6412 23.7178 42.6712 23.5881 42.7636 23.4435L42.8444 23.3236C43.1714 23.966 43.4069 24.6955 43.1953 25.4181C43.006 26.0639 42.5481 26.566 41.9442 26.8571C41.098 27.2652 39.9807 27.2094 39.0676 27.5047C34.8696 28.8624 31.6702 31.6266 30.0762 35.7974C29.7732 36.5901 29.5638 37.4233 29.4628 38.2663C29.3885 38.886 29.4766 39.5336 29.3821 40.1455C29.2605 40.9334 28.6195 41.7613 27.9089 42.1043C27.3708 42.3639 26.6751 42.358 26.1234 42.1368C25.49 41.8829 24.9924 41.3615 24.7543 40.724L24.666 40.4408Z" fill="#E36FCE"/>
<path id="Vector_8" d="M48.7342 3.09076C49.5633 3.12597 50.3647 3.25531 51.0533 3.76321C51.9535 4.42742 52.6215 5.41815 52.7747 6.53838C52.9034 7.47896 52.5609 8.45886 51.9912 9.20071C51.2502 10.1658 50.2239 10.5046 49.0648 10.6725C48.1109 10.6299 47.3125 10.5013 46.5337 9.91043C45.7392 9.30754 45.1784 8.38586 45.0562 7.38792C44.9252 6.31784 45.2119 5.26081 45.9142 4.43429C46.6579 3.55899 47.6253 3.19571 48.7342 3.09076Z" fill="#A18BEC"/>
<path id="Vector_9" d="M40.9128 15.7459C41.3173 16.4553 41.6106 17.4381 41.4104 18.2569C41.2321 18.9855 40.6302 19.6894 39.9658 20.018C39.3643 20.3153 38.5818 20.3471 37.9308 20.5098C37.1208 20.7121 36.3233 20.9665 35.5438 21.2652C29.9832 23.3957 25.7071 27.692 23.5869 33.247C23.0603 34.6269 22.6745 36.2209 22.523 37.6874C22.4399 38.4918 22.5568 39.5974 22.2942 40.3444C22.0503 41.0385 21.522 41.7061 20.8493 42.0232C20.1793 42.3393 19.3729 42.3291 18.6824 42.077C18.1137 41.8693 17.5525 41.3169 17.3105 40.7621L17.0039 39.9001C17.4342 40.0935 17.6789 40.4911 18.1339 40.663L18.2463 40.7025L18.6037 40.8125C19.2083 40.9325 19.8749 40.7439 20.3694 40.3872C21.7128 39.4181 21.4112 37.4414 21.5953 35.9787C22.2489 30.787 25.4308 25.6695 29.6199 22.5778C31.3238 21.3201 33.3105 20.3584 35.3001 19.6442C36.0639 19.3701 36.8502 19.1609 37.6405 18.978C38.3204 18.8206 39.3863 18.7317 39.9287 18.2868C40.8078 17.5659 40.7867 16.7763 40.9128 15.7459Z" fill="#E36FCE"/>
<path id="Vector_10" d="M31.695 40.6846C31.3692 39.9395 31.2806 39.3884 31.4262 38.5843C32.0195 35.3096 33.9341 32.7517 36.6555 30.9053C38.0099 29.9863 39.7335 29.3963 41.3036 28.9783C41.6468 28.8869 42.2971 28.6866 42.6322 28.7977C43.2712 29.0099 43.7109 29.3652 44.1441 29.8685L44.1453 30.0257L44.1801 30.4771C44.2176 30.8082 44.1915 31.1809 43.9869 31.4597C43.1824 32.5569 41.1258 32.5492 39.8977 33.03C38.7818 33.4671 37.7736 34.1742 36.9568 35.0504C36.3223 35.7309 35.7785 36.5396 35.4307 37.4034C34.8948 38.7347 34.985 40.8043 33.0884 40.9994C32.6054 41.0491 32.2165 40.8751 31.8216 40.6202L31.695 40.6846Z" fill="#F8A1D4"/>
<path id="Vector_11" d="M26.3027 54.5274C27.4736 54.4096 28.7597 54.7524 29.7084 55.4513C30.6907 56.1748 31.4908 57.2553 31.6605 58.4862L31.6782 58.6255C31.853 59.9019 31.5603 61.204 30.8319 62.2736C29.9973 63.4989 28.8989 63.9982 27.4741 64.2816C26.2975 64.3232 25.2465 64.148 24.2324 63.5223C23.1125 62.8315 22.3049 61.6327 22.0352 60.3486C21.7886 59.1731 21.9779 57.756 22.6747 56.765C23.6113 55.4328 24.7087 54.8036 26.3027 54.5274Z" fill="#A18BEC"/>
<path id="Vector_12" d="M107.649 109.579L106.895 109.134C106.465 108.812 106.12 108.338 106.052 107.793C105.925 106.776 106.537 105.666 107.501 105.283C108.275 104.976 109.129 104.919 109.913 104.563C110.91 104.109 111.674 103.485 112.429 102.697C113.569 101.507 114.223 99.8494 114.203 98.2024C114.189 97.1428 113.765 96.0667 114.479 95.1297L114.55 95.0392C114.649 94.9105 114.745 94.7844 114.869 94.6774C115.367 94.2461 116.061 93.9847 116.724 94.0718C117.665 94.1956 118.066 94.8614 118.593 95.555C118.397 95.9808 118.546 96.4621 118.565 96.9286C118.586 97.4744 118.578 98.0385 118.521 98.5821C118.054 103.069 114.886 107.112 110.674 108.694C109.742 109.044 108.795 109.288 107.81 109.425L107.649 109.579Z" fill="#F8A1D4"/>
<path id="Vector_13" d="M131.307 92.488C131.936 92.7077 132.531 92.8473 132.837 93.5028C133.179 94.2327 133.234 95.1096 133.379 95.8976C134.207 100.41 134.013 104.997 132.321 109.302C129.857 115.575 124.819 120.165 118.703 122.778C117.328 123.366 112.672 125.125 111.236 124.505C110.837 124.333 110.422 124.016 110.263 123.595L110.161 123.151C110.77 123.085 111.358 123.127 111.967 122.999C112.982 122.785 113.986 122.425 114.968 122.092C120.391 120.255 125.492 116.941 128.621 112.051C131.099 108.179 132.57 103.278 132.299 98.6617C132.202 97.0143 131.976 95.3384 131.647 93.7224C131.571 93.348 131.412 93.0086 131.338 92.647L131.307 92.488Z" fill="#A18BEC"/>
<path id="Vector_14" d="M24.6658 40.4408L24.6383 40.4054C24.225 39.4779 24.4304 38.0597 24.5962 37.0966C25.4483 32.1423 28.3222 27.9265 32.4183 25.0832C34.3815 23.7204 36.6495 22.847 38.9606 22.2774C39.6715 22.1022 40.4946 21.8724 41.2276 22.0236C41.925 22.1673 42.4588 22.7616 42.8441 23.3236L42.7634 23.4435C42.671 23.5882 42.6409 23.7178 42.6019 23.8827C42.465 24.4614 42.1012 24.9171 41.5829 25.2144C40.9678 25.567 40.2404 25.5708 39.5631 25.7257C39.0028 25.854 38.4499 26.0366 37.9042 26.2158C33.6855 27.5997 30.0842 31.0363 28.7448 35.3087C28.5581 35.9042 28.4002 36.5322 28.3235 37.1524C28.1642 38.4382 28.397 39.9443 27.0342 40.6471C26.544 40.9 25.9631 40.9791 25.4332 40.8051C25.3073 40.7637 25.2127 40.6945 25.1014 40.6243C24.9516 40.5296 24.8458 40.4668 24.6658 40.4408Z" fill="#F8A1D4"/>
<path id="Vector_15" d="M108.809 116.428C108.463 116.339 108.118 116.15 107.865 115.897C107.494 115.526 107.228 114.912 107.255 114.385C107.299 113.532 107.782 112.859 108.494 112.419C109.074 112.061 109.886 112.157 110.542 111.977C112.97 111.312 115.461 109.901 117.275 108.159C119.877 105.661 121.45 102.198 121.229 98.5638C121.168 97.5619 120.748 96.5202 120.8 95.537C120.83 94.9652 121.154 94.2373 121.608 93.8771C122.162 93.4365 122.888 93.2197 123.594 93.334C124.349 93.4563 124.831 94.0911 125.223 94.6876L125.21 94.7708C125.114 95.4437 125.268 96.1583 125.348 96.8309C125.446 97.6627 125.504 98.5075 125.491 99.3455C125.411 104.425 122.556 109.405 118.586 112.456C115.833 114.572 112.267 116.082 108.809 116.428Z" fill="#F8A1D4"/>
<path id="Vector_16" d="M128.287 69.2204C129.793 69.0964 131.18 69.3424 132.445 70.2196C133.803 71.1617 134.846 72.7953 135.102 74.4291C135.365 76.1109 134.925 77.8901 133.916 79.2586C132.841 80.7158 131.399 81.4587 129.639 81.7416C129.08 81.7957 128.549 81.7864 127.991 81.7174C126.359 81.515 124.925 80.6986 123.917 79.4003C122.887 78.0741 122.415 76.3158 122.65 74.6495L122.67 74.5136C122.832 73.3675 123.287 72.3255 124.026 71.4326C125.145 70.0803 126.561 69.4162 128.287 69.2204Z" fill="#A18BEC"/>
<path id="Vector_17" d="M17.0039 39.9001L16.9769 39.8896C16.4765 38.554 16.7187 37.1047 16.9283 35.7197C17.2014 33.9128 17.571 32.1763 18.1778 30.4514C20.3465 24.2876 25.0015 19.2295 30.866 16.4196C32.6523 15.5637 34.5412 14.9279 36.4718 14.4863C37.4757 14.2568 38.4321 13.961 39.4381 14.3379C40.0999 14.5859 40.6248 15.1032 40.9127 15.746C40.7866 16.7764 40.8078 17.566 39.9287 18.2869C39.3863 18.7317 38.3203 18.8207 37.6405 18.978C36.8502 19.161 36.0639 19.3702 35.3 19.6443C33.3105 20.3585 31.3237 21.3202 29.6198 22.5778C25.4307 25.6696 22.2488 30.7871 21.5952 35.9788C21.4111 37.4415 21.7127 39.4181 20.3694 40.3872C19.8749 40.744 19.2083 40.9326 18.6036 40.8125L18.2462 40.7026L18.1339 40.6631C17.6789 40.4911 17.4341 40.0935 17.0039 39.9001Z" fill="#F8A1D4"/>
<path id="Vector_18" d="M110.161 123.151C109.622 122.779 109.14 122.426 108.962 121.757C108.811 121.19 108.931 120.467 109.234 119.969C109.875 118.916 111.512 118.863 112.606 118.573C115.745 117.744 119.177 116.009 121.609 113.842C125.335 110.52 127.813 105.627 128.008 100.612C128.06 99.2857 127.99 97.9801 127.764 96.671C127.63 95.8886 127.308 94.9866 127.328 94.1986C127.339 93.7924 127.51 93.3719 127.722 93.0301C128.037 92.5232 128.57 92.089 129.157 91.9509C130.016 91.7487 130.598 92.0571 131.307 92.488L131.338 92.6471C131.412 93.0086 131.572 93.348 131.648 93.7225C131.976 95.3384 132.202 97.0143 132.299 98.6617C132.57 103.278 131.099 108.179 128.621 112.051C125.492 116.941 120.391 120.255 114.968 122.092C113.986 122.425 112.983 122.785 111.967 122.999C111.358 123.127 110.77 123.085 110.161 123.151Z" fill="#F8A1D4"/>
<path id="Vector_19" d="M122.048 24C124.163 24.7818 126.142 26.9926 127.067 29.015C127.291 29.5032 127.464 29.9774 127.603 30.4965C128.199 32.724 128.125 34.9923 127.372 37.1691C126.763 38.9297 125.862 40.598 125.069 42.281L121.354 50.1803L105.013 82.8879L89.5625 113.882L84.5978 123.895C83.8358 125.431 83.1725 127.033 82.3196 128.519C80.93 130.941 78.3696 132.953 75.662 133.666C73.9747 134.111 72.09 134.129 70.4104 133.615C68.667 133.082 67.0336 132.22 65.3961 131.427L58.1238 127.897L38.5613 118.443L31.8327 115.16C30.4815 114.497 29.0873 113.876 27.7938 113.106C26.339 112.238 25.1721 111.162 24.0183 109.926L24 109.769L24.6264 110.318C26.7707 112.052 29.6621 113.069 32.1183 114.292L50.3001 123.151L61.2015 128.467C62.8641 129.269 64.5339 130.238 66.2643 130.876C67.6861 131.401 69.2584 131.601 70.7644 131.445C73.4782 131.164 76.4261 129.72 78.1351 127.557C79.0715 126.372 79.6911 124.944 80.3376 123.588L82.149 119.919L91.5189 100.773L109.79 64.1797L112.237 59.1145L120.59 42.2148C121.73 39.8608 123.035 37.5266 124.033 35.1139C124.714 33.4701 124.987 31.5101 124.754 29.7456L124.466 28.2308C124.214 27.2675 123.836 26.3504 123.318 25.4999L123.229 25.3551C122.904 24.8198 122.496 24.4314 122.048 24Z" fill="url(#paint0_linear_204_1517)"/>
<path id="Vector_20" d="M122.048 22C124.163 22.7818 126.142 24.9926 127.067 27.015C127.291 27.5032 127.464 27.9774 127.603 28.4965C128.199 30.724 128.125 32.9923 127.372 35.1691C126.763 36.9297 125.862 38.598 125.069 40.281L121.354 48.1803L105.013 80.8879L89.5625 111.882L84.5978 121.895C83.8358 123.431 83.1725 125.033 82.3196 126.519C80.93 128.941 78.3696 130.953 75.662 131.666C73.9747 132.111 72.09 132.129 70.4104 131.615C68.667 131.082 67.0336 130.22 65.3961 129.427L58.1238 125.897L38.5613 116.443L31.8327 113.16C30.4815 112.497 29.0873 111.876 27.7938 111.106C26.339 110.238 25.1721 109.162 24.0183 107.926L24 107.769L24.6264 108.318C26.7707 110.052 29.6621 111.069 32.1183 112.292L50.3001 121.151L61.2015 126.467C62.8641 127.269 64.5339 128.238 66.2643 128.876C67.6861 129.401 69.2584 129.601 70.7644 129.445C73.4782 129.164 76.4261 127.72 78.1351 125.557C79.0715 124.372 79.6911 122.944 80.3376 121.588L82.149 117.919L91.5189 98.7726L109.79 62.1797L112.237 57.1145L120.59 40.2148C121.73 37.8608 123.035 35.5266 124.033 33.1139C124.714 31.4701 124.987 29.5101 124.754 27.7456L124.466 26.2308C124.214 25.2675 123.836 24.3504 123.318 23.4999L123.229 23.3551C122.904 22.8198 122.496 22.4314 122.048 22Z" fill="url(#paint1_linear_204_1517)"/>
<path id="Vector_21" d="M119.311 46.8168C119.421 46.8123 119.531 46.8156 119.639 46.8362C119.887 46.8836 120.106 47.1043 120.224 47.3192C120.365 47.5735 120.403 47.8973 120.329 48.1769L120.3 48.2767C120.104 48.9707 119.694 49.6333 119.369 50.2762L117.863 53.2879L113.79 61.3949C113.541 61.8649 113.296 62.1864 112.778 62.3467C112.637 62.3433 112.507 62.3366 112.373 62.2855C112.088 62.177 111.849 61.9425 111.747 61.6536C111.644 61.3596 111.725 61.0671 111.829 60.7859C112.306 59.4904 113.09 58.2213 113.693 56.9726L118.095 48.067C118.408 47.47 118.637 47.0256 119.311 46.8168Z" fill="#3C23A0"/>
<path id="Vector_22" d="M20.4017 100.755C20.3376 99.917 20.3683 98.9688 20.469 98.1353C20.6507 96.6313 21.0702 95.1382 21.6834 93.7527L24.4041 88.3328L29.1262 78.7613L44.502 47.5102L58.526 18.7049L62.2671 10.9115C62.8137 9.78494 63.3193 8.61592 63.9349 7.52608C64.909 5.80176 66.1873 4.28269 67.7527 3.06695C70.5653 0.882815 74.5822 -0.38428 78.1466 0.104386C79.4379 0.281473 80.6949 0.537056 81.9128 1.01627C82.6581 1.3093 83.366 1.72325 84.0817 2.08206L87.1466 3.56266L96.7516 8.23821L111.189 15.2408L119.5 19.2886L119.427 19.4323C119.088 20.0756 118.231 20.4631 118.188 21.2336C118.391 21.5292 118.71 21.6967 119.007 21.8865C119.768 22.3717 120.641 22.7154 121.347 23.281C121.789 23.7061 122.193 24.089 122.514 24.6165L122.602 24.7592C123.114 25.5974 123.487 26.5012 123.737 27.4506L124.021 28.9435C124.25 30.6825 123.981 32.6141 123.309 34.2342C122.322 36.6119 121.033 38.9123 119.907 41.2323L111.654 57.8875L109.237 62.8794L91.1854 98.9429L81.9283 117.812L80.1387 121.428C79.4999 122.764 78.8878 124.172 77.9626 125.34C76.2742 127.471 73.3618 128.895 70.6806 129.172C69.1928 129.325 67.6394 129.128 66.2347 128.611C64.5251 127.981 62.8753 127.027 61.2328 126.236L50.4626 120.998L32.4994 112.267C30.0728 111.062 27.2162 110.059 25.0977 108.35L24.4788 107.809L24.4736 107.789C24.018 107.315 23.6676 106.757 23.2893 106.221C22.6634 105.335 22.0386 104.455 21.6011 103.456C21.195 102.528 21.0444 101.557 20.4017 100.755Z" fill="#9077E4"/>
<path id="Vector_23" d="M26.6442 106.527C26.5578 106.184 25.7459 105.625 25.4635 105.306C24.3775 104.079 23.5723 102.39 23.4285 100.748C23.2648 98.8788 23.6064 96.9995 24.3277 95.2745C25.0886 93.455 26.0826 91.7209 26.9493 89.9489L33.4495 76.8389L50.5279 42.1644L62.3682 17.7925L64.9805 12.4211C65.9135 10.4852 66.7443 8.40016 68.153 6.75227C69.9611 4.63718 72.6818 3.18287 75.4692 2.98775C77.1332 2.87129 78.77 3.02691 80.3452 3.59081C81.3887 3.96422 82.3881 4.49771 83.3833 4.98294L88.2382 7.37251L103.034 14.5743L110.833 18.3614C112.767 19.2707 115.062 20.1005 116.789 21.3439C118.124 22.3057 119.023 23.4974 119.621 25.0253C119.782 25.4365 119.886 26.2329 120.207 26.5122L120.635 26.3614L120.822 28.2197L118.604 29.8423C116.914 31.234 115.469 33.0686 114.087 34.7594C114.123 33.8279 114.195 32.936 113.488 32.2068C113.187 31.8963 112.781 31.6464 112.398 31.4531L107.897 29.3863L98.7362 25.0325L79.7627 15.9096L74.4678 13.3806C73.8627 13.1176 73.2323 12.8595 72.5612 12.8662C71.6432 12.8754 70.609 13.3284 69.9989 14.012C68.9575 15.1786 68.2735 16.9756 67.576 18.3737L64.1164 25.3624L49.4109 55.1413L46.1948 61.6035L41.2589 71.9048L35.8727 82.8441C35.2314 84.178 34.4172 85.5 33.8885 86.8805L33.8387 87.0069C33.4983 87.93 33.8001 89.2178 34.2107 90.0694C34.4859 90.6404 34.9117 91.1466 35.4079 91.5382C36.7348 92.5852 38.5254 93.2608 40.0378 94.0263L44.0996 96.1165C40.9677 98.8037 37.6922 101.4 34.1705 103.562C32.9436 104.315 31.7109 105.062 30.4014 105.666C29.3533 106.149 28.2779 106.514 27.1851 106.878C26.9788 106.771 26.8105 106.694 26.6442 106.527Z" fill="#A18BEC"/>
<path id="Vector_24" d="M89.5347 13.1513C89.7797 13.0893 90.0195 13.1595 90.2496 13.2451C91.8446 13.838 93.364 14.7155 94.8949 15.4579L100.745 18.2276C101.24 18.4751 101.833 18.8001 101.999 19.3664C102.107 19.7362 102.09 20.1577 101.894 20.4978C101.635 20.9467 101.234 21.1901 100.754 21.3404C100.496 21.3385 100.252 21.3013 100.007 21.2171C99.1047 20.9078 98.2172 20.4108 97.362 19.9871L93.3092 18.011C91.8671 17.3136 90.2697 16.7401 88.887 15.9488C88.6275 15.8002 88.3723 15.5628 88.2537 15.283C88.1311 14.9934 88.1119 14.4282 88.2494 14.1403C88.5052 13.6046 88.9999 13.3371 89.5347 13.1513Z" fill="#4B5ECC"/>
<path id="Vector_25" d="M44.0998 96.1166L40.0379 94.0264C38.5255 93.2608 36.7349 92.5853 35.408 91.5382C34.9118 91.1466 34.486 90.6404 34.2109 90.0695C33.8002 89.2179 33.4984 87.93 33.8388 87.007L33.8886 86.8805C34.4173 85.5001 35.2315 84.178 35.8728 82.8441L41.259 71.9049L46.1949 61.6036L49.411 55.1413L64.1165 25.3625L67.5761 18.3738C68.2736 16.9756 68.9576 15.1787 69.999 14.012C70.6091 13.3284 71.6433 12.8755 72.5614 12.8662C73.2324 12.8595 73.8628 13.1177 74.4679 13.3806L79.7629 15.9097L98.7363 25.0325L107.897 29.3864L112.398 31.4532C112.782 31.6464 113.187 31.8963 113.488 32.2069C114.195 32.936 114.123 33.828 114.087 34.7594C113.515 37.3436 112.132 39.7413 110.954 42.0963L107.722 48.6578L95.7617 72.9009L90.7459 82.6763L82.6212 99.1966L78.0997 108.424C77.6962 109.165 77.229 109.84 76.5076 110.306C75.6282 110.874 74.6017 111.039 73.588 110.81C72.717 110.614 71.8906 110.162 71.0991 109.76L67.819 108.095L50.5372 99.3576L46.2154 97.1722C45.5305 96.8239 44.8174 96.3783 44.0998 96.1166Z" fill="#3762CC"/>
<path id="Vector_26" d="M45.1593 95.2422C43.502 94.52 41.8708 93.6059 40.2509 92.7936L37.833 91.561C37.2766 91.2804 36.6676 91.0502 36.1792 90.6551C35.6634 90.2376 35.3268 89.7087 35.0767 89.1003C34.8939 88.6556 34.8374 88.0538 34.9809 87.5878C35.4364 86.1072 36.3773 84.6311 37.057 83.2369L42.0733 72.9409L60.2758 35.6534L65.8884 24.2771C66.7456 22.5129 67.7063 20.7552 68.4293 18.9323L106.794 37.6649L110.739 39.4906L105.381 50.4034L95.6837 70.1357L89.9123 81.4234L81.0143 99.3573L78.1553 105.202C77.6936 106.132 77.2615 107.097 76.7439 107.995C76.4203 108.557 75.9892 108.972 75.3807 109.215C74.5301 109.553 73.8362 109.527 73.0131 109.155L45.1593 95.2422Z" fill="#B6DDF6"/>
<path id="Vector_27" d="M51.1645 88.5179C50.6097 89.1568 49.8766 89.7331 49.0808 90.0301C47.9548 90.4502 46.5592 90.3233 45.4894 89.81C44.3089 89.2439 43.4984 88.3207 43.0903 87.0788C42.6394 85.7073 42.7873 84.3964 43.4687 83.1374C44.0386 82.0838 45.0655 81.3007 46.2153 80.9861C47.6212 80.6011 48.8857 80.9706 50.1076 81.6757C51.1604 82.6154 52.0166 83.7818 52.1006 85.2487C52.1327 85.8076 52.1257 86.3518 51.9587 86.888L51.9201 87.018C51.7499 87.5754 51.485 88.0381 51.1645 88.5179Z" fill="#A18BEC"/>
<path id="Vector_28" d="M69.1627 65.1457L67.7822 63.4773C64.6115 59.1609 62.0235 54.289 61.2765 48.9209C61.0591 47.3586 60.9478 45.8627 61.1924 44.2938C61.5338 42.104 62.5938 40.2148 64.416 38.9137C65.8245 37.908 67.819 36.9862 69.5823 37.2954L69.708 37.3189C71.1343 37.5642 72.464 38.4587 73.358 39.5819C74.4265 40.924 74.9801 42.829 75.2374 44.4981C75.3358 45.1358 75.4482 45.8167 75.3551 46.4616C75.2613 47.1099 74.9109 47.7507 74.4717 48.2311C73.9063 48.8497 73.0291 49.3213 72.3405 49.8165L69.92 51.6429C70.7259 52.4754 71.2879 53.842 71.9142 54.8286C73.59 57.4691 75.4746 59.8485 77.8036 61.9483C77.914 62.0489 78.0779 62.1611 78.14 62.2961C79.8022 60.9048 81.357 60.1305 83.5657 60.3205C85.4822 60.4854 86.9456 61.4723 88.1545 62.9151C89.272 64.2487 89.8295 66.129 89.7064 67.8523C89.5954 69.4066 88.5968 71.2711 87.4039 72.2656C85.9336 73.4914 83.9028 74.2773 81.9753 74.083C80.4995 73.9342 79.1012 73.1934 77.8475 72.4492C74.5464 70.4897 71.7893 67.9148 69.1627 65.1457Z" fill="white"/>
<path id="Vector_29" d="M82.6955 62.3397C83.3362 62.3605 83.8862 62.4359 84.4851 62.6939C85.5524 63.1535 86.2287 63.9349 86.6467 65.001C86.7853 65.3543 86.9518 65.8633 86.762 66.225C86.5948 66.544 86.4049 66.6852 86.0686 66.7903C85.8918 66.7946 85.7223 66.8002 85.5538 66.7381C84.9792 66.5259 84.8588 65.9203 84.5567 65.4572C84.364 65.162 84.0856 64.8887 83.8257 64.6511C83.3049 64.1755 82.0916 63.9799 81.8471 63.325C81.7556 63.0795 81.848 62.8868 81.9463 62.6671C82.1972 62.4804 82.393 62.4134 82.6955 62.3397Z" fill="#3C23A0"/>
<path id="Vector_30" d="M67.7467 39.4927C68.5854 39.5121 69.303 39.6758 70.0388 40.0775C71.2024 40.7129 72.1854 41.9355 72.5423 43.2089L72.5742 43.3256L72.6771 43.693C72.7776 44.2258 72.8035 45.3745 72.4751 45.8321C72.262 46.1289 72.06 46.1713 71.7261 46.2302C71.6122 46.211 71.4909 46.1955 71.3825 46.1523C70.6665 45.8663 70.5998 44.7052 70.358 44.0655C70.202 43.6531 69.988 43.2589 69.7187 42.9092C69.499 42.6237 69.2123 42.3262 68.9184 42.1212C68.3978 41.7577 66.9061 41.2117 66.745 40.5683C66.6936 40.3635 66.7341 40.2203 66.8339 40.0403C67.0201 39.7053 67.4042 39.5954 67.7467 39.4927Z" fill="#3C23A0"/>
<path id="Vector_31" d="M69.1627 65.1457L67.7822 63.4773C64.6115 59.1609 62.0235 54.289 61.2765 48.9209C61.0591 47.3586 60.9478 45.8627 61.1924 44.2938C61.5338 42.104 62.5938 40.2148 64.416 38.9137C65.8245 37.908 67.819 36.9862 69.5823 37.2954L69.708 37.3189C71.1343 37.5642 72.464 38.4587 73.358 39.5819C74.4265 40.924 74.9801 42.829 75.2374 44.4981C75.3358 45.1358 75.4482 45.8167 75.3551 46.4616C75.2613 47.1099 74.9109 47.7507 74.4717 48.2311C73.9063 48.8497 73.0291 49.3213 72.3405 49.8165L69.92 51.6429L69.8058 51.5486C69.5912 51.362 69.4514 51.0788 69.3101 50.8356C70.9318 49.581 73.8228 48.1377 74.3757 46.0439L74.4202 45.8854C74.7924 44.468 73.9234 42.232 73.1668 41.0405C72.3813 39.8036 71.3783 38.6873 69.8793 38.3807C68.4779 38.0941 67.2279 38.3842 66.0179 39.1464L65.9083 39.2145C64.7365 39.9644 63.7911 41.3189 63.5136 42.6784C62.4967 47.6597 65.9749 55.8837 68.7204 60.0029C71.3707 63.9794 75.0248 67.7094 78.9832 70.3868C80.1174 71.1539 81.3183 71.9373 82.6794 72.2176C83.909 72.4712 85.1744 72.2226 86.2151 71.5315C87.4939 70.6821 88.2124 69.2838 88.4844 67.808C88.7771 66.2204 88.4932 64.877 87.5593 63.5407C86.7584 62.3945 85.6222 61.5642 84.2232 61.3327C82.7072 61.0816 81.1309 61.4167 79.8185 62.1936C79.5784 62.3356 79.095 62.7527 78.8544 62.8042C78.5512 62.8691 78.3669 62.634 78.2007 62.4036L78.14 62.2961C79.8022 60.9048 81.357 60.1305 83.5657 60.3205C85.4822 60.4854 86.9456 61.4723 88.1545 62.9151C89.272 64.2487 89.8295 66.129 89.7064 67.8523C89.5954 69.4066 88.5968 71.2711 87.4039 72.2656C85.9336 73.4914 83.9028 74.2773 81.9753 74.083C80.4995 73.9342 79.1012 73.1934 77.8475 72.4492C74.5464 70.4897 71.7893 67.9148 69.1627 65.1457Z" fill="#3C23A0"/>
<path id="Vector_32" d="M106.795 37.665L110.739 39.4906L105.382 50.4034L95.684 70.1357L89.9126 81.4234L81.0146 99.3574L78.1556 105.202C77.694 106.132 77.2618 107.097 76.7443 107.995C76.4207 108.557 75.9895 108.972 75.381 109.215C74.5304 109.553 73.8365 109.527 73.0134 109.155L45.1597 95.2423L50.5168 90.7318C50.9165 90.3601 51.5925 89.8761 51.5929 89.2921C51.593 88.9274 51.402 88.761 51.165 88.5179C51.4855 88.0382 51.7504 87.5755 51.9206 87.0181L51.9592 86.8881C52.1262 86.3518 52.1332 85.8077 52.1011 85.2488C52.0171 83.7819 51.1609 82.6155 50.1082 81.6758L69.1632 65.1457C71.7898 67.9148 74.5469 70.4897 77.848 72.4492C79.1017 73.1934 80.5 73.9342 81.9758 74.083C83.9033 74.2772 85.9341 73.4914 87.4044 72.2656C88.5973 71.2711 89.5959 69.4066 89.7069 67.8523C89.83 66.129 89.2725 64.2487 88.155 62.9151C86.9461 61.4723 85.4827 60.4854 83.5662 60.3205C81.3575 60.1305 79.8027 60.9048 78.1405 62.2961C78.0784 62.1611 77.9145 62.0489 77.8041 61.9483L106.795 37.665Z" fill="#B6DDF6"/>
<path id="Vector_33" d="M70.6118 92.1325C71.6467 92.0396 72.6599 92.1761 73.5583 92.7304C74.691 93.4296 75.369 94.3865 75.6725 95.694C75.9732 96.9904 75.7115 98.2503 75 99.3747C74.3319 100.431 73.3681 100.955 72.1797 101.226C71.022 101.321 69.9949 101.21 68.976 100.616C67.9555 100.021 67.1118 99.0265 66.8148 97.87C66.4969 96.6321 66.7163 95.3072 67.3851 94.2249C68.1544 92.9796 69.2238 92.4377 70.6118 92.1325Z" fill="#A18BEC"/>
<path id="Vector_34" d="M59.111 86.3866C60.0627 86.2935 60.9835 86.4155 61.8272 86.8847C62.9265 87.496 63.7924 88.5795 64.1191 89.7975L64.1534 89.9292L64.2587 90.3493C64.4813 91.5397 64.1039 92.7502 63.4313 93.7269C62.6836 94.8124 61.6481 95.3882 60.3676 95.6281C59.2085 95.7199 58.1615 95.5359 57.1736 94.8884C56.0802 94.1718 55.354 93.0048 55.1292 91.725C54.9167 90.5163 55.2619 89.2721 55.9524 88.2729C56.7118 87.174 57.8147 86.6125 59.111 86.3866Z" fill="#A18BEC"/>
</g>
<path id="Vector_35" d="M143.199 45.049C143.494 45.0366 143.769 45.0503 144.04 45.1831C144.463 45.3907 144.986 45.834 145.14 46.3026C145.288 46.7508 145.095 47.4005 145.257 47.9261C145.778 48.2434 146.494 47.7535 147.041 48.0695L147.129 48.1247C147.284 48.2174 147.436 48.3006 147.571 48.4247C147.905 48.7335 148.137 49.1663 148.146 49.6236C148.155 50.114 148.022 50.4342 147.685 50.7862C147.483 50.9975 147.067 51.3638 146.777 51.4244C146.459 51.4909 145.788 51.3672 145.415 51.3676C145.354 51.4087 145.273 51.4294 145.232 51.4909C145.218 51.5126 145.223 51.7963 145.222 51.8275C145.21 52.2676 145.27 52.7234 145.098 53.1404C144.856 53.7246 144.436 54.0107 143.876 54.2616L143.734 54.2607C143.165 54.2618 142.788 54.2048 142.373 53.7845C141.61 53.0109 142.076 52.5629 141.955 51.6713C141.954 51.6646 141.91 51.4305 141.873 51.4008C141.673 51.2404 141.069 51.3562 140.819 51.3315C140.399 51.2904 139.953 51.13 139.624 50.8597C139.286 50.5808 139.017 50.2816 139.001 49.8274C138.986 49.3806 139.113 48.8332 139.435 48.5053C140.116 47.8123 141.024 48.0248 141.908 48.0529L141.903 46.194C142.275 45.5577 142.56 45.378 143.199 45.049Z" fill="#3DE5DD"/>
<g id="Group 38">
<path id="Vector_36" d="M3.20437 76.0904C4.08565 75.9899 4.87838 76.035 5.67471 76.4619C6.69812 77.0106 7.36747 77.8807 7.70765 78.9878C8.00345 79.9505 7.80144 81.065 7.31156 81.9279C6.73528 82.943 5.7712 83.503 4.67347 83.7857C3.86109 84.0073 2.96953 83.8998 2.20638 83.5499C1.30219 83.1351 0.56863 82.2891 0.237652 81.3575C-0.14437 80.2829 -0.0646486 79.0661 0.468343 78.057C1.04102 76.9729 2.08157 76.4334 3.20437 76.0904Z" fill="#A18BEC"/>
<path id="Vector_37" d="M3.79127 77.0825C4.3753 77.0792 4.88286 77.1817 5.38609 77.4874C6.06627 77.9006 6.57671 78.6046 6.73886 79.3883C6.88605 80.1002 6.71019 80.9756 6.30472 81.5767C5.76884 82.3716 4.99505 82.715 4.08347 82.8877C3.51422 82.8554 3.07466 82.8218 2.56602 82.5471C1.84436 82.1572 1.31696 81.4572 1.12721 80.6574C0.950811 79.9132 1.11188 79.0444 1.53467 78.4089C2.07469 77.5972 2.87265 77.272 3.79127 77.0825Z" fill="#F9FAFD"/>
</g>
</g>
</g>
<defs>
<linearGradient id="paint0_linear_204_1517" x1="54.9381" y1="57.5886" x2="105.684" y2="85.2985" gradientUnits="userSpaceOnUse">
<stop stop-color="#51E7D6"/>
<stop offset="1" stop-color="#3BE5DD"/>
</linearGradient>
<linearGradient id="paint1_linear_204_1517" x1="54.9381" y1="55.5886" x2="105.684" y2="83.2985" gradientUnits="userSpaceOnUse">
<stop stop-color="#51E7D6"/>
<stop offset="1" stop-color="#3BE5DD"/>
</linearGradient>
</defs>
</svg>
