<svg width="174" height="151" viewBox="0 0 174 151" fill="none" xmlns="http://www.w3.org/2000/svg">
<g id="Group 45">
<path id="Vector" d="M123.124 96.7322C123.699 95.8739 124.229 94.961 124.712 93.9944C130.236 82.9335 126.172 68.2252 114.081 63.158C115.043 45.9804 104.659 32.6874 91.4082 28.8532C76.2402 24.464 60.7222 32.3345 53.8768 47.2765C48.4645 44.4911 42.8899 43.9795 37.2519 46.3104C34.7333 47.0797 32.3458 48.396 30.1119 50.2519C26.8324 52.9762 24.4398 56.6533 23.1183 60.694C21.9746 60.7173 20.8504 60.7433 19.7626 60.9719C13.4201 62.3095 8.99706 66.2402 7.03548 72.8029C5.81444 76.8893 6.56017 81.2335 7.06399 83.016C9.05261 90.0616 15.2544 94.7476 22.2146 94.6819C22.5611 94.679 23.0343 94.8987 23.2927 95.1834C22.2027 105.861 26.0942 115.967 33.1238 122.397C44.4029 132.713 60.7903 132.246 72.5126 121.811C76.2413 126.821 81.1034 129.671 87.266 129.718C93.3935 129.766 98.5219 127.09 102.669 122.167C104.187 122.804 105.598 123.617 107.12 123.997C113.08 125.482 118.32 123.754 122.665 118.82C124.328 116.932 126 114.418 126.643 109.701C127.308 104.841 125.976 100.147 123.124 96.7322Z" fill="#EFE8FC"/>
<path id="Vector_2" d="M29.2627 92.313C29.2861 93.3455 29.3773 94.3973 29.5382 95.4657C31.3779 107.692 43.1597 117.389 55.9662 114.583C65.0559 129.19 81.1944 134.096 94.2405 129.614C109.174 124.484 117.345 109.122 114.355 92.9608C120.385 92.128 125.24 89.3412 128.512 84.1925C130.131 82.1149 131.327 79.6652 132.088 76.8624C133.205 72.7478 133.048 68.3636 131.806 64.2977C132.728 63.6211 133.633 62.9534 134.392 62.1409C138.812 57.3998 140.171 51.6407 138.002 45.1434C136.652 41.098 133.544 37.9724 132.107 36.8037C126.429 32.1826 118.66 31.9145 113.003 35.9701C112.721 36.1717 112.208 36.264 111.833 36.1798C106.585 26.8168 97.5906 20.7855 88.1426 19.5673C72.9827 17.6119 59.8434 27.416 56.2525 42.694C50.3212 40.7389 44.7044 41.2025 39.6351 44.707C34.5945 48.1915 31.937 53.3294 31.3749 59.7418C29.7659 60.0932 28.1443 60.2392 26.681 60.8036C20.9504 63.015 17.6569 67.4419 16.9389 73.9773C16.6635 76.4785 16.7414 79.4958 18.9268 83.7255C21.1773 88.0843 24.966 91.1583 29.2627 92.313Z" fill="#EFE8FC"/>
<g id="Group 22">
<g id="Group">
<path id="Vector_3" d="M96.1859 126.469H88.1366C84.5057 126.469 81.0503 123.336 81.0503 119.532V109.815C87.8054 105.297 90.8462 101.703 90.8462 101.703L100.19 104.501C97.5199 112.892 90.401 115.691 90.401 115.691V120.875C95.8872 120.873 96.1859 126.469 96.1859 126.469Z" fill="#A795F9"/>
<path id="Vector_4" d="M96.1838 127.736H88.1364C83.6855 127.736 79.7812 123.901 79.7812 119.53V109.815C79.7812 109.394 79.993 108.997 80.346 108.762C86.8422 104.418 89.8523 100.917 89.8813 100.881C90.2089 100.497 90.7248 100.345 91.2117 100.486L100.555 103.285C100.881 103.382 101.152 103.607 101.312 103.907C101.471 104.208 101.5 104.559 101.399 104.883C99.0926 112.138 93.7186 115.463 91.6696 116.5V119.698C95.9576 120.344 97.3368 124.252 97.4509 126.402C97.469 126.748 97.3423 127.09 97.1051 127.342C96.8644 127.593 96.5332 127.736 96.1838 127.736ZM82.3153 110.489V119.53C82.3153 122.5 85.0883 125.202 88.1364 125.202H94.6525C94.2308 123.897 93.152 122.142 90.4008 122.142C89.7003 122.142 89.1337 121.575 89.1337 120.875V115.692C89.1337 115.171 89.4541 114.704 89.9374 114.514C89.9953 114.491 95.8454 112.083 98.5477 105.334L91.246 103.147C90.1057 104.342 87.2296 107.138 82.3153 110.489Z" fill="#3762CC"/>
</g>
<g id="Group_2">
<path id="Vector_5" d="M135.684 126.144L127.45 126.129L122.766 126.115H122.116V104.173C124.976 104.117 127.615 103.067 129.687 101.375L130.598 101.163V120.335C135.711 120.335 135.684 126.144 135.684 126.144Z" fill="#A795F9"/>
<path id="Vector_6" d="M135.684 127.411L122.118 127.383C121.417 127.383 120.851 126.817 120.851 126.116V104.175C120.851 103.485 121.404 102.923 122.094 102.908C124.552 102.861 126.965 101.967 128.887 100.396C129.037 100.274 129.215 100.188 129.401 100.142L130.312 99.9306C130.69 99.8401 131.086 99.9324 131.389 100.173C131.691 100.414 131.868 100.778 131.868 101.165V119.177C133.056 119.389 134.071 119.91 134.893 120.737C136.945 122.799 136.955 126.011 136.955 126.147C136.947 126.846 136.381 127.411 135.684 127.411ZM123.385 124.849L134.274 124.873C133.988 123.519 133.135 121.602 130.599 121.602C129.899 121.602 129.332 121.036 129.332 120.335V103.205C127.544 104.376 125.499 105.118 123.386 105.357L123.385 124.849Z" fill="#3762CC"/>
</g>
<g id="Group_3">
<path id="Vector_7" d="M142.218 48.5166C138.205 40.4855 132.661 40.0004 129.729 40.0004H125.191C120.59 40.0004 117.564 43.244 116.224 46.7971C115.553 48.5782 110.065 61.6267 108.162 66.5736C106.26 71.5204 103.55 72.6879 100.189 72.6879H82.9178C82.3078 72.6879 79.4642 72.6879 79.4642 72.6879C74.9952 71.658 68.1134 69.1963 66.3378 63.0169C64.6454 57.1252 66.4753 52.0462 71.3371 44.6866C72.1878 43.3978 72.0774 41.6186 70.8864 40.6339C69.5235 39.5081 67.536 39.832 66.5821 41.262C60.6162 50.209 58.8859 57.3822 60.9529 64.521C62.9005 71.2344 67.4238 76.8293 71.1724 79.5968C69.5741 82.0802 68.4085 83.7418 68.4085 89.2679C68.4085 105.848 61.9285 109.993 61.9285 109.993V119.329C61.9285 123.092 64.9803 126.144 68.7433 126.144H77.1256C77.1256 126.144 77.274 120.618 71.5996 120.618V115.519C86.936 108.704 90.5145 101.703 90.5145 101.703C99.0344 101.703 98.5601 107.229 112.192 107.229V119.235C112.192 123.034 115.299 126.137 119.1 126.128L127.436 126.108C127.436 126.108 126.976 120.618 121.864 120.618V104.465C128.73 104.465 134.294 98.8937 134.283 92.0282C134.274 85.9265 134.283 80.2068 134.292 74.0635C134.294 71.01 136.77 68.5429 139.824 68.5429C156.852 68.5429 155.023 54.7269 155.023 54.7269C155.023 54.7269 145.056 54.1947 142.218 48.5166Z" fill="#FCBA7F"/>
</g>
<g id="Group_4">
<path id="Vector_8" d="M154.677 54.5928C154.677 54.5928 145.051 54.1874 142.218 48.5219C138.211 40.4817 132.697 40.4148 129.769 40.4148H125.236C120.635 40.4148 117.556 43.2439 116.229 46.7934C115.552 48.5744 110.068 61.6176 108.16 66.5644C106.254 71.5113 103.545 71.4859 100.189 71.4859H82.9175C82.3093 71.4859 79.4639 71.4859 79.4639 71.4859C75.0004 70.4633 68.1204 69.189 66.3393 63.0131C64.6542 57.1287 66.4769 52.0425 71.3405 44.6792C72.1966 43.3941 72.0862 41.6112 70.8843 40.632C69.5304 39.5116 66.8045 39.8971 65.8506 41.3198C59.8811 50.2723 57.7959 57.5939 59.8557 64.7381C61.8033 71.4533 67.4308 76.831 71.1757 79.5949C69.5739 82.0819 68.5675 84.3264 68.5675 89.8524C68.5675 106.432 61.9319 109.991 61.9319 109.991V119.331C61.9319 123.088 64.9854 126.142 68.743 126.142H77.129C77.129 126.142 77.4493 120.209 71.7712 120.209V115.11C76.2746 113.106 77.9453 111.497 80.845 109.66C87.8354 105.198 90.516 101.701 90.516 101.701C99.0413 101.701 99.8395 106.543 113.476 106.543V118.549C113.476 122.348 115.303 126.142 119.102 126.127L122.114 126.113H122.764L127.434 126.1C127.434 126.1 127.178 121.052 122.3 120.886C122.217 120.873 121.705 120.962 121.622 120.962V104.811L122.3 104.722C125.16 104.666 127.613 103.373 129.685 101.701C132.491 99.4221 134.404 96.4645 134.404 92.5693C134.404 92.5548 134.404 92.5548 134.404 92.5403C134.39 86.4332 134.404 80.7135 134.404 74.5793C134.419 71.5257 136.772 68.541 139.825 68.541C153.849 68.541 154.729 59.0401 154.729 55.7241C154.733 55.0218 154.677 54.5928 154.677 54.5928Z" fill="#D0C6FF"/>
</g>
<g id="Group_5">
<path id="Vector_9" d="M109.518 63.0167V90.6487C109.518 92.7212 107.916 97.8201 105.48 100.32C103.044 102.821 102.209 103.773 98.4932 103.773C98.4932 103.773 91.7617 101.009 89.7417 101.701L71.2431 78.8762C67.594 76.1123 62.8282 71.2361 60.9295 64.5208C58.9239 57.3784 60.6055 50.207 66.4229 41.2545C67.3515 39.8319 69.29 39.5133 70.6096 40.6337C71.7807 41.6148 71.8893 43.3976 71.053 44.6828C66.3143 52.046 64.5369 57.1304 66.1786 63.0167C67.9162 69.1925 74.6206 71.665 78.9683 72.6877C78.9683 72.6877 81.7413 72.6877 82.335 72.6877H99.1648C102.436 72.6877 105.02 72.9827 106.879 68.0377C107.256 67.0295 107.781 65.5924 108.387 63.9488L109.518 63.0167Z" fill="#A795F9"/>
</g>
<g id="Group_6">
<path id="Vector_10" d="M128.297 53.5105C127.155 50.7375 124.074 49.2858 121.176 50.1311C121.176 50.1311 118.412 57.8908 118.412 64.2386C118.412 67.7663 120.485 71.9982 124.63 71.9982C128.775 71.9982 130.847 67.7663 130.847 64.2386C130.847 60.5823 129.549 56.5495 128.297 53.5105Z" fill="#A795F9"/>
</g>
<g id="Group_7">
<path id="Vector_11" d="M152.264 53.3438C151.531 53.3438 150.828 53.635 150.31 54.1533C149.791 54.6716 149.5 55.3746 149.5 56.1077C149.5 56.8407 149.791 57.5437 150.31 58.0621C150.828 58.5804 151.531 58.8716 152.264 58.8716C152.997 58.8716 153.7 58.5804 154.218 58.0621C154.737 57.5437 155.028 56.8407 155.028 56.1077C155.028 55.3746 154.737 54.6716 154.218 54.1533C153.7 53.635 152.997 53.3438 152.264 53.3438Z" fill="#3762CC"/>
</g>
<g id="Group_8">
<path id="Vector_12" d="M137.454 50.0656C136.974 50.0656 136.514 50.2563 136.174 50.5958C135.835 50.9352 135.644 51.3956 135.644 51.8757C135.644 52.3557 135.835 52.8161 136.174 53.1555C136.514 53.495 136.974 53.6857 137.454 53.6857C137.934 53.6857 138.395 53.495 138.734 53.1555C139.073 52.8161 139.264 52.3557 139.264 51.8757C139.264 51.3956 139.073 50.9352 138.734 50.5958C138.395 50.2563 137.934 50.0656 137.454 50.0656Z" fill="#3762CC"/>
</g>
<g id="Group_9">
<path id="Vector_13" d="M124.802 72.6876C120.203 72.6876 117.723 68.3345 117.723 64.2383C117.723 60.5115 118.675 56.3285 119.473 53.4758C119.577 53.1066 119.964 52.8948 120.342 52.9907C120.719 53.0921 120.941 53.4722 120.84 53.8397C120.064 56.6126 119.14 60.6671 119.14 64.2401C119.14 67.1742 120.898 71.3084 124.804 71.3084C128.71 71.3084 130.468 67.1742 130.468 64.2401C130.468 60.6038 129.076 56.542 127.908 53.7763C126.875 51.3255 124.102 50.044 121.463 50.797C121.084 50.9056 120.693 50.6938 120.585 50.3264C120.476 49.9607 120.692 49.577 121.066 49.4702C124.4 48.52 127.908 50.1454 129.217 53.2496C130.433 56.1312 131.883 60.3793 131.883 64.2401C131.881 68.3345 129.4 72.6876 124.802 72.6876Z" fill="#3762CC"/>
</g>
<g id="Group_10">
<path id="Vector_14" d="M98.7447 104.465C98.3627 104.465 98.0532 104.155 98.0532 103.773C98.0532 103.391 98.3627 103.082 98.7447 103.082C105.659 103.082 108.678 97.6842 108.678 89.9553C108.678 89.5734 108.988 89.2421 109.37 89.2421C109.752 89.2421 110.061 89.5299 110.061 89.91V89.9535C110.059 98.3629 106.35 104.465 98.7447 104.465Z" fill="#3762CC"/>
</g>
<g id="Group_11">
<path id="Vector_15" d="M109.52 87.843C109.138 87.843 108.829 87.5335 108.829 87.1516V84.3877C108.829 84.0057 109.138 83.6962 109.52 83.6962C109.902 83.6962 110.211 84.0057 110.211 84.3877V87.1516C110.211 87.5335 109.902 87.843 109.52 87.843Z" fill="#3762CC"/>
</g>
<g id="Group_12">
<path id="Vector_16" d="M109.52 81.4501C109.138 81.4501 108.829 81.1406 108.829 80.7587V63.5144C108.829 63.1325 109.138 62.823 109.52 62.823C109.902 62.823 110.211 63.1325 110.211 63.5144V80.7587C110.211 81.1406 109.902 81.4501 109.52 81.4501Z" fill="#3762CC"/>
</g>
<g id="Group_13">
<path id="Vector_17" d="M90.5181 102.392C90.3245 102.392 90.1308 102.311 89.9951 102.153L73.9219 83.5263C73.6721 83.2367 73.7047 82.8005 73.9943 82.5525C74.2821 82.3027 74.7201 82.3335 74.9681 82.6249L91.0413 101.25C91.291 101.54 91.2585 101.976 90.9688 102.224C90.8385 102.338 90.6792 102.392 90.5181 102.392Z" fill="#3762CC"/>
</g>
<g id="Group_14">
<path id="Vector_18" d="M77.1312 127.41H68.7435C64.289 127.41 60.6635 123.787 60.6635 119.332V109.992C60.6635 109.525 60.9205 109.096 61.3314 108.876C61.3767 108.85 67.2991 105.281 67.2991 89.8539C67.2991 84.9361 68.0376 82.4237 69.4965 79.9096C66.3615 77.4352 60.6906 72.1662 58.6399 65.0926C56.5185 57.7366 58.4172 50.1887 64.7976 40.619C65.4456 39.6507 66.6131 38.9791 67.9996 38.7764C69.4223 38.5646 70.7653 38.8904 71.6939 39.6561C73.3591 41.0172 73.6632 43.4807 72.3944 45.3849C67.3552 53.016 66.09 57.5393 67.5579 62.6671C69.0476 67.833 74.8596 69.1471 79.1042 70.1082L79.6056 70.2222H100.189C100.206 70.2222 100.224 70.2222 100.238 70.2222C103.471 70.2222 105.402 70.2023 106.979 66.1116C108.135 63.116 110.559 57.2551 112.505 52.549C113.757 49.519 114.78 47.0501 115.046 46.346C116.728 41.8444 120.538 39.1493 125.237 39.1493H129.769C132.754 39.1493 138.964 39.1493 143.355 47.9569C145.822 52.8947 154.641 53.3237 154.729 53.3273C155.343 53.3527 155.85 53.8197 155.933 54.426C155.933 54.426 156 54.9184 156 55.7256C156 59.9611 154.424 69.8095 139.827 69.8095C137.391 69.8095 135.684 72.3273 135.673 74.5862L135.67 80.6571C135.666 84.603 135.663 88.4855 135.673 92.5382C135.673 96.4859 133.927 99.8906 130.486 102.684C127.977 104.709 125.488 105.784 122.891 105.965V119.656C127.21 120.024 128.594 123.951 128.701 126.037C128.719 126.381 128.593 126.721 128.355 126.972C128.118 127.224 127.787 127.367 127.439 127.369L119.11 127.396C119.102 127.396 117.283 127.396 117.274 127.396C115.598 127.396 114.098 126.781 112.93 125.617C111.323 124.015 110.402 121.441 110.402 118.552V107.8C103.388 107.641 101.69 106.175 98.573 104.872C96.2724 103.911 94.2687 103.071 91.1029 102.98C90.0839 104.135 87.1679 107.131 81.5296 110.731C80.7151 111.247 80.002 111.743 79.2979 112.233C77.629 113.392 75.9095 114.586 73.0406 115.928V119.035C74.4542 119.251 75.6271 119.841 76.5339 120.8C78.5503 122.929 78.4055 126.08 78.3983 126.214C78.3603 126.884 77.8046 127.41 77.1312 127.41ZM63.1994 110.649V119.332C63.1994 122.388 65.6864 124.876 68.7435 124.876H75.7647C75.6362 124.145 75.3429 123.22 74.6823 122.531C74.0053 121.821 73.0532 121.477 71.7717 121.477C71.0712 121.477 70.5047 120.911 70.5047 120.21V115.113C70.5047 114.613 70.7997 114.159 71.2577 113.955C74.3691 112.57 76.0579 111.395 77.8516 110.15C78.5847 109.639 79.3268 109.125 80.1703 108.591C86.8403 104.332 89.4902 100.962 89.5155 100.93C89.7563 100.62 90.1273 100.437 90.5201 100.437C94.5384 100.437 96.9729 101.456 99.5504 102.533C102.629 103.822 104.307 105.281 111.669 105.281C112.369 105.281 112.936 105.847 112.936 106.548V118.554C112.936 120.742 113.602 122.712 114.717 123.823C115.412 124.514 116.27 124.864 117.273 124.864C117.278 124.864 119.093 124.864 119.099 124.864L125.892 124.842C125.496 123.696 124.545 122.234 122.259 122.156L122.058 122.19C121.859 122.219 121.68 122.234 121.624 122.234C120.923 122.234 120.357 121.667 120.357 120.967V104.816C120.357 104.18 120.827 103.645 121.457 103.56L122.136 103.469C124.496 103.417 126.659 102.521 128.891 100.718C131.747 98.3973 133.139 95.7311 133.139 92.5726C133.13 88.491 133.134 84.6066 133.136 80.6553L133.139 74.5844C133.159 70.6223 136.22 67.2791 139.827 67.2791C151.073 67.2791 153.453 61.0272 153.464 55.7654C150.664 55.4523 143.621 54.1672 141.085 49.0936C137.395 41.687 132.433 41.687 129.767 41.687H125.235C120.051 41.687 118.038 45.5713 117.417 47.242C117.144 47.9587 116.11 50.4548 114.845 53.5192C112.903 58.2144 110.487 64.0572 109.343 67.0257C107.14 72.7346 103.656 72.7599 100.278 72.7599C100.264 72.7599 100.249 72.7599 100.235 72.7599H79.4644C79.3685 72.7599 79.2743 72.7491 79.182 72.7273L78.5449 72.5825C73.9582 71.5454 67.0294 69.9779 65.1216 63.3694C63.1976 56.6506 65.6701 50.9707 70.2839 43.9857C70.7545 43.2798 70.8052 42.2064 70.0866 41.6164C69.7191 41.3123 69.0458 41.1856 68.3688 41.2833C67.719 41.3792 67.1453 41.6707 66.9063 42.0272C60.9784 50.9163 59.1793 57.8144 61.0744 64.3885C63.1903 71.6866 69.9182 77.095 71.9274 78.5774C72.4668 78.9756 72.6025 79.7213 72.2405 80.2824C70.8323 82.469 69.835 84.4365 69.835 89.8539C69.835 104.075 65.0112 109.22 63.1994 110.649Z" fill="#3762CC"/>
</g>
</g>
<g id="Group 43">
<g id="Group_15">
<path id="Vector_19" d="M55.798 94.8049C59.9128 94.4226 61.4091 89.9888 61.4091 89.4537C61.4091 88.9185 59.9128 88.6892 59.3359 87.3132C58.2901 84.819 58.6652 83.1239 57.6684 81.4268C56.5461 79.5157 54.8786 78.7512 53.1794 78.7512L54.6757 74.9289C46.6397 76.0409 42.7053 82.4675 42.7053 90.9826C42.7053 90.9826 41.5831 92.1293 41.209 94.0404C29.6391 94.0404 20.2597 103.624 20.2597 115.445V120.797C20.2597 121.642 19.59 122.325 18.7634 122.325C14.2184 122.325 10.5337 118.56 10.5337 113.916V107.418C10.5337 106.298 9.58988 105.402 8.47071 105.518C7.49729 105.617 6.79297 106.529 6.79297 107.529V113.535C6.79297 120.502 12.3195 126.149 19.1375 126.149H47.1932C47.1932 124.46 45.8528 123.091 44.2006 123.091H35.9709C40.9287 123.091 44.9487 118.983 44.9487 113.917L46.445 118.504L51.6821 126.149H56.9192C56.9192 124.46 55.5788 123.091 53.9266 123.091L50.934 113.153C50.934 113.153 54.6747 109.331 54.6747 103.215C54.6747 99.3927 53.1784 96.717 53.1784 96.717L53.9266 94.8059L55.798 94.8049Z" fill="#D0C6FF"/>
</g>
<g id="Group_16">
<path id="Vector_20" d="M55.7694 86.9584C55.7694 86.9584 54.3587 87.4282 53.4168 86.4885C52.476 85.5477 52.947 84.136 52.947 84.136C52.947 84.136 54.3576 83.6661 55.2995 84.6059C56.2403 85.5467 55.7694 86.9584 55.7694 86.9584Z" fill="#3762CC"/>
</g>
<g id="Group_17">
<path id="Vector_21" d="M44.839 114.463C44.5943 114.463 44.3793 114.286 44.3365 114.039C43.6087 109.742 41.7719 106.968 39.028 106.017C38.762 105.924 38.6213 105.634 38.7141 105.368C38.8058 105.102 39.0943 104.961 39.3624 105.053C41.5365 105.807 44.3385 107.948 45.3425 113.866C45.3894 114.144 45.2028 114.408 44.9246 114.454C44.895 114.461 44.8675 114.463 44.839 114.463Z" fill="#3762CC"/>
</g>
<g id="Group_18">
<path id="Vector_22" d="M33.2519 106.403C33.0541 106.403 32.8656 106.287 32.783 106.092C32.6729 105.833 32.7932 105.534 33.0521 105.425C34.2681 104.907 35.5636 104.635 36.8 104.635C37.0803 104.6 37.3219 104.859 37.3219 105.145C37.3219 105.426 37.0935 105.654 36.8122 105.654C36.8081 105.654 36.8041 105.654 36.8 105.654C35.6992 105.654 34.5423 105.899 33.4506 106.362C33.3864 106.39 33.3181 106.403 33.2519 106.403Z" fill="#3762CC"/>
</g>
<g id="Group_19">
<path id="Vector_23" d="M29.4733 109.28C29.3877 109.28 29.3011 109.258 29.2205 109.212C28.9769 109.073 28.8913 108.762 29.0309 108.517C29.4366 107.809 30.1124 107.121 30.9849 106.527C31.2173 106.369 31.5353 106.428 31.6933 106.661C31.8513 106.894 31.7912 107.21 31.5588 107.368C30.8228 107.869 30.2398 108.456 29.9157 109.023C29.8229 109.188 29.6507 109.28 29.4733 109.28Z" fill="#3762CC"/>
</g>
<g id="Group_20">
<path id="Vector_24" d="M10.7846 113.067H6.70752V107.971C6.70752 106.845 7.61978 105.932 8.74608 105.932C9.87239 105.932 10.7846 106.845 10.7846 107.971V113.067Z" fill="white"/>
</g>
<g id="Group_21">
<path id="Vector_25" d="M10.5302 113.322H8.49164C8.35098 113.322 8.23682 113.208 8.23682 113.067C8.23682 112.927 8.35098 112.813 8.49164 112.813H10.5302C10.6709 112.813 10.785 112.927 10.785 113.067C10.785 113.208 10.6709 113.322 10.5302 113.322Z" fill="#3762CC"/>
</g>
<path id="Vector_26" d="M56.8417 127.258H51.6047C51.3692 127.258 51.1491 127.142 51.0155 126.947L45.7785 119.303C45.7397 119.247 45.7102 119.186 45.6888 119.12L45.1139 117.358C44.3892 119.634 42.8755 121.551 40.9043 122.773H44.1231C46.1668 122.773 47.8293 124.465 47.8293 126.544C47.8293 126.938 47.5102 127.257 47.1158 127.257H19.059C11.8588 127.257 6 121.279 6 113.93V107.924C6 106.531 7.01826 105.336 8.31785 105.203C9.04357 105.135 9.76217 105.366 10.3003 105.852C10.8518 106.35 11.1678 107.064 11.1678 107.815V114.312C11.1678 118.556 14.5395 122.008 18.6839 122.008C19.1161 122.008 19.4667 121.643 19.4667 121.193V115.841C19.4667 103.838 28.8798 94.0369 40.5648 93.7311C40.9318 92.4275 41.5841 91.5132 41.9133 91.1106C42.002 81.8565 46.6917 75.7001 54.4984 74.6186C54.7512 74.5819 54.9999 74.6849 55.1569 74.8836C55.3138 75.0824 55.3526 75.3494 55.2608 75.5849L54.1131 78.5174C55.8143 78.8048 57.2433 79.8251 58.2045 81.4621C58.7855 82.4518 58.9496 83.4181 59.1239 84.4414C59.2799 85.3567 59.4409 86.3036 59.9149 87.435C60.1626 88.0262 60.66 88.3463 61.0993 88.6286C61.5416 88.913 62.0441 89.2361 62.0441 89.8507C62.0441 90.6641 60.3185 95.4914 55.7858 95.9124C55.7644 95.9144 55.7419 95.9155 55.7195 95.9155H54.3363L53.8828 97.0754C54.2864 97.9122 55.3118 100.36 55.3118 103.611C55.3118 109.001 52.572 112.656 51.6567 113.727L54.3934 122.814C56.1802 123.082 57.5573 124.653 57.5573 126.545C57.5552 126.939 57.2352 127.258 56.8417 127.258ZM51.9808 125.831H56.0202C55.7256 124.886 54.8633 124.201 53.8491 124.201C53.5342 124.201 53.2569 123.995 53.1662 123.693L50.1736 113.755C50.0992 113.506 50.1654 113.236 50.3459 113.052C50.3815 113.015 53.8838 109.343 53.8838 103.611C53.8838 100.017 52.4925 97.4862 52.4782 97.4617C52.3732 97.2752 52.3589 97.052 52.4364 96.8532L53.1846 94.942C53.2916 94.6679 53.5556 94.4885 53.8491 94.4885H55.6849C58.9506 94.1654 60.344 90.8955 60.5825 89.9975C60.5061 89.9435 60.4082 89.8803 60.3277 89.8283C59.8068 89.493 59.0189 88.9864 58.6 87.9865C58.0628 86.7042 57.8794 85.6289 57.7183 84.6809C57.5542 83.7136 57.4237 82.9492 56.9753 82.1857C55.8479 80.2654 54.2456 79.8628 53.101 79.8628C52.8655 79.8628 52.6443 79.7466 52.5118 79.5509C52.3793 79.3552 52.3508 79.1075 52.4364 78.8894L53.4679 76.2545C47.0118 77.6938 43.3403 83.1357 43.3403 91.3807C43.3403 91.5672 43.267 91.7456 43.1365 91.8791C43.1283 91.8873 42.1549 92.9147 41.8298 94.5761C41.7645 94.9105 41.471 95.152 41.1295 95.152C29.9715 95.152 20.8948 104.434 20.8948 115.843V121.195C20.8948 122.431 19.903 123.437 18.685 123.437C13.7537 123.437 9.74178 119.344 9.74178 114.315V107.817C9.74178 107.47 9.59704 107.142 9.34528 106.914C9.10269 106.695 8.79181 106.594 8.46462 106.625C7.88363 106.685 7.42801 107.256 7.42801 107.926V113.932C7.42801 120.494 12.6457 125.832 19.059 125.832H46.2942C45.9996 124.888 45.1373 124.202 44.1231 124.202H35.8925C35.498 124.202 35.179 123.882 35.179 123.488C35.179 123.094 35.498 122.775 35.8925 122.775C40.4497 122.775 44.1568 118.979 44.1568 114.315C44.1568 113.964 44.4116 113.664 44.7582 113.61C45.1047 113.558 45.4401 113.759 45.5481 114.094L47.0128 118.583L51.9808 125.831Z" fill="#3762CC" stroke="#3762CC" stroke-width="0.824176"/>
</g>
<g id="Group 44">
<path id="Vector_27" d="M92.6274 13.9999C92.9075 14.0281 93.1606 14.0717 93.4165 14.1957C93.9216 14.4401 94.2677 14.9749 94.4262 15.5023C94.5759 16.0006 94.4643 16.5574 94.2065 17.0001C93.8436 17.6238 93.2482 17.8166 92.5892 17.9764C92.2122 17.8818 91.7748 17.794 91.4507 17.5717C91.0575 17.302 90.838 16.9081 90.7462 16.4478C90.6181 15.8065 90.823 15.225 91.2036 14.7126C91.5566 14.2371 92.0711 14.0981 92.6274 13.9999Z" fill="#F9AC8E"/>
<path id="Vector_28" d="M145.762 79.0064C146.104 78.986 146.456 79.0102 146.78 79.1301C147.303 79.3237 147.79 79.8471 147.986 80.3639C148.183 80.8806 148.198 81.4941 147.933 81.9913C147.603 82.6073 147.024 82.9092 146.398 83.1343C146.057 83.149 145.725 83.1625 145.398 83.0512C144.822 82.8553 144.363 82.3941 144.129 81.837C143.911 81.3193 143.987 80.6507 144.226 80.1512C144.538 79.4994 145.108 79.2216 145.762 79.0064Z" fill="#0F57F4"/>
<path id="Vector_29" d="M21.0347 45.3815C21.4166 45.3958 21.796 45.4528 22.1466 45.6124C22.7053 45.8669 23.0561 46.314 23.2558 46.8867C23.4341 47.3979 23.3615 48.0714 23.1097 48.5467C22.7251 49.2723 22.1601 49.5228 21.4162 49.7371C21.0468 49.7192 20.6812 49.7032 20.3429 49.5389C19.7848 49.268 19.2957 48.8091 19.1036 48.2068C18.9261 47.6502 18.9728 47.0705 19.2739 46.5637C19.6951 45.8548 20.2659 45.5693 21.0347 45.3815Z" fill="#F9AC8E"/>
<path id="Vector_30" d="M171.038 37.7063C171.268 37.6947 171.493 37.6886 171.721 37.7265C172.204 37.8062 172.578 38.0214 172.847 38.4404C173.118 38.8642 173.176 39.3545 173.038 39.8364C172.874 40.4057 172.448 40.6665 171.955 40.9336C171.599 40.9821 171.176 41.0197 170.83 40.8999C170.455 40.7702 170.16 40.4497 170.001 40.0945C169.809 39.6651 169.784 39.1319 169.962 38.6925C170.167 38.187 170.555 37.9196 171.038 37.7063Z" fill="#F9FAFD"/>
<path id="Vector_31" d="M166.12 14.7483C166.335 14.729 166.547 14.7138 166.761 14.7607C167.248 14.8675 167.669 15.0989 167.929 15.5367C168.154 15.9148 168.167 16.4134 168.029 16.8225C167.867 17.3027 167.429 17.5547 167.007 17.7747C166.631 17.8447 166.251 17.8687 165.884 17.7345C165.537 17.6072 165.281 17.31 165.15 16.9712C164.977 16.5234 165 15.9496 165.203 15.5108C165.393 15.1001 165.707 14.8964 166.12 14.7483Z" fill="#F9FAFD"/>
<path id="Vector_32" d="M24.2518 147.279C24.4238 147.278 24.5773 147.28 24.7451 147.325C25.2223 147.451 25.5885 147.743 25.8186 148.181C26.0297 148.582 26.0632 148.992 25.9151 149.419C25.7061 150.022 25.2626 150.237 24.7287 150.513C24.4668 150.518 24.1821 150.484 23.9383 150.385C23.5159 150.213 23.1955 149.87 23.0243 149.45C22.8696 149.071 22.9086 148.584 23.0732 148.213C23.3205 147.658 23.7229 147.488 24.2518 147.279Z" fill="#F9FAFD"/>
<path id="Vector_33" d="M42.552 27.0386L42.8127 27.007C43.2358 26.9704 43.5289 27.0743 43.8456 27.3652C44.4513 27.9216 44.3541 28.7443 44.3882 29.4997C44.9986 29.5439 45.9058 29.5558 46.3872 29.9752C46.6924 30.2408 46.8479 30.5671 46.8693 30.9683C46.8906 31.3656 46.7988 31.7359 46.5192 32.0314C45.9749 32.6067 45.2155 32.5737 44.4867 32.5865C44.4335 33.051 44.4322 33.5706 44.2931 34.0162C44.1279 34.5457 43.7553 34.8157 43.2776 35.0464L43.0141 35.082C42.6074 35.1041 42.2037 34.9265 41.9086 34.6543C41.3702 34.1577 41.4272 33.2889 41.3789 32.6118C40.8199 32.5359 40.1446 32.4913 39.6612 32.185C39.3956 32.0166 39.0915 31.7365 39.0327 31.4125C38.9457 30.9347 39.0278 30.4878 39.3341 30.1083C39.7783 29.5583 40.5887 29.5857 41.2357 29.497C41.4718 29.0282 41.4173 28.3975 41.6089 27.8879C41.7811 27.4292 42.1211 27.2258 42.552 27.0386Z" fill="#4B5ECC"/>
<path id="Vector_34" d="M145.199 97.0036C145.494 96.9911 145.769 97.0048 146.04 97.1376C146.463 97.3452 146.986 97.7885 147.14 98.2571C147.288 98.7054 147.095 99.3551 147.257 99.8807C147.778 100.198 148.494 99.708 149.041 100.024L149.129 100.079C149.284 100.172 149.436 100.255 149.571 100.379C149.905 100.688 150.137 101.121 150.146 101.578C150.155 102.069 150.022 102.389 149.685 102.741C149.483 102.952 149.067 103.318 148.777 103.379C148.459 103.445 147.788 103.322 147.415 103.322C147.354 103.363 147.273 103.384 147.232 103.445C147.218 103.467 147.223 103.751 147.222 103.782C147.21 104.222 147.27 104.678 147.098 105.095C146.856 105.679 146.436 105.965 145.876 106.216L145.734 106.215C145.165 106.216 144.788 106.159 144.373 105.739C143.61 104.965 144.076 104.517 143.955 103.626C143.954 103.619 143.91 103.385 143.873 103.355C143.673 103.195 143.069 103.311 142.819 103.286C142.399 103.245 141.953 103.085 141.624 102.814C141.286 102.535 141.017 102.236 141.001 101.782C140.986 101.335 141.113 100.788 141.435 100.46C142.116 99.7668 143.024 99.9793 143.908 100.007L143.903 98.1486C144.275 97.5122 144.56 97.3326 145.199 97.0036Z" fill="#3DE5DD"/>
<path id="Vector_35" d="M126.83 15.3489C127.462 15.272 128.017 15.2984 128.6 15.5732C129.295 15.9003 129.791 16.6049 130.021 17.3186C130.264 18.0724 130.249 18.8934 129.855 19.5961C129.4 20.4069 128.697 20.8468 127.827 21.1033C127.196 21.174 126.636 21.1152 126.059 20.8407C125.336 20.496 124.743 19.816 124.504 19.0499C124.276 18.3244 124.403 17.4072 124.785 16.7559C125.252 15.9614 125.966 15.5683 126.83 15.3489Z" fill="#F9FAFD"/>
</g>
<g id="Group 35">
<path id="Vector_36" d="M90.4736 40.0198C91.4177 39.9448 92.3582 40.0745 93.1934 40.5437C94.0908 41.0479 94.7302 42.0413 94.9973 43.0117C95.2673 43.9922 95.1555 45.2646 94.6357 46.1356C94.0175 47.1718 92.9519 47.7483 91.8133 48.0183C90.8142 48.1891 89.8898 47.997 89.002 47.5194C88.1101 47.0396 87.3973 46.0828 87.1307 45.118C86.8452 44.0851 87.0445 42.9544 87.5634 42.0348C88.1988 40.9088 89.2809 40.3686 90.4736 40.0198Z" fill="#A18BEC"/>
<path id="Vector_37" d="M90.6414 41.1942C91.2734 41.1173 91.8277 41.1437 92.4114 41.4186C93.1062 41.7456 93.602 42.4502 93.832 43.1639C94.0749 43.9178 94.0605 44.7387 93.6662 45.4414C93.2115 46.2522 92.5079 46.6921 91.6381 46.9486C91.0074 47.0193 90.4466 46.9605 89.8705 46.686C89.1469 46.3413 88.5544 45.6613 88.3147 44.8953C88.0874 44.1697 88.2138 43.2525 88.5962 42.6012C89.0628 41.8067 89.7765 41.4136 90.6414 41.1942Z" fill="#F9FAFD"/>
</g>
<g id="Group 37">
<path id="Vector_38" d="M26.2699 66.0048C26.6741 65.9831 27.1382 66.0325 27.5125 66.1904C28.232 66.4936 28.6044 66.9618 28.871 67.6863C29.1057 68.3236 29.0097 69.1693 28.6948 69.7669C28.2937 70.5277 27.5852 70.8892 26.7968 71.1244C26.3206 71.133 25.8222 71.0775 25.3969 70.8491C24.7088 70.4799 24.2815 69.908 24.0781 69.1569C23.8804 68.4268 24.0726 67.634 24.4915 67.0163C24.9276 66.3733 25.541 66.1476 26.2699 66.0048Z" fill="#FEC35D"/>
<path id="Vector_39" d="M26.0934 66.8869C26.324 66.8753 26.5483 66.8692 26.777 66.9071C27.2599 66.9868 27.634 67.202 27.9024 67.621C28.174 68.0448 28.2315 68.5351 28.0932 69.017C27.93 69.5863 27.5038 69.8471 27.0112 70.1142C26.6544 70.1627 26.2314 70.2003 25.8857 70.0805C25.5105 69.9508 25.2159 69.6303 25.057 69.2751C24.8649 68.8457 24.8395 68.3125 25.0177 67.8731C25.2228 67.3676 25.6108 67.1003 26.0934 66.8869Z" fill="#F9FAFD"/>
</g>
<g id="Group 39">
<path id="Vector_40" d="M18.3585 79.0075C18.9543 78.9763 19.5673 79.0323 20.083 79.3628C20.7408 79.7839 21.2385 80.4798 21.3591 81.2597C21.4803 82.0436 21.2765 82.7885 20.8092 83.4252C20.3337 84.0733 19.6876 84.2678 18.9395 84.3877C18.3937 84.4322 17.8434 84.3228 17.3513 84.0753C16.7803 83.7881 16.3224 83.2503 16.1432 82.6358C15.9126 81.8447 15.9415 81.0483 16.3701 80.3222C16.821 79.5581 17.5266 79.1965 18.3585 79.0075Z" fill="#1FC728"/>
<path id="Vector_41" d="M18.4993 80.0822C18.6714 80.0809 18.8249 80.0838 18.9926 80.1282C19.4699 80.2544 19.836 80.5463 20.0662 80.984C20.2772 81.3854 20.3108 81.795 20.1627 82.2221C19.9536 82.8254 19.5101 83.0408 18.9762 83.316C18.7143 83.3218 18.4297 83.2872 18.1858 83.1881C17.7634 83.0168 17.4431 82.6734 17.2719 82.2537C17.1171 81.8742 17.1561 81.3872 17.3208 81.0167C17.5681 80.461 17.9705 80.2909 18.4993 80.0822Z" fill="#F9FAFD"/>
</g>
<path id="Vector_42" d="M40.6958 56.03C42.2023 55.906 43.5897 56.1519 44.8542 57.0291C46.2125 57.9712 47.2551 59.6049 47.511 61.2387C47.7743 62.9204 47.3337 64.6997 46.325 66.0681C45.2506 67.5254 43.8085 68.2683 42.0477 68.5511C41.4888 68.6053 40.9579 68.596 40.4004 68.5269C38.7679 68.3246 37.3346 67.5082 36.3265 66.2099C35.2966 64.8837 34.8246 63.1253 35.0591 61.4591L35.0797 61.3232C35.241 60.177 35.6959 59.1351 36.4352 58.2421C37.5544 56.8898 38.9703 56.2258 40.6958 56.03Z" fill="#A18BEC"/>
</g>
</svg>
