<svg width="159" height="138" viewBox="0 0 159 138" fill="none" xmlns="http://www.w3.org/2000/svg">
<g id="Group 40">
<g id="Group 32">
<path id="Vector" d="M140.771 82.2326C141.31 81.1295 141.787 79.9691 142.2 78.7532C146.928 64.8392 139.778 48.1711 124.724 44.1473C123.095 23.7634 108.73 9.77772 92.5087 7.39246C73.9403 4.66159 56.9305 16.4249 51.2708 35.122C44.4492 32.7117 37.8019 33.0053 31.537 36.6566C28.6946 37.9675 26.0945 39.9015 23.762 42.4461C20.3378 46.1816 18.1113 50.8966 17.2045 55.8676C15.8614 56.0789 14.5416 56.2903 13.2972 56.7344C6.04298 59.3291 1.46598 64.6691 0.210848 72.7131C-0.570242 77.7218 1.0063 82.7179 1.88615 84.7361C5.36065 92.7138 13.4175 97.2354 21.6037 96.0392C22.0113 95.9801 22.6039 96.1628 22.954 96.4564C23.3868 109.206 29.5942 120.483 38.9062 126.924C53.8475 137.26 73.0712 134.076 85.1988 119.903C90.3953 125.203 96.5793 127.778 103.844 126.843C111.068 125.914 116.678 121.939 120.77 115.474C122.661 115.981 124.453 116.711 126.306 116.914C133.563 117.705 139.457 114.828 143.78 108.318C145.436 105.827 147 102.599 147 96.9399C147.002 91.1093 144.678 85.7962 140.771 82.2326Z" fill="#EFE8FC"/>
<g id="Group 29">
<path id="Vector_2" d="M75.3402 126.084L75.2495 126.007C77.183 125.8 78.9203 125.232 80.192 123.668C80.9564 122.728 81.4529 121.34 81.9768 120.242L84.4645 115.087L101.132 80.4241L104.01 74.5851L115.965 49.9116L120.851 39.7942C122.101 37.2306 123.465 34.6614 124.479 31.9968C125.302 32.504 125.787 32.9751 126.013 33.954C126.203 34.775 125.848 35.7243 125.507 36.4637L117.609 52.7775L106.418 75.9616L101.309 86.5109L91.0043 108.15L87.5996 115.279L84.8101 121.058C84.1889 122.376 83.6228 123.813 82.8282 125.032C82.2147 125.973 81.1367 126.63 80.0723 126.931L79.9388 126.97C79.3959 127.124 78.8022 127.083 78.2423 127.074C77.2192 126.885 76.2999 126.469 75.3402 126.084Z" fill="#3DE5DD"/>
<path id="Vector_3" d="M120.557 26.5156C121.998 27.1583 123.135 27.8782 123.726 29.4167C124.176 30.5853 124.042 31.8673 123.518 32.9866L114.074 52.4118L103.155 75.0016L97.2061 87.2953L85.2882 112.05L81.7066 119.397C81.2015 120.421 80.7657 121.536 80.174 122.51C79.4542 123.696 78.3972 124.496 77.0948 124.959C76.2911 125.244 75.1891 125.445 74.3455 125.26C73.6412 125.105 72.8951 124.642 72.2465 124.328L68.8857 122.732L53.9854 115.792L16.5996 98.5821C16.995 98.1213 17.7166 97.759 18.2146 97.393L22.2908 94.3332L36.1434 83.7137L42.0223 79.2984C42.8368 78.6917 43.5859 77.9635 44.4626 77.4503C44.6482 77.1055 44.8199 76.7482 45.063 76.4398L45.4417 76.543C46.4153 75.9114 47.309 75.1617 48.2288 74.4564L54.8252 69.3557C55.5526 68.822 56.2836 68.1382 57.0811 67.7237V67.6741C57.5657 67.4278 57.9844 67.0601 58.3869 66.6994L58.3769 66.6576C60.0292 64.8011 62.057 63.3279 64.3122 62.2885C64.9246 62.0061 65.5899 61.8299 66.1893 61.5366L66.2524 61.5051L65.6508 61.2303L65.6723 61.1965C65.5558 60.9915 64.4555 60.6952 64.1656 60.5928L64.0206 60.5383C63.863 60.4906 63.7452 60.453 63.5993 60.372C63.6249 60.1946 63.6778 60.1501 63.7898 60.0066C64.1775 60.0014 64.8309 60.1668 65.1867 60.3169L65.6191 60.4922C65.7792 60.5578 65.8681 60.6016 66.0419 60.582L66.1752 60.5641L66.2418 60.5833C66.9334 60.7912 67.5958 61.1353 68.2453 61.4462C68.3774 61.3027 68.3883 61.233 68.4486 61.0512L68.524 61.3743L68.7055 61.4469C68.8252 61.3662 68.6932 61.4684 68.8145 61.3017L69.0721 61.1178L69.3889 60.4086C70.5598 59.8684 71.6716 59.1261 72.7607 58.4368L72.7642 58.3619C73.4137 58.1072 74.0517 57.6506 74.6603 57.305C75.343 56.9173 76.0642 56.5813 76.7257 56.1586L76.2208 55.4225L76.8769 55.7987C77.08 55.7547 77.1846 55.6997 77.3486 55.5709L77.3989 55.5306C77.4977 55.4085 77.5507 55.3398 77.689 55.2611L77.7994 55.1996C77.9538 55.0827 78.024 54.9774 78.2078 54.896L78.2933 54.8596C78.5441 54.7515 78.7206 54.7006 78.997 54.7079C79.928 54.7327 80.737 54.3398 81.5585 53.9505L83.7158 52.8724C84.5313 52.444 85.4295 52.0139 86.1721 51.4707C86.526 51.4693 87.0106 51.5121 87.3437 51.3955C87.7851 51.2409 88.9953 50.6026 89.186 50.1735L89.2232 49.9763L90.1591 49.1015C90.4694 49.001 90.7702 48.8162 91.0613 48.6685L91.0581 48.5482C91.6091 48.2707 92.1815 48.0081 92.6544 47.6055L92.6661 47.5589C93.3572 47.1787 94.0009 46.6918 94.6538 46.2496L100.326 42.2227L112.056 33.4092L120.557 26.5156Z" fill="#9077E4"/>
<path id="Vector_4" d="M42.6246 81.6398L69.8048 94.1051L68.0723 98.1796L67.8699 98.2422L40.6367 85.8869L42.6246 81.6398Z" fill="white"/>
<path id="Vector_5" d="M44.462 77.4503C44.6477 77.1055 44.8194 76.7482 45.0624 76.4398L45.4411 76.543L72.3386 88.989L70.3734 93.1751L43.0625 80.6575L44.462 77.4503Z" fill="white"/>
<path id="Vector_6" d="M91.0581 48.5482C91.6091 48.2707 92.1815 48.0081 92.6543 47.6055C94.0203 53.4831 93.0962 59.5438 89.901 64.6994C87.0131 69.3593 82.3668 72.4925 77.0573 73.7071C71.7069 74.9311 65.7924 73.8304 61.1694 70.8986C59.7162 69.9772 58.3294 68.9086 57.0811 67.7237V67.674C57.5657 67.4278 57.9843 67.0601 58.3869 66.6994L58.3769 66.6576C60.0291 64.8011 62.057 63.3279 64.3121 62.2885C64.9246 62.0061 65.5899 61.8299 66.1893 61.5366L66.2523 61.505L65.6508 61.2303L65.6723 61.1965C65.5558 60.9915 64.4555 60.6952 64.1655 60.5928L64.0206 60.5383C63.863 60.4906 63.7451 60.453 63.5993 60.3719C63.6249 60.1946 63.6777 60.1501 63.7897 60.0066C64.1775 60.0014 64.8309 60.1668 65.1866 60.3169L65.6191 60.4922C65.7792 60.5577 65.8681 60.6016 66.0418 60.582L66.1752 60.5641L66.2417 60.5833C66.9334 60.7912 67.5958 61.1353 68.2453 61.4462C68.3773 61.3027 68.3882 61.233 68.4485 61.0512L68.5239 61.3743L68.7055 61.4469C68.8252 61.3662 68.6932 61.4684 68.8145 61.3017L69.072 61.1178L69.3889 60.4086C70.5597 59.8684 71.6716 59.1261 72.7607 58.4368L72.7642 58.3619C73.4137 58.1072 74.0517 57.6506 74.6602 57.305C75.343 56.9173 76.0641 56.5813 76.7257 56.1586L76.2207 55.4225L76.8769 55.7987C77.08 55.7547 77.1846 55.6996 77.3486 55.5709L77.3989 55.5306C77.4976 55.4085 77.5507 55.3398 77.689 55.2611L77.7994 55.1996C77.9538 55.0827 78.024 54.9774 78.2077 54.896L78.2933 54.8596C78.544 54.7515 78.7205 54.7006 78.997 54.7079C79.928 54.7327 80.737 54.3398 81.5585 53.9505L83.7158 52.8724C84.5313 52.444 85.4295 52.0139 86.1721 51.4707C86.526 51.4693 87.0106 51.5121 87.3437 51.3955C87.785 51.2409 88.9953 50.6026 89.186 50.1735L89.2232 49.9763L90.159 49.1015C90.4693 49.001 90.7702 48.8162 91.0613 48.6685L91.0581 48.5482Z" fill="white"/>
<path id="Vector_7" d="M90.8687 50.1485C90.9121 50.0571 90.9795 49.982 91.0408 49.9019L91.3049 49.9162C91.3659 50.3629 91.6084 51.32 91.4202 51.7222C91.1718 51.5639 91.0992 51.1289 91.0408 50.8595C90.9875 50.6137 91.0221 50.3584 90.8687 50.1485Z" fill="#4B5ECC"/>
<path id="Vector_8" d="M90.159 49.1016C90.4693 49.001 90.7701 48.8163 91.0612 48.6685L91.3047 49.9162L91.0406 49.9019C90.9793 49.982 90.9119 50.0572 90.8685 50.1485C90.3664 49.9489 89.7585 49.9892 89.2231 49.9764L90.159 49.1016Z" fill="#262CA4"/>
<path id="Vector_9" d="M89.1267 59.4851C89.5111 59.4239 89.8902 59.4665 90.2762 59.4935C90.1625 59.8901 90.1291 60.541 89.8054 60.8112C89.6434 60.8984 89.4755 60.8807 89.297 60.8804C89.091 60.7825 88.9149 60.692 88.7834 60.4979C88.6695 60.3295 88.6669 60.1468 88.7197 59.9555C88.7917 59.694 88.9062 59.6101 89.1267 59.4851Z" fill="#262CA4"/>
<path id="Vector_10" d="M77.3988 55.5306C77.6568 55.4845 77.9202 55.4354 78.1829 55.436C78.3429 55.4363 78.9383 55.5246 79.0559 55.4619C79.1335 55.4205 79.198 55.2511 79.2738 55.1939C79.4328 55.0742 79.7017 55.0851 79.8844 55.1118C80.0647 55.298 80.1151 55.4548 80.1013 55.7219L80.0779 55.9156C80.2258 56.1618 80.4082 56.5293 80.6267 56.7118C80.842 56.8915 81.2308 56.942 81.495 57.0415C81.9395 57.209 82.3688 57.4105 82.7989 57.6116C83.1333 57.721 83.4726 57.8232 83.7409 58.0626C84.0586 58.3461 84.3651 58.8485 84.7423 59.0278C85.1189 59.2068 85.7385 59.1033 86.0371 59.2809C86.0983 59.3172 86.3342 59.6686 86.3682 59.7369L86.4333 59.9572C86.5523 60.2722 86.9387 60.2932 87.1175 60.5443C87.1864 60.641 87.1941 60.7792 87.2157 60.8922C87.2392 61.0152 87.2908 61.1072 87.3492 61.2167L87.4657 61.2542C87.5879 61.2972 87.6441 61.3274 87.7384 61.4099C87.9162 61.8736 87.9997 62.4088 88.4258 62.7159C88.6218 62.6999 88.7512 62.7017 88.8818 62.5358L89.8075 61.1312C89.464 62.1887 88.9709 63.0461 88.3837 63.9822L88.3506 63.8679C88.2025 63.3712 87.9534 62.986 87.6647 62.5603L87.0914 63.3719L86.2598 63.0904C86.0983 63.6276 86.0525 64.03 86.0692 64.5854C86.4358 64.95 86.8007 65.2131 87.2437 65.4786C85.5396 67.8863 82.9333 69.7419 80.2576 70.9187C79.8954 71.078 79.3242 71.3963 78.931 71.4344L78.8735 71.4274C78.241 70.1672 77.356 69.0621 76.5739 67.8971C76.6583 67.0664 77.1815 66.2702 77.4647 65.492C77.543 65.2772 77.6879 64.5097 77.8098 64.389C77.8888 64.3107 78.3893 64.3405 78.5241 64.278C78.6283 64.2298 78.7519 64.0976 78.8292 64.0171C79.5114 63.3056 79.6977 62.3221 80.3677 61.622C80.6209 61.3573 81.2512 60.7963 81.6003 60.6962C81.867 60.6198 82.4239 60.6797 82.7172 60.6737C82.5664 60.2578 82.3345 59.6708 82.0075 59.3653C81.7815 59.1542 81.4671 59.0107 81.1989 58.8596C80.9202 58.7026 80.6475 58.5728 80.4236 58.3389C80.4296 58.1037 80.4419 58.0881 80.5813 57.8967C80.667 57.8752 80.7464 57.8539 80.8355 57.8553C81.3728 57.8638 81.8904 58.3575 82.261 58.6921C82.4491 58.8619 82.6672 59.085 82.9224 59.0718C82.9901 58.7458 82.783 58.3787 82.6778 58.0687L82.861 57.8508L82.7599 57.7407C82.336 57.6204 81.9196 57.4662 81.489 57.3732C81.005 57.2686 80.4075 57.2512 79.9623 57.041C79.7186 56.926 79.505 56.733 79.277 56.5892C78.9541 56.3856 78.5851 56.2338 78.2375 56.0765C78.4112 56.3691 78.7975 56.5405 78.8722 56.8703L78.7291 56.9085C78.34 56.9659 77.0579 56.3817 76.7257 56.1586L76.2207 55.4225L76.8769 55.7988C77.08 55.7547 77.1846 55.6997 77.3486 55.571L77.3988 55.5306Z" fill="#262CA4"/>
<path id="Vector_11" d="M84.2207 59.4125L84.459 59.4011C84.6889 59.5339 84.8154 59.7239 84.9547 59.9468C85.0956 60.1724 85.3084 60.4784 85.2493 60.737C85.009 60.8572 84.915 60.8612 84.6486 60.8266L84.3218 61.0594L84.1948 60.9741C84.0417 60.5646 83.8932 60.1705 83.812 59.7393C83.9093 59.5304 84.0197 59.516 84.2207 59.4125Z" fill="white"/>
<path id="Vector_12" d="M76.7253 56.1586C77.0575 56.3817 78.3397 56.9658 78.7287 56.9084L78.8718 56.8702C78.7971 56.5405 78.4109 56.369 78.2371 56.0765C78.5847 56.2338 78.9537 56.3856 79.2767 56.5891C79.5046 56.7329 79.7183 56.926 79.9619 57.0409C80.4071 57.2511 81.0046 57.2686 81.4887 57.3732C81.9193 57.4661 82.3356 57.6204 82.7595 57.7407L82.8606 57.8508L82.6774 58.0687C82.7826 58.3787 82.9897 58.7458 82.922 59.0718C82.6668 59.085 82.4488 58.8619 82.2606 58.692C81.89 58.3575 81.3725 57.8637 80.8351 57.8553C80.7461 57.8538 80.6666 57.8752 80.5809 57.8967C80.4416 58.088 80.4292 58.1037 80.4233 58.3389C80.6471 58.5728 80.9198 58.7025 81.1986 58.8595C81.4667 59.0106 81.7811 59.1541 82.0071 59.3652C82.3341 59.6707 82.566 60.2578 82.7168 60.6737C82.4235 60.6796 81.8667 60.6198 81.6 60.6962C81.2509 60.7963 80.6205 61.3573 80.3673 61.622C79.6974 62.322 79.511 63.3055 78.8288 64.017C78.7515 64.0975 78.6279 64.2297 78.5237 64.2779C78.3889 64.3404 77.8885 64.3106 77.8094 64.3889C77.6876 64.5096 77.5426 65.2771 77.4643 65.492C77.1811 66.2702 76.6579 67.0664 76.5735 67.897C77.3556 69.0621 78.2406 70.1672 78.8731 71.4274C78.6353 71.6948 78.2226 71.7265 77.8848 71.7704L77.8125 71.7807C75.0313 72.5128 72.0799 72.775 69.2291 72.2922C67.9077 72.0683 66.6491 71.6634 65.3886 71.217L65.5868 70.5636L65.4804 70.5792C65.4284 70.672 65.3992 70.7559 65.3094 70.8165C65.3439 70.6827 65.352 70.5874 65.332 70.452L65.3109 70.3185C65.1822 70.5616 65.1184 70.8537 65.0391 71.1166C62.4773 70.0515 60.4006 68.5798 58.3865 66.6994L58.3765 66.6576C60.0288 64.8011 62.0566 63.3279 64.3117 62.2885C64.9242 62.0061 65.5895 61.8299 66.1889 61.5366L66.252 61.505L65.6504 61.2303L65.6719 61.1965C65.5554 60.9915 64.4551 60.6952 64.1652 60.5928L64.0202 60.5383C63.8626 60.4906 63.7447 60.453 63.5989 60.3719C63.6245 60.1946 63.6773 60.1501 63.7893 60.0066C64.1771 60.0014 64.8305 60.1668 65.1863 60.3169L65.6187 60.4922C65.7788 60.5577 65.8677 60.6016 66.0415 60.582L66.1748 60.5641L66.2413 60.5833C66.933 60.7912 67.5954 61.1353 68.2449 61.4462C68.377 61.3027 68.3878 61.233 68.4481 61.0512L68.5235 61.3743L68.7051 61.4469C68.8248 61.3662 68.6928 61.4684 68.8141 61.3017L69.0716 61.1178L69.3885 60.4086C70.5593 59.8684 71.6712 59.1261 72.7603 58.4368L72.7638 58.3619C73.4133 58.1072 74.0513 57.6506 74.6599 57.305C75.3426 56.9173 76.0637 56.5813 76.7253 56.1586Z" fill="url(#paint0_linear_204_1424)"/>
<path id="Vector_13" d="M72.7604 58.4368L73.3112 60.1263C74.063 60.2871 74.9911 60.4081 75.4338 61.1205C75.5471 61.3028 75.6113 61.4353 75.5548 61.6537C75.3709 62.3635 74.9592 63.0432 74.8116 63.7445C74.665 64.4411 74.8849 65.2944 74.606 65.9512C72.7867 64.3199 71.0048 62.9339 68.8628 61.7541L69.0717 61.1178L69.3885 60.4086C70.5594 59.8685 71.6713 59.1261 72.7604 58.4368Z" fill="#262CA4"/>
<path id="Vector_14" d="M66.252 61.5051L68.0128 62.2971C67.707 63.2269 65.2329 70.0864 65.3109 70.3186C65.1822 70.5616 65.1184 70.8537 65.0391 71.1167C62.4773 70.0515 60.4006 68.5798 58.3865 66.6995L58.3765 66.6576C60.0288 64.8011 62.0566 63.3279 64.3117 62.2885C64.9242 62.0061 65.5895 61.8299 66.1889 61.5366L66.252 61.5051Z" fill="#262CA4"/>
<path id="Vector_15" d="M65.5868 70.5636L68.534 62.4792C72.4059 64.6356 75.62 67.9396 77.8125 71.7807C75.0314 72.5129 72.0799 72.7751 69.2292 72.2922C67.9078 72.0683 66.6492 71.6635 65.3887 71.2171L65.5868 70.5636Z" fill="#262CA4"/>
<path id="Vector_16" d="M128.386 35.981C128.553 36.9637 128.434 37.8228 128.034 38.7406C127.26 40.5131 126.258 42.2079 125.418 43.9526L118.236 58.8997L98.2135 100.528L95.6265 106.042L89.462 119.012L86.4171 125.364C85.8942 126.452 85.434 127.604 84.8275 128.645C84.1945 129.731 83.3316 130.442 82.1615 130.895C80.9637 131.359 79.6588 131.297 78.4917 130.781L73.3259 128.323L59.3282 121.633L36.3226 110.634L24.2696 104.967L20.3935 103.151C19.3668 102.666 18.3239 102.188 17.3702 101.568C15.8254 100.564 14.4455 98.9873 13.3364 97.53C12.8763 96.9254 12.3616 96.2448 12.1024 95.5235C11.7391 94.5124 11.8722 93.3728 12.3122 92.4071L13.6565 89.7565L15.5459 85.9199L23.5136 69.6297L28.8931 58.4187L39.3544 36.7045L50.465 13.6289L54.0726 6.20844L55.5263 3.27494C55.7605 2.80296 55.9593 2.29117 56.2302 1.84198C56.6496 1.14657 57.5877 0.541004 58.3286 0.275713C59.2939 -0.0700136 60.0922 -0.0874317 61.0736 0.20562C61.8206 0.428681 62.5443 0.799394 63.2577 1.11289L67.121 2.8023L83.9407 10.1901L89.5413 12.6318L111.715 22.5204L120.557 26.5156L112.056 33.4093L100.326 42.2227L94.6536 46.2496C94.0006 46.6918 93.357 47.1788 92.6659 47.5589L92.6541 47.6056C92.1813 48.0081 91.6089 48.2707 91.0579 48.5482L91.0611 48.6685C90.77 48.8162 90.4691 49.001 90.1589 49.1015L89.223 49.9763L89.1858 50.1735C88.9951 50.6026 87.7849 51.2409 87.3435 51.3955C87.0104 51.5121 86.5258 51.4693 86.1719 51.4707C85.4293 52.0139 84.5311 52.444 83.7156 52.8724L81.5583 53.9505C80.7368 54.3398 79.9278 54.7328 78.9968 54.7079C78.7203 54.7006 78.5438 54.7515 78.2931 54.8596L78.2075 54.896C78.0238 54.9774 77.9536 55.0827 77.7992 55.1996L77.6888 55.2611C77.5505 55.3398 77.4975 55.4086 77.3987 55.5306L77.3484 55.571C77.1844 55.6997 77.0798 55.7547 76.8767 55.7987L76.2205 55.4225L76.7255 56.1586C76.0639 56.5813 75.3428 56.9173 74.6601 57.305C74.0515 57.6506 73.4135 58.1072 72.764 58.3619L72.7605 58.4368C71.6714 59.1261 70.5595 59.8685 69.3887 60.4086L69.0718 61.1178L68.8143 61.3017C68.693 61.4685 68.825 61.3662 68.7053 61.447L68.5237 61.3743L68.4483 61.0512C68.3881 61.233 68.3772 61.3027 68.2451 61.4462C67.5956 61.1354 66.9332 60.7912 66.2416 60.5833L66.175 60.5642L66.0417 60.582C65.8679 60.6016 65.779 60.5578 65.6189 60.4923L65.1865 60.3169C64.8307 60.1668 64.1773 60.0014 63.7896 60.0066C63.6776 60.1501 63.6247 60.1946 63.5991 60.372C63.745 60.453 63.8628 60.4907 64.0204 60.5383L64.1654 60.5928C64.4553 60.6952 65.5556 60.9915 65.6721 61.1965L65.6506 61.2304L66.2522 61.5051L66.1891 61.5366C65.5897 61.8299 64.9244 62.0061 64.3119 62.2885C62.0568 63.3279 60.029 64.8011 58.3767 66.6576L58.3867 66.6995C57.9842 67.0602 57.5655 67.4278 57.0809 67.6741V67.7238C56.2833 68.1382 55.5523 68.822 54.825 69.3557L48.2286 74.4564C47.3088 75.1617 46.4151 75.9114 45.4415 76.5431L45.0627 76.4398C44.8197 76.7482 44.648 77.1055 44.4623 77.4503C43.5856 77.9635 42.8366 78.6917 42.0221 79.2984L36.1432 83.7137L22.2906 94.3332L18.2144 97.393C17.7164 97.7591 16.9948 98.1214 16.5994 98.5822L13.8753 97.4213L14.5181 97.9665C17.0924 99.6181 20.049 100.707 22.8284 101.978L36.6617 108.331L47.2793 113.315L75.181 126.338C76.0875 126.734 77.0352 127.126 78.0206 127.266C78.6826 127.332 79.4339 127.347 80.0814 127.178C81.299 126.861 82.5248 126.052 83.1699 124.953C84.1043 123.361 84.8381 121.603 85.6439 119.941L89.8783 111.214L102.068 85.6869L118.38 51.8787L122.821 42.7428L125.719 36.6992C126.138 35.725 126.498 34.6764 126.198 33.6167L126.158 33.4819C125.957 32.782 125.657 32.4086 125.018 32.0601C124.912 32.0023 124.771 31.9593 124.707 31.8579L124.816 31.8533C125.566 31.9766 126.542 32.7369 127.07 33.2634C127.7 33.8924 128.372 35.0777 128.386 35.981Z" fill="#A18BEC"/>
<path id="Vector_17" d="M57.0807 67.6741C56.5589 67.2267 56.0968 66.6048 55.6747 66.0622C53.9063 63.7893 52.5762 61.2606 51.835 58.4678C50.4365 53.1983 51.1373 47.278 53.8832 42.5462C56.7616 37.5858 61.0723 33.976 66.6749 32.5003C72.5451 30.9541 78.3537 32.0433 83.535 35.0911C88.1519 37.8069 91.3284 42.4251 92.6658 47.559L92.654 47.6056C92.1811 48.0081 91.6088 48.2708 91.0578 48.5483L91.061 48.6685C90.7698 48.8163 90.469 49.0011 90.1587 49.1016L89.2229 49.9764L89.1857 50.1735C88.9949 50.6026 87.7847 51.241 87.3434 51.3955C87.0103 51.5122 86.5257 51.4693 86.1718 51.4708C85.4292 52.0139 84.531 52.4441 83.7154 52.8725L81.5582 53.9505C80.7367 54.3398 79.9277 54.7328 78.9966 54.708C78.7202 54.7007 78.5437 54.7515 78.2929 54.8596L78.2074 54.8961C78.0236 54.9774 77.9534 55.0828 77.799 55.1997L77.6886 55.2611C77.5503 55.3399 77.4973 55.4086 77.3985 55.5306L77.3483 55.571C77.1842 55.6997 77.0797 55.7548 76.8766 55.7988L76.2204 55.4225L76.7253 56.1586C76.0638 56.5814 75.3427 56.9174 74.6599 57.3051C74.0514 57.6507 73.4134 58.1073 72.7639 58.3619L72.7604 58.4369C71.6713 59.1262 70.5594 59.8685 69.3885 60.4086L69.0717 61.1178L68.8141 61.3017C68.6928 61.4685 68.8249 61.3662 68.7052 61.447L68.5236 61.3744L68.4482 61.0513C68.3879 61.233 68.377 61.3028 68.245 61.4463C67.5955 61.1354 66.933 60.7913 66.2414 60.5834L66.1749 60.5642L66.0415 60.5821C65.8678 60.6017 65.7789 60.5578 65.6188 60.4923L65.1863 60.317C64.8305 60.1669 64.1771 60.0014 63.7894 60.0067C63.6774 60.1502 63.6245 60.1946 63.599 60.372C63.7448 60.4531 63.8626 60.4907 64.0202 60.5383L64.1652 60.5928C64.4552 60.6952 65.5554 60.9916 65.6719 61.1966L65.6504 61.2304L66.252 61.5051L66.189 61.5366C65.5896 61.8299 64.9242 62.0061 64.3118 62.2885C62.0566 63.328 60.0288 64.8011 58.3765 66.6577L58.3865 66.6995C57.984 67.0602 57.5653 67.4279 57.0807 67.6741Z" fill="white"/>
<path id="Vector_18" d="M86.1719 51.4707C86.402 51.0034 86.677 50.6387 87.0455 50.2743C87.3523 49.9708 87.4773 49.6627 87.6417 49.2716C88.0716 49.3721 88.8655 49.8733 89.1858 50.1734C88.995 50.6026 87.7848 51.2409 87.3435 51.3954C87.0104 51.5121 86.5258 51.4692 86.1719 51.4707Z" fill="#4B5ECC"/>
<path id="Vector_19" d="M81.5535 46.8333L82.2875 47.1833C82.1419 47.703 82.0013 48.2193 81.8983 48.7497C81.8167 49.1703 81.7682 49.7804 81.5456 50.1478C81.3449 50.4794 80.9911 50.8085 80.7266 51.0942L80.5951 51.2164L80.4201 51.2048L80.2104 50.9505C80.2588 50.4152 80.5167 49.8825 80.7121 49.387C81.0277 48.5869 81.3544 47.75 81.5379 46.9084L81.5535 46.8333Z" fill="#4B5ECC"/>
<path id="Vector_20" d="M69.3887 60.4086L71.6526 53.8135L74.9757 55.0994L73.9735 55.3827C73.9307 55.5547 73.8914 55.7704 73.8009 55.9226C73.5533 56.3391 72.9832 56.7208 72.8153 57.1689C72.6989 57.4795 72.7534 58.0263 72.764 58.3619L72.7605 58.4368C71.6714 59.1261 70.5595 59.8684 69.3887 60.4086Z" fill="#4B5ECC"/>
<path id="Vector_21" d="M66.1747 60.5642L66.0997 60.5314C65.3422 60.2058 64.4406 59.9177 63.6284 59.7761C64.4496 58.9229 64.9675 57.8013 66.2948 57.7749L67.6816 57.7759C68.1213 57.2425 68.4264 56.6354 68.7624 56.035L68.7413 55.9169L68.6398 55.9548C68.5273 55.995 68.422 56.0216 68.3055 56.0456C67.9101 55.6223 67.4629 55.0136 67.2834 54.4635C67.1681 54.1102 67.1415 53.7381 67.0308 53.3873C66.951 53.1338 66.7911 52.929 66.6743 52.6938C66.5496 52.4428 66.4789 52.1659 66.3492 51.916C66.0721 51.3826 65.5471 50.9763 65.1077 50.5822L70.8604 53.4842L69.3513 58.1247C69.0475 59.0471 68.5974 60.0988 68.448 61.0513C68.3877 61.233 68.3768 61.3027 68.2448 61.4463C67.5953 61.1354 66.9329 60.7912 66.2412 60.5834L66.1747 60.5642Z" fill="#4B5ECC"/>
<path id="Vector_22" d="M80.2853 35.7335L80.4175 35.7547C82.1844 38.8199 81.7301 42.3585 81.0311 45.646L78.2207 44.6307L75.7891 43.5415C76.2244 42.5343 76.7701 41.546 77.2945 40.5813C78.2061 38.9046 79.1648 37.2809 80.2853 35.7335Z" fill="#4B5ECC"/>
<path id="Vector_23" d="M61.4064 36.8231L61.533 36.817L61.7411 36.995C62.0732 37.2748 62.7098 37.332 62.9425 37.641C63.09 37.8367 63.3185 37.9466 63.5269 38.0698L63.4521 38.293C63.2723 38.7934 62.9883 39.7705 62.656 40.1643C62.4701 40.3847 62.2263 40.5395 62.0385 40.7691C61.8893 40.9517 61.6855 41.2971 61.4638 41.3856C61.313 41.4457 61.0263 41.279 60.8698 41.215C60.6789 41.6022 60.5581 42.0342 60.4721 42.4562C60.3821 42.8974 60.2807 43.4217 60.3098 43.8725C60.3399 44.3389 60.6569 44.8001 60.7744 45.2547C60.9083 45.7726 60.8797 46.33 61.0391 46.8407C61.0963 47.0238 61.1771 47.1734 61.2843 47.3316L61.7316 48.0914L59.6596 46.772L55.0547 44.0153C55.1365 43.6646 55.4864 43.2074 55.6757 42.8913C57.1384 40.4482 59.0505 38.4211 61.4064 36.8231Z" fill="#4B5ECC"/>
<path id="Vector_24" d="M58.3769 66.6576C56.309 64.7207 54.7796 62.0423 53.8721 59.379C56.4197 59.3697 58.7803 59.509 61.2953 59.9985C60.8621 60.6974 60.5957 61.465 60.0107 62.0562L59.9193 62.1476L60.0575 62.4631C60.2052 62.7808 60.3416 63.0471 60.6794 63.1725C61.0317 62.9511 61.2058 62.6145 61.3732 62.2452C61.5482 61.8586 61.8029 61.753 62.0929 61.477C62.4305 61.1557 62.7374 60.7829 63.0482 60.4351C63.891 60.4972 64.8396 60.9708 65.6508 61.2303L66.2524 61.505L66.1893 61.5366C65.5899 61.8299 64.9246 62.0061 64.3121 62.2885C62.057 63.3279 60.0292 64.8011 58.3769 66.6576Z" fill="#4B5ECC"/>
<path id="Vector_25" d="M90.0526 46.0914L89.748 45.7571C89.3086 45.3823 88.6948 45.6511 88.2429 45.8296C88.1452 45.8681 87.9118 45.9976 87.8146 46.0015C87.2138 46.0253 86.8974 45.5365 86.4203 45.376C86.3281 45.345 84.7201 45.5953 84.4705 45.6107C84.302 45.4435 84.1239 45.2994 83.9237 45.1717L83.839 45.12C83.9041 44.9686 84.1303 44.4853 84.0566 44.3461C83.847 43.95 83.0001 43.7151 82.5868 43.5653C82.334 44.0767 82.3031 44.5809 82.1295 45.1034C82.0695 45.284 82.0274 45.3918 81.8549 45.4833C81.806 45.3155 81.9178 45.0314 81.9552 44.854L82.2049 43.4009C82.3273 42.5402 82.4208 41.6664 82.4273 40.7966C82.4398 39.1593 82.0826 37.6465 81.6099 36.093L81.6934 36.1079C82.2642 36.3 82.9841 36.8771 83.4754 37.2406C86.3794 39.3898 89.0561 42.4743 90.2441 45.9339C90.4222 46.377 90.5894 46.8207 90.7135 47.2825C90.8134 47.6547 90.8715 48.2186 91.0583 48.5482L91.0615 48.6685C90.7704 48.8162 90.4696 49.001 90.1593 49.1015C89.3184 48.6925 88.5847 48.5485 87.6949 48.3185C87.2097 48.193 86.7496 48.0268 86.2525 47.9433C85.2582 47.7761 84.3337 47.7045 83.3679 47.3837C84.7051 46.773 85.8817 47.4418 87.2639 47.3897C88.0563 47.3598 88.7846 46.9192 89.5716 47.1132L89.6608 47.1365L89.7763 47.0646C89.833 46.9049 89.8741 46.8016 89.8693 46.6288L89.86 46.5198C89.9371 46.4058 89.9966 46.3186 90.0329 46.1834L90.0526 46.0914Z" fill="#4B5ECC"/>
<path id="Vector_26" d="M78.9253 52.3305L78.0587 54.4778L77.9698 54.4644C77.2672 54.3704 76.9749 54.4994 76.4496 54.9179C74.8943 54.5805 73.3186 53.8474 71.8594 53.2264L75.4456 44.2324L80.7916 46.4957L79.8575 49.7243L79.3805 49.1953C78.6876 49.7015 77.5128 50.8886 77.3479 51.7495C77.2914 52.0445 77.1671 52.4033 77.2701 52.6937C77.4679 52.8137 77.5903 52.8044 77.8211 52.7498L78.9253 52.3305Z" fill="#4B5ECC"/>
<path id="Vector_27" d="M72.485 43.0477C72.8941 42.9687 74.1571 43.7376 74.592 43.9337L71.0963 52.8723C70.8253 52.8618 70.3448 52.5341 70.0874 52.4127L65.3148 50.0323L62.8865 48.6007C63.0838 48.2453 63.391 47.7626 63.3878 47.3551C63.1585 47.1462 62.8983 47.071 62.6118 46.9722C62.9228 46.4181 63.3374 45.936 63.7356 45.4435C64.3142 45.7282 64.8642 46.0043 65.3268 46.4624L65.3918 46.5285C65.7983 46.3215 66.226 46.0907 66.6002 45.8298C66.863 45.6466 68.273 44.5206 68.4647 44.5378C68.9044 44.5768 69.3307 45.0161 69.821 44.9672C70.0027 44.8129 70.1641 44.6598 70.4023 44.6049C70.5411 44.5729 70.5381 44.5854 70.6574 44.486L70.4418 44.1592C70.3648 43.9949 70.3448 43.8342 70.4205 43.6651C70.4455 43.6092 70.5703 43.4423 70.6088 43.414C70.6876 43.3557 71.0774 43.3252 71.1868 43.311C71.6281 43.2533 72.0527 43.1515 72.485 43.0477Z" fill="#4B5ECC"/>
<path id="Vector_28" d="M71.8734 33.6228C74.4778 33.5001 77.1095 34.1526 79.5263 35.0701C77.7222 37.6227 76.3984 40.4403 75.0017 43.2253C74.7478 43.2067 74.4128 43.0652 74.2299 42.8881C74.1958 42.6519 74.2532 42.4938 74.3286 42.2694L74.3597 42.1787C74.1508 41.6293 74.0553 41.0499 73.7821 40.5275C73.5983 40.3902 73.5678 40.3953 73.3358 40.3832L71.5395 40.5102C71.2824 40.5478 71.2399 40.713 71.0978 40.9142C70.8062 40.8684 70.3899 40.3832 70.1585 40.1727C70.3861 39.9484 70.7568 39.7054 70.7939 39.3653C70.8218 39.1088 70.6781 39.1061 70.8267 38.8205C71.0285 38.4325 71.315 38.0724 71.5265 37.68L70.3299 36.4421L67.9395 37.2275C67.8605 36.6634 67.8867 36.0511 67.8686 35.4802C66.7523 35.4795 65.8318 35.1993 64.7495 35.0104C67.1068 34.2694 69.4019 33.7454 71.8734 33.6228Z" fill="#4B5ECC"/>
<path id="Vector_29" d="M54.6757 44.7042L58.7464 47.0343C59.582 47.5054 60.6371 47.9511 61.3688 48.5536C61.3514 48.6229 61.3389 48.659 61.3373 48.7352C61.3323 48.9792 61.4804 49.1367 61.6232 49.3146C61.8478 49.3605 62.0333 49.1697 62.2223 49.0452C62.8023 49.3406 63.4252 49.6929 63.9271 50.1078C64.0153 50.1807 63.977 50.1342 63.9916 50.2968C63.6967 50.7041 63.113 50.901 62.6688 51.116L62.6592 51.9674C62.4955 52.1179 62.4207 52.0967 62.2042 52.1192C62.0455 52.3098 61.9548 52.5354 61.8695 52.7664C61.7344 53.1327 61.7346 53.4378 61.9016 53.794L61.9499 53.8922C62.2234 54.4572 62.6939 54.9127 63.1128 55.3738C63.1305 56.4417 63.0208 57.1467 62.4053 58.035C62.1473 58.4139 61.9372 58.7856 61.7426 59.2005C61.4735 59.2599 60.8935 59.0512 60.604 58.9955L58.7218 58.7181C57.0534 58.5039 55.3576 58.55 53.6859 58.6842C52.0672 54.0397 52.7696 49.1229 54.6757 44.7042Z" fill="#4B5ECC"/>
</g>
<path id="Vector_30" d="M7.2309 81.0032C7.68848 80.9944 8.07014 80.992 8.50401 81.1617C9.23967 81.4494 9.82607 82.0339 10.1158 82.772C10.3585 83.3898 10.2989 84.1385 9.99818 84.7285C9.60965 85.4903 8.89924 85.8651 8.12167 86.1085C7.52324 86.1619 7.05382 86.1409 6.504 85.8733C5.83739 85.5487 5.32623 84.9857 5.10431 84.2742C4.91211 83.6581 4.99146 83.0159 5.29342 82.4527C5.72523 81.6471 6.38738 81.2665 7.2309 81.0032Z" fill="#A18BEC"/>
<path id="Vector_31" d="M12.3705 64.0228C13.5415 63.905 14.8276 64.2478 15.7763 64.9467C16.7586 65.6702 17.5586 66.7508 17.7283 67.9816L17.746 68.1209C17.9209 69.3973 17.6282 70.6994 16.8998 71.769C16.0652 72.9943 14.9667 73.4937 13.542 73.7771C12.3654 73.8186 11.3144 73.6434 10.3003 73.0177C9.18039 72.3269 8.37277 71.1281 8.1031 69.844C7.85645 68.6685 8.04573 67.2515 8.74257 66.2604C9.67919 64.9282 10.7766 64.299 12.3705 64.0228Z" fill="#A18BEC"/>
<path id="Vector_32" d="M45.6958 119.03C47.2023 118.906 48.5897 119.152 49.8542 120.029C51.2125 120.971 52.2551 122.605 52.511 124.239C52.7743 125.92 52.3337 127.7 51.325 129.068C50.2506 130.525 48.8085 131.268 47.0477 131.551C46.4888 131.605 45.9579 131.596 45.4004 131.527C43.7679 131.325 42.3346 130.508 41.3265 129.21C40.2966 127.884 39.8246 126.125 40.0591 124.459L40.0797 124.323C40.241 123.177 40.6959 122.135 41.4352 121.242C42.5544 119.89 43.9703 119.226 45.6958 119.03Z" fill="#A18BEC"/>
<path id="Vector_33" d="M117.62 6.0191C118.578 5.94027 119.46 6.09661 120.264 6.65417C121.127 7.253 121.79 8.29137 121.952 9.32986C122.12 10.3988 121.84 11.5298 121.199 12.3996C120.516 13.3258 119.599 13.798 118.48 13.9778C118.125 14.0122 117.787 14.0063 117.433 13.9624C116.395 13.8338 115.484 13.3149 114.843 12.4896C114.189 11.6467 113.889 10.529 114.038 9.46993L114.051 9.38357C114.153 8.65504 114.442 7.99278 114.912 7.42518C115.624 6.56563 116.524 6.14356 117.62 6.0191Z" fill="#A18BEC"/>
</g>
<g id="Group 34">
<path id="Vector_34" d="M77.6274 1C77.9075 1.02814 78.1606 1.07179 78.4165 1.19572C78.9216 1.44019 79.2677 1.97499 79.4262 2.5024C79.5759 3.00071 79.4643 3.55749 79.2065 4.00021C78.8436 4.62384 78.2482 4.81671 77.5892 4.97644C77.2122 4.88191 76.7748 4.79407 76.4507 4.57178C76.0575 4.30208 75.838 3.90817 75.7462 3.44783C75.6181 2.80656 75.823 2.22503 76.2036 1.71262C76.5566 1.23711 77.0711 1.09819 77.6274 1Z" fill="#F9AC8E"/>
<path id="Vector_35" d="M130.762 66.0065C131.104 65.9861 131.456 66.0103 131.78 66.1302C132.303 66.3237 132.79 66.8472 132.986 67.3639C133.183 67.8807 133.198 68.4941 132.933 68.9914C132.603 69.6074 132.024 69.9093 131.398 70.1344C131.057 70.149 130.725 70.1625 130.398 70.0513C129.822 69.8554 129.363 69.3942 129.129 68.837C128.911 68.3194 128.987 67.6507 129.226 67.1513C129.538 66.4994 130.108 66.2217 130.762 66.0065Z" fill="#0F57F4"/>
<path id="Vector_36" d="M6.03467 32.3816C6.41662 32.3958 6.79599 32.4528 7.14656 32.6125C7.70527 32.867 8.05609 33.3141 8.25576 33.8868C8.43414 34.3979 8.36145 35.0714 8.10966 35.5467C7.72511 36.2723 7.16014 36.5229 6.41615 36.7372C6.04681 36.7193 5.68122 36.7032 5.34288 36.5389C4.7848 36.268 4.29566 35.8092 4.1036 35.2069C3.9261 34.6503 3.97278 34.0706 4.27392 33.5637C4.69508 32.8549 5.26594 32.5694 6.03467 32.3816Z" fill="#F9AC8E"/>
<path id="Vector_37" d="M156.038 24.7063C156.268 24.6948 156.493 24.6887 156.721 24.7265C157.204 24.8063 157.578 25.0214 157.847 25.4404C158.118 25.8643 158.176 26.3545 158.038 26.8365C157.874 27.4057 157.448 27.6666 156.955 27.9337C156.599 27.9822 156.176 28.0197 155.83 27.9C155.455 27.7703 155.16 27.4498 155.001 27.0946C154.809 26.6651 154.784 26.132 154.962 25.6926C155.167 25.187 155.555 24.9197 156.038 24.7063Z" fill="#F9FAFD"/>
<path id="Vector_38" d="M151.12 1.74836C151.335 1.7291 151.547 1.71385 151.761 1.76077C152.248 1.86753 152.669 2.099 152.929 2.53672C153.154 2.91488 153.167 3.41348 153.029 3.82261C152.867 4.30277 152.429 4.55473 152.007 4.77472C151.631 4.84478 151.251 4.86879 150.884 4.73454C150.537 4.60723 150.281 4.31009 150.15 3.97125C149.977 3.52343 150 2.94966 150.203 2.51087C150.393 2.10017 150.707 1.89642 151.12 1.74836Z" fill="#F9FAFD"/>
<path id="Vector_39" d="M9.25176 134.279C9.42383 134.278 9.57733 134.281 9.74507 134.325C10.2223 134.451 10.5885 134.743 10.8186 135.181C11.0297 135.582 11.0632 135.992 10.9151 136.419C10.7061 137.022 10.2626 137.238 9.72866 137.513C9.46676 137.519 9.18214 137.484 8.93828 137.385C8.51586 137.214 8.19552 136.87 8.02435 136.45C7.86959 136.071 7.90855 135.584 8.07323 135.213C8.32052 134.658 8.72292 134.488 9.25176 134.279Z" fill="#F9FAFD"/>
<path id="Vector_40" d="M27.552 14.0386L27.8127 14.0071C28.2358 13.9704 28.5289 14.0743 28.8456 14.3653C29.4513 14.9217 29.3541 15.7444 29.3882 16.4998C29.9986 16.544 30.9058 16.5559 31.3872 16.9752C31.6924 17.2409 31.8479 17.5672 31.8693 17.9683C31.8906 18.3657 31.7988 18.736 31.5192 19.0314C30.9749 19.6068 30.2155 19.5738 29.4867 19.5866C29.4335 20.0511 29.4322 20.5707 29.2931 21.0162C29.1279 21.5458 28.7553 21.8158 28.2776 22.0465L28.0141 22.082C27.6074 22.1042 27.2037 21.9265 26.9086 21.6544C26.3702 21.1578 26.4272 20.289 26.3789 19.6119C25.8199 19.5359 25.1446 19.4914 24.6612 19.1851C24.3956 19.0166 24.0915 18.7365 24.0327 18.4126C23.9457 17.9348 24.0278 17.4878 24.3341 17.1083C24.7783 16.5584 25.5887 16.5858 26.2357 16.4971C26.4718 16.0283 26.4173 15.3975 26.6089 14.888C26.7811 14.4293 27.1211 14.2258 27.552 14.0386Z" fill="#4B5ECC"/>
<path id="Vector_41" d="M124.199 120.004C124.494 119.991 124.769 120.005 125.04 120.138C125.463 120.345 125.986 120.789 126.14 121.257C126.288 121.705 126.095 122.355 126.257 122.881C126.778 123.198 127.494 122.708 128.041 123.024L128.129 123.079C128.284 123.172 128.436 123.255 128.571 123.379C128.905 123.688 129.137 124.121 129.146 124.578C129.155 125.069 129.022 125.389 128.685 125.741C128.483 125.952 128.067 126.318 127.777 126.379C127.459 126.446 126.788 126.322 126.415 126.322C126.354 126.363 126.273 126.384 126.232 126.446C126.218 126.467 126.223 126.751 126.222 126.782C126.21 127.222 126.27 127.678 126.098 128.095C125.856 128.679 125.436 128.965 124.876 129.216L124.734 129.215C124.165 129.216 123.788 129.159 123.373 128.739C122.61 127.966 123.076 127.517 122.955 126.626C122.954 126.619 122.91 126.385 122.873 126.355C122.673 126.195 122.069 126.311 121.819 126.286C121.399 126.245 120.953 126.085 120.624 125.814C120.286 125.535 120.017 125.236 120.001 124.782C119.986 124.335 120.113 123.788 120.435 123.46C121.116 122.767 122.024 122.979 122.908 123.008L122.903 121.149C123.275 120.512 123.56 120.333 124.199 120.004Z" fill="#3DE5DD"/>
<path id="Vector_42" d="M111.83 2.34893C112.462 2.27204 113.017 2.29845 113.6 2.57328C114.295 2.90036 114.791 3.60494 115.021 4.31864C115.264 5.07249 115.249 5.89345 114.855 6.59616C114.4 7.40692 113.697 7.84685 112.827 8.10333C112.196 8.17404 111.636 8.11524 111.059 7.84071C110.336 7.49603 109.743 6.81603 109.504 6.05001C109.276 5.32443 109.403 4.40726 109.785 3.75594C110.252 2.96145 110.966 2.56835 111.83 2.34893Z" fill="#F9FAFD"/>
</g>
<g id="Group 35">
<path id="Vector_43" d="M134.474 94.0198C135.418 93.9449 136.358 94.0746 137.193 94.5438C138.091 95.0479 138.73 96.0413 138.997 97.0117C139.267 97.9922 139.155 99.2647 138.636 100.136C138.018 101.172 136.952 101.748 135.813 102.018C134.814 102.189 133.89 101.997 133.002 101.519C132.11 101.04 131.397 100.083 131.131 99.118C130.845 98.0852 131.044 96.9544 131.563 96.0348C132.199 94.9088 133.281 94.3687 134.474 94.0198Z" fill="#A18BEC"/>
<path id="Vector_44" d="M134.641 95.1943C135.273 95.1174 135.828 95.1438 136.411 95.4186C137.106 95.7457 137.602 96.4503 137.832 97.164C138.075 97.9178 138.061 98.7388 137.666 99.4415C137.212 100.252 136.508 100.692 135.638 100.949C135.007 101.019 134.447 100.961 133.871 100.686C133.147 100.341 132.554 99.6614 132.315 98.8953C132.087 98.1698 132.214 97.2526 132.596 96.6013C133.063 95.8068 133.777 95.4137 134.641 95.1943Z" fill="#F9FAFD"/>
</g>
<g id="Group 36">
<path id="Vector_45" d="M112.041 91.0065C112.478 91 112.924 90.972 113.343 91.1163C114.161 91.3982 114.729 91.9338 115.063 92.7321C115.302 93.3019 115.187 94.0634 114.932 94.6068C114.561 95.3986 113.894 95.799 113.101 96.0787C112.612 96.2003 112.124 96.1208 111.657 95.9534C111.001 95.7186 110.46 95.2295 110.187 94.5847C109.964 94.0572 109.925 93.262 110.154 92.7302C110.552 91.8035 111.133 91.3744 112.041 91.0065Z" fill="#3DE5DD"/>
<path id="Vector_46" d="M112.149 92.0327C112.364 92.0134 112.576 91.9982 112.79 92.0451C113.276 92.1518 113.698 92.3833 113.958 92.821C114.183 93.1992 114.196 93.6978 114.058 94.1069C113.896 94.5871 113.458 94.839 113.036 95.059C112.66 95.1291 112.28 95.1531 111.913 95.0188C111.566 94.8915 111.31 94.5944 111.179 94.2556C111.006 93.8077 111.029 93.234 111.232 92.7952C111.422 92.3845 111.736 92.1807 112.149 92.0327Z" fill="#F9FAFD"/>
</g>
<g id="Group 37">
<path id="Vector_47" d="M103.27 118.005C103.674 117.983 104.138 118.033 104.512 118.19C105.232 118.494 105.604 118.962 105.871 119.686C106.106 120.324 106.01 121.169 105.695 121.767C105.294 122.528 104.585 122.889 103.797 123.124C103.321 123.133 102.822 123.078 102.397 122.849C101.709 122.48 101.282 121.908 101.078 121.157C100.88 120.427 101.073 119.634 101.491 119.016C101.928 118.373 102.541 118.148 103.27 118.005Z" fill="#FEC35D"/>
<path id="Vector_48" d="M103.093 118.887C103.324 118.875 103.548 118.869 103.777 118.907C104.26 118.987 104.634 119.202 104.902 119.621C105.174 120.045 105.232 120.535 105.093 121.017C104.93 121.586 104.504 121.847 104.011 122.114C103.654 122.163 103.231 122.2 102.886 122.081C102.51 121.951 102.216 121.63 102.057 121.275C101.865 120.846 101.84 120.313 102.018 119.873C102.223 119.368 102.611 119.1 103.093 118.887Z" fill="#F9FAFD"/>
</g>
<g id="Group 39">
<path id="Vector_49" d="M95.3585 131.008C95.9543 130.976 96.5673 131.032 97.083 131.363C97.7408 131.784 98.2385 132.48 98.3591 133.26C98.4803 134.044 98.2765 134.789 97.8092 135.425C97.3337 136.073 96.6876 136.268 95.9395 136.388C95.3937 136.432 94.8434 136.323 94.3513 136.075C93.7803 135.788 93.3224 135.25 93.1432 134.636C92.9126 133.845 92.9415 133.048 93.3701 132.322C93.821 131.558 94.5266 131.197 95.3585 131.008Z" fill="#1FC728"/>
<path id="Vector_50" d="M95.4993 132.082C95.6714 132.081 95.8249 132.084 95.9926 132.128C96.4699 132.255 96.836 132.546 97.0662 132.984C97.2772 133.385 97.3108 133.795 97.1627 134.222C96.9536 134.825 96.5101 135.041 95.9762 135.316C95.7143 135.322 95.4297 135.287 95.1858 135.188C94.7634 135.017 94.4431 134.673 94.2719 134.254C94.1171 133.874 94.1561 133.387 94.3208 133.017C94.5681 132.461 94.9705 132.291 95.4993 132.082Z" fill="#F9FAFD"/>
</g>
<path id="Vector_51" d="M113.696 88.03C115.202 87.906 116.59 88.152 117.854 89.0292C119.212 89.9713 120.255 91.6049 120.511 93.2388C120.774 94.9205 120.334 96.6998 119.325 98.0682C118.251 99.5254 116.808 100.268 115.048 100.551C114.489 100.605 113.958 100.596 113.4 100.527C111.768 100.325 110.335 99.5083 109.326 98.2099C108.297 96.8837 107.825 95.1254 108.059 93.4591L108.08 93.3233C108.241 92.1771 108.696 91.1352 109.435 90.2422C110.554 88.8899 111.97 88.2259 113.696 88.03Z" fill="#A18BEC"/>
</g>
<defs>
<linearGradient id="paint0_linear_204_1424" x1="83.7419" y1="61.821" x2="64.379" y2="67.85" gradientUnits="userSpaceOnUse">
<stop stop-color="white"/>
<stop offset="1" stop-color="white"/>
</linearGradient>
</defs>
</svg>
